<svg width="36" height="37" viewBox="0 0 36 37" fill="none" xmlns="http://www.w3.org/2000/svg">
<g clip-path="url(#clip0_1_1303)">
<path opacity="0.15" d="M18 34.5658C8.80608 34.5658 1.32631 26.8783 1.32631 17.4289C1.32631 7.97964 8.80608 0.292168 18 0.292168C27.1939 0.292168 34.6737 7.97971 34.6737 17.429C34.6737 26.8783 27.1939 34.5658 18 34.5658Z" fill="#FFF35F"/>
<path opacity="0.3" d="M18 28.3343C12.1494 28.3343 7.3895 23.4422 7.3895 17.429C7.3895 11.4159 12.1494 6.5237 18 6.5237C23.8506 6.5237 28.6105 11.4158 28.6105 17.4289C28.6105 23.4421 23.8506 28.3343 18 28.3343Z" fill="#FFF35F"/>
<path opacity="0.3" d="M18 24.4395C21.7672 24.4395 24.8211 21.3008 24.8211 17.4289C24.8211 13.5571 21.7672 10.4184 18 10.4184C14.2328 10.4184 11.1789 13.5571 11.1789 17.4289C11.1789 21.3008 14.2328 24.4395 18 24.4395Z" fill="#FFF35F"/>
<path d="M8.14738 31.4693C8.14738 33.1049 9.18238 34.5564 10.7049 35.0323C12.9963 35.7484 15.4638 36.1237 18.0001 36.1237C20.5364 36.1237 23.0039 35.7484 25.2952 35.0323C26.8177 34.5564 27.8527 33.1049 27.8527 31.4693H8.14738Z" fill="#915729"/>
<path d="M18 20.5448H0.568405C0.568405 27.8581 8.37274 33.7868 18 33.7868C27.6273 33.7868 35.4316 27.8581 35.4316 20.5448H18Z" fill="#AD712C"/>
<path d="M0.568405 20.5448C0.568405 25.1306 3.63691 29.1719 8.29926 31.5486C13.0968 33.9942 18.9127 32.5603 22.1657 28.1882C24.4936 25.0593 22.323 20.5448 18.4906 20.5448L0.568405 20.5448Z" fill="#C98A2E"/>
<path d="M18 25.6079C13.7064 25.6079 9.62269 25.0382 6.5011 24.0037C5.08782 23.5353 3.94313 22.9977 3.09875 22.4057C2.50095 21.9866 2.14404 21.2908 2.14404 20.5447C2.14404 19.7985 2.50095 19.1028 3.09882 18.6837C3.94313 18.0918 5.08782 17.5541 6.5011 17.0858C9.62269 16.0512 13.7064 15.4815 18 15.4815C22.2936 15.4815 26.3773 16.0513 29.4989 17.0858C30.9121 17.5541 32.0569 18.0918 32.9013 18.6838C33.4991 19.1028 33.856 19.7986 33.856 20.5448C33.856 21.2909 33.4991 21.9867 32.9012 22.4057C32.0569 22.9977 30.9122 23.5353 29.4989 24.0037C26.3773 25.0382 22.2936 25.6079 18 25.6079Z" fill="#E2C35A"/>
<path d="M32.2606 21.9859C31.6514 21.5587 30.6726 21.0393 29.15 20.5347C26.1381 19.5366 22.1784 18.9869 17.9999 18.9869C13.8215 18.9869 9.86175 19.5366 6.84984 20.5347C5.3273 21.0393 4.34855 21.5587 3.73922 21.9859C3.12792 22.4145 3.12792 23.3487 3.73922 23.7773C4.34848 24.2044 5.3273 24.7239 6.84984 25.2284H29.1499C30.6724 24.7238 31.6512 24.2044 32.2605 23.7773C32.8719 23.3487 32.8719 22.4145 32.2606 21.9859Z" fill="#F6EEA4"/>
<path d="M18 14.3132C8.37274 14.3132 0.568405 17.1032 0.568405 20.5448C0.568405 23.9865 8.37274 26.7764 18 26.7764C27.6273 26.7764 35.4316 23.9864 35.4316 20.5448C35.4316 17.1031 27.6273 14.3132 18 14.3132ZM32.2606 21.4405C31.6514 21.8676 30.6726 22.3871 29.15 22.8917C26.1381 23.8898 22.1784 24.4395 17.9999 24.4395C13.8215 24.4395 9.86175 23.8898 6.84984 22.8917C5.3273 22.3871 4.34855 21.8676 3.73922 21.4405C3.12792 21.0119 3.12792 20.0776 3.73922 19.6491C4.34848 19.2219 5.3273 18.7025 6.84984 18.1979C9.86175 17.1998 13.8215 16.6501 17.9999 16.6501C22.1784 16.6501 26.1381 17.1998 29.15 18.1979C30.6726 18.7025 31.6513 19.2219 32.2606 19.6491C32.8719 20.0776 32.8719 21.0119 32.2606 21.4405Z" fill="#D5A150"/>
<path d="M10.5153 25.582C10.0072 25.4941 9.50534 25.3961 9.0237 25.2906C8.71636 25.2234 8.41472 25.4246 8.34926 25.7402C8.28387 26.0558 8.47969 26.3661 8.78674 26.4334C9.28434 26.5424 9.80248 26.6436 10.3267 26.7342C12.7309 27.1498 15.3125 27.3606 17.9999 27.3606C18.3139 27.3606 18.5683 27.099 18.5683 26.7764C18.5683 26.4537 18.3138 26.1922 17.9999 26.1922C15.3756 26.1922 12.8574 25.9869 10.5153 25.582Z" fill="black"/>
<path d="M21.7458 26.0462C21.2531 26.0852 20.7491 26.1169 20.248 26.1402C19.9344 26.1549 19.6916 26.428 19.7059 26.7503C19.7197 27.0636 19.9712 27.308 20.2733 27.308C20.2819 27.308 20.2907 27.3079 20.2995 27.3074C20.8126 27.2835 21.3286 27.2511 21.8332 27.2112C22.1462 27.1864 22.3803 26.9055 22.3563 26.5839C22.332 26.2621 22.0584 26.0221 21.7458 26.0462Z" fill="black"/>
<path d="M26.9762 25.2907C26.7327 25.344 26.4819 25.3959 26.2309 25.4448C25.9225 25.5049 25.72 25.8108 25.7785 26.1277C25.8302 26.4079 26.0686 26.6031 26.3363 26.6031C26.3714 26.6031 26.4071 26.5997 26.4429 26.5927C26.7022 26.5422 26.9614 26.4885 27.2134 26.4333C27.5205 26.3661 27.7163 26.0557 27.6508 25.7401C27.5852 25.4246 27.2832 25.2234 26.9762 25.2907Z" fill="black"/>
<path d="M32.581 19.1664C31.7816 18.606 30.6859 18.0931 29.3245 17.6418C29.0257 17.5428 28.7054 17.7116 28.6091 18.0186C28.5128 18.3256 28.6769 18.6548 28.9756 18.7539C30.5423 19.2731 31.4527 19.7897 31.9404 20.1317C32.074 20.2255 32.1507 20.376 32.1507 20.5448C32.1507 20.7136 32.074 20.8642 31.9404 20.9579C31.9239 20.9695 31.9058 20.9816 31.8885 20.9935C31.1837 20.5987 30.3233 20.2318 29.3246 19.9009C27.6016 19.3298 25.5987 18.9046 23.3714 18.6369C23.06 18.5996 22.7772 18.8289 22.7408 19.1493C22.7044 19.4697 22.9276 19.76 23.2393 19.7974C25.3932 20.0562 27.3231 20.4652 28.9757 21.0128C29.6033 21.2208 30.168 21.4419 30.6662 21.6739C30.2139 21.8846 29.657 22.1098 28.9757 22.3356C26.1551 23.2704 22.4781 23.8042 18.5686 23.8515V22.5253H17.4317V23.8515C13.5222 23.8042 9.84523 23.2704 7.02458 22.3356C6.34325 22.1098 5.7863 21.8846 5.33412 21.6739C5.83229 21.4419 6.39718 21.2208 7.02458 21.0128C8.67713 20.4651 10.6071 20.0562 12.761 19.7974C13.0727 19.76 13.296 19.4697 13.2595 19.1493C13.2231 18.829 12.9414 18.5996 12.6289 18.6369C10.4017 18.9046 8.39869 19.3299 6.67569 19.9009C5.67704 20.2318 4.81662 20.5987 4.11181 20.9935C4.09444 20.9816 4.07623 20.9695 4.05992 20.9579C3.92626 20.8642 3.84954 20.7136 3.84954 20.5449C3.84954 20.3761 3.92626 20.2256 4.05992 20.1318C4.54761 19.7898 5.45794 19.2732 7.02465 18.7539C7.3234 18.6549 7.48751 18.3257 7.39119 18.0186C7.29486 17.7116 6.97465 17.5428 6.67576 17.6419C5.31436 18.0931 4.21869 18.606 3.4193 19.1665C2.97683 19.4767 2.71266 19.9919 2.71266 20.5448C2.71266 21.0977 2.9769 21.613 3.41923 21.9231C3.54418 22.0107 3.67735 22.097 3.81678 22.1823C3.81854 22.1833 3.82008 22.1844 3.82184 22.1854C4.57299 22.6442 5.5298 23.0678 6.67576 23.4476C9.74251 24.4639 13.7642 25.0236 18.0002 25.0236C22.2362 25.0236 26.258 24.4639 29.3247 23.4476C30.6861 22.9964 31.7817 22.4835 32.5811 21.923C33.0236 21.6128 33.2878 21.0976 33.2878 20.5447C33.2876 19.9919 33.0235 19.4766 32.581 19.1664Z" fill="black"/>
<path d="M32.005 16.1913C29.6301 15.0986 26.2901 14.3012 22.6004 13.9457C22.2881 13.915 22.0107 14.1516 21.9814 14.4729C21.9521 14.7941 22.1818 15.0789 22.4944 15.109C26.0635 15.4529 29.2762 16.2159 31.5405 17.2577C33.6831 18.2435 34.8631 19.4108 34.8631 20.5448C34.8631 21.7034 33.6384 22.891 31.4146 23.889C30.8018 24.164 30.1108 24.4234 29.361 24.6599C29.0609 24.7546 28.8923 25.0815 28.9844 25.3899C29.0595 25.6412 29.2845 25.8028 29.5276 25.8028C29.5829 25.8028 29.639 25.7945 29.6946 25.7769C30.4855 25.5274 31.2173 25.2525 31.8695 24.9598C32.9106 24.4926 33.7617 23.9786 34.4158 23.4276C33.4714 26.4428 31.0684 29.1373 27.5953 30.9483C24.7671 32.4232 21.449 33.2027 17.9999 33.2027C17.258 33.2027 16.5113 33.166 15.7807 33.0937C15.4681 33.0627 15.1905 33.298 15.1604 33.6191C15.1303 33.9403 15.3591 34.2258 15.6716 34.2567C16.4384 34.3327 17.2216 34.3711 17.9998 34.3711C21.2373 34.3711 24.37 33.7146 27.1299 32.4661C26.8267 33.4145 26.0975 34.1708 25.1295 34.4733C22.866 35.1809 20.4671 35.5395 17.9998 35.5395C15.5325 35.5395 13.1337 35.1808 10.87 34.4733C9.90162 34.1707 9.17212 33.4136 8.86929 32.4645C10.035 32.9916 11.2727 33.4169 12.5639 33.7302C12.6078 33.7409 12.6517 33.746 12.695 33.746C12.9526 33.746 13.1861 33.5647 13.2477 33.2958C13.3199 32.9818 13.1306 32.6671 12.8251 32.593C11.2536 32.2118 9.76627 31.6584 8.40431 30.9483C4.9308 29.1369 2.52745 26.442 1.58344 23.4262C2.65191 24.328 4.24287 25.1265 6.3045 25.777C6.36005 25.7946 6.41623 25.8029 6.47149 25.8029C6.71463 25.8029 6.93963 25.6412 7.01466 25.39C7.10677 25.0815 6.93816 24.7547 6.63806 24.66C3.19338 23.5731 1.13674 22.0348 1.13674 20.5448C1.13674 19.4108 2.3168 18.2435 4.45943 17.2577C6.72377 16.2159 9.93649 15.4529 13.5056 15.109C13.8181 15.0789 14.0477 14.7941 14.0185 14.4729C13.9892 14.1516 13.7116 13.915 13.3995 13.9457C9.7098 14.3011 6.36982 15.0986 3.99495 16.1913C1.3815 17.3937 0 18.8991 0 20.5448C0 25.0425 2.83177 29.241 7.59333 31.8321C7.73325 33.5882 8.88173 35.073 10.5395 35.5911C12.9104 36.3321 15.4205 36.7078 18 36.7078C20.5795 36.7078 23.0896 36.3321 25.4605 35.5911C27.1183 35.073 28.2668 33.5882 28.4067 31.8321C33.1682 29.2411 36 25.0425 36 20.5448C36 18.8991 34.6185 17.3937 32.005 16.1913Z" fill="black"/>
<path d="M18 22.6869C16.568 22.6869 15.9158 19.9613 15.9158 17.429C15.9158 14.8966 16.568 12.1711 18 12.1711C19.4321 12.1711 20.0842 14.8966 20.0842 17.429C20.0842 19.9613 19.4321 22.6869 18 22.6869Z" fill="#E5A430"/>
<path d="M18 13.3422C17.7286 13.4561 17.0526 14.8349 17.0526 17.429C17.0526 20.0231 17.7286 21.4019 18 21.5159C18.2714 21.402 18.9474 20.0231 18.9474 17.429C18.9474 14.8349 18.2714 13.4561 18 13.3422Z" fill="#FFF35F"/>
</g>
<defs>
<clipPath id="clip0_1_1303">
<rect width="36" height="37" fill="white"/>
</clipPath>
</defs>
</svg>
