<svg width="34" height="35" viewBox="0 0 34 35" fill="none" xmlns="http://www.w3.org/2000/svg">
<g clip-path="url(#clip0_1_798)">
<path fill-rule="evenodd" clip-rule="evenodd" d="M23.3007 1.41168L15.3325 6.73033C14.7223 7.13767 14.5573 7.96319 14.9642 8.57417C15.371 9.18515 16.1955 9.35029 16.8057 8.94295L24.0373 4.11601L31.2688 8.94295C31.879 9.35029 32.7035 9.18515 33.1104 8.57417C33.5172 7.96319 33.3523 7.13767 32.7421 6.73033L24.7983 1.4279C24.3632 1.12361 23.7688 1.09914 23.3007 1.41168Z" fill="#FFC059"/>
<path fill-rule="evenodd" clip-rule="evenodd" d="M24.0373 4.11601L16.8057 8.94295V13.3492L18.6651 14.5904C19.2753 14.9977 19.4402 15.8232 19.0334 16.4342C18.6266 17.0452 17.802 17.2103 17.1918 16.803V18.1779H21.7333L22.0452 17.9697V12.1944H26.0293V17.9697L26.3413 18.1779H31.2688V8.94295L24.0373 4.11601Z" fill="#FFECD1"/>
<path fill-rule="evenodd" clip-rule="evenodd" d="M26.0293 12.1944H22.0452V17.9697L23.3007 17.1317C23.7689 16.8191 24.3632 16.8436 24.7983 17.148L26.0293 17.9696V12.1944Z" fill="#C58965"/>
<path fill-rule="evenodd" clip-rule="evenodd" d="M16.8058 13.3492L10.7213 9.288C10.2863 8.9837 9.69191 8.95917 9.22372 9.27171L1.25556 14.5904C0.645334 14.9977 0.480393 15.8232 0.887234 16.4342C1.29407 17.0452 2.11858 17.2103 2.72881 16.803L9.96031 11.976L17.1918 16.803C17.802 17.2103 18.6265 17.0452 19.0334 16.4342C19.4402 15.8232 19.2753 14.9977 18.6651 14.5904L16.8058 13.3492Z" fill="#FF9256"/>
<path fill-rule="evenodd" clip-rule="evenodd" d="M17.1918 16.803L9.96032 11.976L2.72882 16.803V24.1462C3.30392 24.0062 3.936 24.161 4.38507 24.6107C4.77478 25.0008 4.94277 25.5289 4.88906 26.0379H7.96828V20.0545H11.9524V26.0379H16.8058V24.663C16.1955 25.0704 15.371 24.9052 14.9642 24.2942C14.5574 23.6832 14.7223 22.8577 15.3325 22.4504L17.1919 21.2093V18.1779V16.803H17.1918Z" fill="#FFECD1"/>
<path d="M11.9524 20.0545H7.96829V26.0379H11.9524V20.0545Z" fill="#C58965"/>
<path fill-rule="evenodd" clip-rule="evenodd" d="M17.1918 21.2093L15.3325 22.4504C14.7222 22.8577 14.5573 23.6832 14.9641 24.2942C15.371 24.9052 16.1955 25.0704 16.8057 24.663L24.0373 19.8361L31.2688 24.663C31.879 25.0704 32.7035 24.9052 33.1104 24.2942C33.5172 23.6832 33.3523 22.8577 32.742 22.4504L26.3412 18.1779L26.0293 17.9697L24.7982 17.148C24.3632 16.8437 23.7688 16.8192 23.3006 17.1317L22.0452 17.9698L21.7332 18.178L17.1918 21.2093Z" fill="#FF6977"/>
<path fill-rule="evenodd" clip-rule="evenodd" d="M24.0373 19.8361L16.8058 24.663V26.0379V29.1989V33.898H22.0452V27.9145H26.0293V33.898H31.2688V24.663L24.0373 19.8361Z" fill="#FFECD1"/>
<path d="M26.0293 27.9145H22.0452V33.898H26.0293V27.9145Z" fill="#C58965"/>
<path fill-rule="evenodd" clip-rule="evenodd" d="M26.3412 18.1779L32.7421 22.4504C33.3523 22.8577 33.5172 23.6832 33.1104 24.2942C32.7036 24.9052 31.879 25.0704 31.2688 24.663V33.898H33.3336V18.1779H31.2688H26.3412Z" fill="#E2F0A1"/>
<path fill-rule="evenodd" clip-rule="evenodd" d="M17.1918 21.2093L21.7333 18.1779H17.1918V21.2093Z" fill="#E2F0A1"/>
<path fill-rule="evenodd" clip-rule="evenodd" d="M16.8058 26.0379H11.9524H7.96828H4.88905C4.86634 26.2532 4.80406 26.465 4.70206 26.6616C5.4119 26.8865 5.92637 27.5512 5.92637 28.3363H0.664001V33.8979H12.1125C12.1125 33.1978 12.5713 32.6049 13.2044 32.4044C12.8984 31.8143 12.9926 31.0702 13.4871 30.5752C13.9816 30.0801 14.7247 29.9858 15.314 30.2921C15.5143 29.6583 16.1064 29.1989 16.8057 29.1989V26.0379H16.8058Z" fill="#CBE557"/>
<path fill-rule="evenodd" clip-rule="evenodd" d="M4.70206 26.6617C4.80399 26.4651 4.86634 26.2533 4.88905 26.038C4.94277 25.5289 4.77477 25.0009 4.38507 24.6107C3.93599 24.1611 3.30392 24.0062 2.72875 24.1462C2.59389 24.1791 2.46215 24.2281 2.33658 24.2934C2.11195 23.5827 1.44807 23.0675 0.664001 23.0675V28.3364H5.92637C5.92637 27.5512 5.4119 26.8865 4.70206 26.6617Z" fill="#AAE2C9"/>
<path fill-rule="evenodd" clip-rule="evenodd" d="M13.4871 30.5753C12.9926 31.0704 12.8984 31.8144 13.2044 32.4044C12.5713 32.605 12.1125 33.1978 12.1125 33.898H16.8057V29.1989C16.1064 29.1989 15.5143 29.6583 15.314 30.2922C14.7248 29.9858 13.9816 30.0802 13.4871 30.5753Z" fill="#78D0A9"/>
<path d="M33.1104 21.8972L28.5344 18.8427H33.3335C33.7002 18.8427 33.9975 18.545 33.9975 18.1779C33.9975 17.8108 33.7002 17.5131 33.3335 17.5131H31.9328V9.82917C31.9556 9.82997 31.9784 9.83169 32.0013 9.83169C32.1325 9.83169 32.2646 9.81866 32.3961 9.79234C32.9178 9.68789 33.3677 9.38619 33.6628 8.94295C34.2721 8.02794 34.0242 6.78723 33.1104 6.17712L25.1719 0.878285C24.4956 0.40918 23.6175 0.401269 22.9323 0.858473L21.1584 2.0426C20.8532 2.24624 20.7708 2.65903 20.9743 2.96452C21.1776 3.27008 21.5901 3.35265 21.895 3.14888L23.6689 1.96482C23.8981 1.81184 24.1921 1.81483 24.418 1.97293C24.422 1.97565 24.4259 1.97838 24.43 1.98104L32.3737 7.2834C32.6783 7.48677 32.761 7.90029 32.5579 8.20532C32.3548 8.51041 31.9418 8.59298 31.6371 8.38968L24.4056 3.56287C24.1826 3.41395 23.8921 3.41395 23.6689 3.56287L16.4374 8.38981C16.2898 8.48827 16.1128 8.52337 15.9389 8.48854C15.765 8.4537 15.6151 8.35318 15.5167 8.20538C15.4183 8.05759 15.3833 7.88035 15.4181 7.70623C15.4528 7.53211 15.5533 7.38193 15.7009 7.28346L17.4752 6.0992C17.7803 5.89556 17.8628 5.48284 17.6593 5.17728C17.4558 4.87172 17.0436 4.78922 16.7385 4.99292L14.9642 6.17719C14.5215 6.47264 14.2202 6.92313 14.1159 7.44548C14.0115 7.96791 14.1166 8.49971 14.4117 8.94295C14.7069 9.38619 15.1568 9.68789 15.6785 9.79234C15.833 9.82332 15.9882 9.83535 16.1418 9.83003V12.107L11.0953 8.73851C10.419 8.26921 9.54067 8.26103 8.85548 8.7185L7.08117 9.90283C6.77606 10.1065 6.69358 10.5193 6.89704 10.8248C7.10043 11.1303 7.51278 11.2129 7.81783 11.0091L9.5922 9.82478C9.82142 9.67174 10.1154 9.67499 10.3411 9.83289C10.3451 9.83568 10.3491 9.83841 10.3532 9.84107L16.4339 13.8999C16.4345 13.9003 16.4351 13.9007 16.4357 13.9011L18.2969 15.1434C18.4445 15.2419 18.5448 15.3921 18.5797 15.5662C18.6144 15.7403 18.5794 15.9176 18.481 16.0654C18.3827 16.2131 18.2328 16.3136 18.0589 16.3485C17.8852 16.3832 17.708 16.3483 17.5604 16.2498L10.3287 11.4228C10.1057 11.2739 9.81504 11.2739 9.592 11.4228L2.3605 16.2498C2.21296 16.3484 2.03586 16.3835 1.86196 16.3486C1.68805 16.3137 1.53812 16.2132 1.43971 16.0654C1.23659 15.7604 1.31926 15.3468 1.62384 15.1435L3.39776 13.9594C3.70287 13.7557 3.78534 13.3429 3.58189 13.0374C3.3785 12.7319 2.96621 12.6494 2.6611 12.8531L0.887122 14.0372C-0.0267597 14.6473 -0.274636 15.888 0.334663 16.803C0.629817 17.2463 1.07969 17.548 1.60147 17.6524C1.73294 17.6788 1.86508 17.6918 1.99622 17.6918C2.01913 17.6918 2.04191 17.6901 2.06475 17.6893V22.8474C1.66614 22.5644 1.18095 22.4026 0.664013 22.4026C0.297279 22.4026 0 22.7004 0 23.0675C0 23.4346 0.297279 23.7323 0.664013 23.7323C1.14184 23.7323 1.55957 24.0384 1.70353 24.4939C1.76269 24.681 1.90134 24.8325 2.08248 24.9075C2.26362 24.9827 2.4686 24.9738 2.64264 24.8834C2.72106 24.8426 2.80253 24.8123 2.88527 24.7918C2.88686 24.7914 2.88846 24.7909 2.89005 24.7905C3.253 24.7025 3.64145 24.8064 3.91555 25.0809C4.15201 25.3176 4.26124 25.6394 4.23049 25.9567C4.2297 25.9631 4.22877 25.9694 4.22817 25.9758C4.2133 26.1054 4.17565 26.234 4.11276 26.3553C4.02246 26.5294 4.01356 26.7348 4.08859 26.9161C4.16363 27.0975 4.31489 27.2363 4.50181 27.2955C4.72127 27.3651 4.906 27.4984 5.0384 27.6714H0.664013C0.297279 27.6714 0 27.9691 0 28.3363C0 28.7034 0.297279 29.0011 0.664013 29.0011H5.92638C6.29312 29.0011 6.5904 28.7034 6.5904 28.3363C6.5904 27.7139 6.35686 27.1376 5.96012 26.7028H16.1417V28.6344C15.6704 28.7804 15.2617 29.0791 14.9796 29.4838C14.2771 29.3584 13.5439 29.578 13.0176 30.1052C12.4911 30.6323 12.272 31.3662 12.397 32.0696C11.8119 32.4784 11.4485 33.1525 11.4485 33.898C11.4485 34.2651 11.7457 34.5628 12.1125 34.5628C12.4792 34.5628 12.7765 34.2651 12.7765 33.898C12.7765 33.5029 13.0289 33.1573 13.4047 33.0383C13.5916 32.979 13.7428 32.8402 13.8178 32.6589C13.8929 32.4775 13.8841 32.2723 13.7937 32.098C13.6121 31.7478 13.6775 31.3247 13.9566 31.0454C14.2356 30.7659 14.6582 30.7005 15.008 30.8822C15.182 30.9726 15.387 30.9814 15.5682 30.9064C15.7493 30.8313 15.888 30.6799 15.9471 30.4927C15.9878 30.3641 16.0553 30.2504 16.1418 30.1558V33.2331C15.775 33.2331 15.4777 33.5308 15.4777 33.8979C15.4777 34.265 15.775 34.5627 16.1418 34.5627H31.9329C32.2995 34.5627 32.5969 34.265 32.5969 33.8979C32.5969 33.5308 32.2995 33.2331 31.9329 33.2331V25.5492C31.9557 25.55 31.9785 25.5518 32.0014 25.5518C32.1325 25.5518 32.2647 25.5387 32.3961 25.5124C32.9179 25.4079 33.3677 25.1062 33.6629 24.663C34.2722 23.748 34.0244 22.5073 33.1104 21.8972ZM25.1719 16.5983C24.4956 16.1292 23.6175 16.1214 22.9323 16.5785L22.7092 16.7275V12.8592H25.3653V16.7274L25.1719 16.5983ZM17.8559 18.8427H19.5402L17.8559 19.967V18.8427ZM17.4698 12.9935V9.2987L24.0373 4.915L30.6048 9.2987V17.5131H26.6933V12.1944C26.6933 11.8273 26.396 11.5296 26.0293 11.5296H22.0452C21.6785 11.5296 21.3812 11.8273 21.3812 12.1944V17.5131H18.7517C19.088 17.361 19.3762 17.118 19.5859 16.803C19.881 16.3597 19.9861 15.8279 19.8818 15.3055C19.7774 14.7832 19.4761 14.3327 19.0334 14.0372L17.4698 12.9935ZM3.39284 23.4421V17.1588L9.96033 12.775L16.5279 17.1588V20.8535L14.9642 21.8972C14.5215 22.1927 14.2202 22.6431 14.1159 23.1655C14.0115 23.6879 14.1166 24.2197 14.4117 24.6629C14.6215 24.978 14.9098 25.2211 15.2462 25.3731H12.6164V20.0545C12.6164 19.6873 12.3191 19.3896 11.9524 19.3896H7.96829C7.60156 19.3896 7.30428 19.6873 7.30428 20.0545V25.3731H5.51629C5.42426 24.918 5.20148 24.4879 4.8546 24.1406C4.44949 23.735 3.93162 23.4976 3.39284 23.4421ZM11.2884 25.3731H8.6323V20.7193H11.2884V25.3731ZM25.3653 33.2331H22.7092V28.5793H25.3653V33.2331ZM26.6933 33.2331V27.9145C26.6933 27.5474 26.396 27.2497 26.0293 27.2497H22.0452C21.6785 27.2497 21.3812 27.5474 21.3812 27.9145V33.2331H17.4698V25.0188L24.0373 20.6351L30.6048 25.0188V33.2331H26.6933ZM32.558 23.9254C32.4596 24.0732 32.3096 24.1737 32.1357 24.2086C31.9619 24.2433 31.7848 24.2083 31.6372 24.1099L24.4057 19.2829C24.1826 19.134 23.8921 19.134 23.669 19.2829L16.4374 24.1098C16.2899 24.2083 16.1129 24.2433 15.939 24.2085C15.7651 24.1737 15.6151 24.0732 15.5167 23.9254C15.4183 23.7776 15.3833 23.6003 15.4181 23.4262C15.4529 23.2521 15.5534 23.1019 15.7009 23.0035L17.561 21.7619C17.5623 21.7611 17.5635 21.7602 17.5649 21.7594L22.1037 18.7298C22.1042 18.7294 22.1048 18.7291 22.1053 18.7287L22.4148 18.522C22.4158 18.5214 22.4168 18.5208 22.4177 18.5201L23.669 17.6849C23.7816 17.6098 23.9097 17.5724 24.0378 17.5724C24.1705 17.5724 24.3032 17.6126 24.4182 17.6931C24.4222 17.6958 24.4261 17.6985 24.4302 17.7012L25.6574 18.5203C25.6581 18.5208 25.6588 18.5212 25.6595 18.5217L25.9696 18.7287C25.9701 18.7291 25.9706 18.7293 25.971 18.7297L32.3738 23.0035C32.6783 23.2068 32.761 23.6204 32.558 23.9254Z" fill="black"/>
<path d="M24.0373 23.9617C23.6706 23.9617 23.3733 24.2596 23.3733 24.6268C23.3733 24.994 23.6706 25.2916 24.0373 25.2916C24.4039 25.2916 24.7013 24.9939 24.7013 24.6268V24.6263C24.7013 24.2591 24.404 23.9617 24.0373 23.9617Z" fill="black"/>
<path d="M9.96031 17.4316C10.327 17.4316 10.6243 17.1339 10.6243 16.7667V16.7662C10.6243 16.3991 10.327 16.1017 9.96031 16.1017C9.59357 16.1017 9.2963 16.3996 9.2963 16.7667C9.2963 17.1339 9.59357 17.4316 9.96031 17.4316Z" fill="black"/>
<path d="M24.0373 9.57155C24.4039 9.57155 24.7013 9.27383 24.7013 8.90671V8.90625C24.7013 8.53913 24.4039 8.24162 24.0373 8.24162C23.6706 8.24162 23.3733 8.53953 23.3733 8.90671C23.3733 9.27383 23.6706 9.57155 24.0373 9.57155Z" fill="black"/>
<path d="M5.23983 12.5963C5.36639 12.5963 5.49434 12.5601 5.60756 12.4845L5.60796 12.4842C5.91307 12.2806 5.99534 11.8679 5.79195 11.5624C5.5885 11.2569 5.17602 11.1745 4.87097 11.3782C4.56585 11.5819 4.48338 11.9947 4.68684 12.3001C4.81466 12.4923 5.02528 12.5963 5.23983 12.5963Z" fill="black"/>
<path d="M19.3172 4.73583C19.4437 4.73583 19.5717 4.69967 19.6849 4.62407L19.6853 4.62381C19.9905 4.42017 20.0727 4.00744 19.8693 3.70202C19.6659 3.3966 19.2536 3.31403 18.9483 3.5178C18.6431 3.72143 18.5607 4.13423 18.7642 4.43972C18.892 4.63192 19.1026 4.73583 19.3172 4.73583Z" fill="black"/>
</g>
<defs>
<clipPath id="clip0_1_798">
<rect width="33.9975" height="34.0419" fill="white" transform="translate(0 0.520935)"/>
</clipPath>
</defs>
</svg>
