<svg id="Layer_1" viewBox="0 0 24 24" xmlns="http://www.w3.org/2000/svg" data-name="Layer 1"><path d="m18.5 13.021c-1.225 0-2.37.483-3.225 1.361l-.503.513c-.733-.29-2.228-.937-3.469-2.178s-1.889-2.735-2.178-3.468l.513-.503c.878-.855 1.361-2 1.361-3.225 0-2.481-2.019-4.5-4.5-4.5-2.283 0-5.499 1.947-5.499 6.275 0 2.333 2.216 7.149 5.396 10.329 3.181 3.18 7.996 5.396 10.328 5.396 4.328 0 6.275-3.216 6.275-5.5 0-2.481-2.019-4.5-4.5-4.5zm-1.775 9c-1.886 0-6.459-1.941-9.621-5.104-3.163-3.161-5.104-7.734-5.104-9.621 0-3.843 2.76-5.275 4.5-5.275 1.93 0 3.5 1.57 3.5 3.5 0 .953-.376 1.844-1.059 2.508l-.752.738c-.144.141-.188.354-.114.54.295.744.943 2.514 2.521 4.117 1.603 1.579 3.371 2.225 4.116 2.521.188.072.399.029.541-.114l.738-.751c.665-.683 1.556-1.059 2.508-1.059 1.93 0 3.5 1.57 3.5 3.5 0 1.74-1.433 4.5-5.275 4.5zm-2.137-11.018c.52 0 1.462-.799 2.25-1.57.331.033.907.086 1.162.086 2.209 0 4.088-.474 4.106-.479.159-.041.296-.178.353-.333.163-.443.541-1.668.541-3.458s-.378-2.984-.546-3.433c-.055-.158-.186-.278-.348-.32-.019-.005-1.897-.479-4.106-.479s-4.088.474-4.106.479c-.163.042-.297.17-.352.33-.091.266-.542 1.69-.542 3.629 0 3.148 1.048 5.269 1.421 5.511.049.024.105.036.167.036zm-.179-8.598c.57-.123 1.982-.386 3.591-.386 1.618 0 3.038.267 3.602.388.16.5.398 1.475.398 2.843s-.245 2.374-.402 2.881c-.565.122-1.982.388-3.598.388-.25 0-1.019-.076-1.293-.104-.15-.02-.299.037-.406.144-.572.572-1.119 1.017-1.464 1.268-.297-.657-.837-2.156-.837-4.37 0-1.43.263-2.541.409-3.052z"/></svg>