<svg clip-rule="evenodd" fill-rule="evenodd" height="512" stroke-linejoin="round" stroke-miterlimit="2" viewBox="0 0 24 24" width="512" xmlns="http://www.w3.org/2000/svg"><g id="Icon"><path d="m12 1.75c5.954 0 10.75 4.392 10.75 9.75 0 2.595-1.119 4.959-2.953 6.711l.446 3.185c.038.276-.079.551-.305.713-.227.163-.524.186-.773.062 0 0-3.207-1.604-3.207-1.604-1.224.44-2.56.683-3.958.683-5.954 0-10.75-4.392-10.75-9.75s4.796-9.75 10.75-9.75zm0 1.5c-5.085 0-9.25 3.674-9.25 8.25s4.165 8.25 9.25 8.25c1.324 0 2.584-.249 3.725-.698.198-.078.42-.068.61.027l2.225 1.112-.303-2.162c-.035-.25.058-.5.247-.666 1.69-1.492 2.746-3.566 2.746-5.863 0-4.576-4.165-8.25-9.25-8.25z"/></g></svg>