<svg id="Layer_1" enable-background="new 0 0 512 512" height="512" viewBox="0 0 512 512" width="512" xmlns="http://www.w3.org/2000/svg"><path d="m485.318 13.006h-363.489c-14.713 0-26.683 11.969-26.683 26.682v52.258c-2.185-1.446-4.651-2.665-7.43-3.479-4.987-1.462-12.903-2.068-22.275 3.341-.001.001-.003.002-.005.003-1.973 1.14-4.008 2.3-6.079 3.479-18.59 10.59-39.66 22.593-48.474 39.008-12.755 23.736-14.463 62.8-4.252 97.203 18.746 63.218 51.478 118.205 97.293 163.44 45.234 45.815 100.22 78.547 163.439 97.293 15.252 4.527 31.115 6.759 46.161 6.758 19.407 0 37.453-3.715 51.042-11.008 16.454-8.835 28.466-29.964 39.064-48.605 1.153-2.029 2.287-4.023 3.395-5.945 5.428-9.374 4.829-17.291 3.371-22.282-3.164-10.827-12.432-16.993-17.666-19.7l-85.221-44.212c-11.133-5.822-22.606-3.962-27.9 4.523l-19.961 31.954c-2.158 3.463-5.064 6.24-11.615 3.155-28.101-13.31-63.273-45.486-77.228-58.839-.881-.921-1.849-1.94-2.883-3.037h317.396c14.713 0 26.682-11.97 26.682-26.683v-258.625c0-14.713-11.969-26.682-26.682-26.682zm-136.868 152.956 147.484-127.423c.041.378.064.761.064 1.149v253.764zm-236.448 84.89c-3.093-6.568-.315-9.472 3.152-11.634l31.946-19.955c8.489-5.296 10.351-16.77 4.539-27.879l-40.49-78.048v-73.648c0-.383.022-.762.062-1.135l147.484 127.409-129.959 112.27c-6.645-9.244-12.601-18.653-16.734-27.38zm12.635-221.844h357.853l-178.917 154.58zm-51.197 76.66c3.642-2.101 6.841-2.703 9.778-1.844 3.678 1.077 7.412 4.694 9.993 9.683l44.236 85.269c1.721 3.289 1.904 6.459 1.178 6.911l-17.202 10.746-55.31-106.573c.389-.222.779-.444 1.166-.664 2.099-1.197 4.161-2.371 6.161-3.528zm226.676 255.765 85.254 44.229c4.98 2.575 8.593 6.306 9.667 9.98.858 2.936.25 6.133-1.866 9.788-1.131 1.962-2.281 3.984-3.452 6.043-.237.416-.475.835-.713 1.253l-106.57-55.283 10.747-17.204c.449-.721 3.619-.538 6.933 1.194zm-58.917 39.91c12.738 5.997 24.711 2.574 32.023-9.151l.709-1.134 106.988 55.5c-7.26 11.837-15.196 22.645-23.921 27.33-20.28 10.884-54.471 12.095-85.083 3.008-60.617-17.975-113.317-49.342-156.638-93.23-.024-.024-.049-.049-.073-.073-43.889-43.323-75.256-96.023-93.231-156.64-9.09-30.625-7.882-64.815 3.008-85.08 4.681-8.718 15.483-16.654 27.307-23.915l55.522 106.981-1.128.705c-11.732 7.316-15.154 19.289-9.148 32.042 14.353 30.299 48.024 67.118 61.835 81.542.08.084.162.166.246.246 14.429 13.817 51.267 47.509 81.584 61.869zm-87.802-92.347c-4.802-5.494-9.933-11.588-14.986-17.975l132.522-114.485 27.41 23.679c1.502 1.298 3.366 1.947 5.23 1.947s3.728-.649 5.231-1.947l27.408-23.68 152.605 131.86c-1.098.383-2.272.601-3.499.601z"/><path d="m147.099 219.262-31.946 19.955c-3.467 2.162-6.245 5.066-3.152 11.634 4.134 8.727 10.089 18.137 16.734 27.381l129.958-112.269-147.483-127.409c-.04.373-.062.751-.062 1.135v73.647l40.49 78.048c5.811 11.108 3.95 22.582-4.539 27.878z" fill="#ffd26f"/><path d="m389.719 431.473c1.17-2.059 2.32-4.081 3.451-6.043 2.116-3.655 2.724-6.852 1.866-9.788-1.073-3.674-4.687-7.405-9.667-9.98l-85.254-44.229c-3.313-1.732-6.484-1.915-6.933-1.194l-10.747 17.204 106.57 55.283c.239-.418.477-.837.714-1.253z" fill="#75b5f8"/><path d="m348.449 165.962 147.549 127.49v-253.764c0-.389-.024-.772-.064-1.149z" fill="#ffd26f"/><path d="m138.625 205.688c.725-.452.543-3.622-1.178-6.911l-44.237-85.27c-2.581-4.989-6.315-8.606-9.993-9.683-2.937-.859-6.136-.257-9.778 1.844-2 1.156-4.062 2.331-6.162 3.527-.387.221-.777.442-1.166.664l55.311 106.574z" fill="#75b5f8"/><path d="m308.804 200.215c-1.502 1.297-3.366 1.946-5.231 1.946-1.864 0-3.728-.649-5.23-1.946l-27.41-23.679-132.523 114.484c5.053 6.387 10.185 12.481 14.987 17.975h331.921c1.227 0 2.401-.218 3.499-.601l-152.605-131.86z" fill="#f9c969"/><path d="m159.367 339.227c-13.811-14.423-47.482-51.242-61.835-81.542-6.006-12.754-2.583-24.726 9.148-32.042l1.128-.705-55.521-106.981c-11.824 7.261-22.626 15.198-27.307 23.915-10.89 20.265-12.098 54.455-3.008 85.08 17.975 60.617 49.342 113.317 93.231 156.64l.073.073c43.321 43.888 96.021 75.255 156.638 93.23 30.612 9.086 64.802 7.876 85.083-3.008 8.725-4.685 16.661-15.493 23.921-27.33l-106.988-55.5-.708 1.134c-7.312 11.726-19.285 15.149-32.023 9.151-30.317-14.36-67.155-48.052-81.586-61.871-.084-.079-.166-.161-.246-.244z" fill="#95c7f8"/><path d="m482.49 29.008h-357.853l178.936 154.579z" fill="#ffe187"/></svg>