<svg width="23" height="23" viewBox="0 0 23 23" fill="none" xmlns="http://www.w3.org/2000/svg">
<g clip-path="url(#clip0_16_13)">
<path d="M22.1689 12.7212H17.0232C17.0677 12.6503 17.1105 12.5781 17.15 12.5037C17.8214 11.239 17.6216 9.73902 16.7631 8.69611L15.0014 5.58819C14.0152 3.76153 12.3195 3.59474 10.6796 3.43342C10.4444 3.41029 10.2013 3.38639 9.96215 3.35786C8.30368 3.15962 7.98002 2.982 6.77566 2.3212C6.63339 2.24313 6.47927 2.15859 6.31032 2.06708C6.33448 1.90289 6.32195 1.7338 6.27159 1.56997C6.18278 1.28104 5.98751 1.0447 5.72345 0.9054L4.27266 0.132295C4.00677 -0.00898479 3.70125 -0.0382739 3.41254 0.0500426C3.12342 0.138404 2.88646 0.333679 2.7454 0.599617L0.514225 4.7999C0.372901 5.06543 0.343612 5.37072 0.431838 5.65962C0.52011 5.94869 0.715205 6.18574 0.981188 6.32702L2.43149 7.0999C2.59977 7.1893 2.78062 7.23166 2.95914 7.23166C3.36362 7.23161 3.75565 7.01397 3.95874 6.63253L3.98031 6.59193C4.43811 6.87592 4.70624 7.14437 4.95048 7.54121C5.66856 8.70604 6.37056 9.04533 7.04946 9.3734C7.28557 9.4875 7.50861 9.59531 7.74135 9.7405L10.6881 11.5781C10.7099 11.5916 10.732 11.6051 10.7542 11.6185C10.8397 12.0119 10.992 12.3847 11.2034 12.7211H6.5338C6.2857 12.7211 6.08458 12.9222 6.08458 13.1703V21.5843C6.08458 22.3649 6.71924 23 7.4994 23H21.2034C21.9835 23 22.6182 22.3649 22.6182 21.5843V13.1704C22.6182 12.9223 22.4171 12.7212 22.1689 12.7212ZM16.3565 12.0824C16.2298 12.3211 16.0678 12.5351 15.8747 12.7212H12.353C12.1147 12.4921 11.9242 12.2197 11.7914 11.9193C11.8275 11.914 11.8637 11.9069 11.9 11.8972C12.174 11.8235 12.3947 11.6322 12.5561 11.3286C12.859 10.7585 12.7375 9.83335 12.3179 9.08985C13.0981 8.30628 14.3075 8.11159 15.3066 8.64283C16.5426 9.30193 17.0135 10.8449 16.3565 12.0824ZM11.7616 8.37811L10.275 6.83441C10.2708 6.82929 10.2668 6.82435 10.2631 6.81968C10.3154 6.79946 10.3959 6.77557 10.5161 6.75535C11.6948 6.55823 12.0337 6.88989 12.5826 7.80522C12.2865 7.9527 12.0096 8.1446 11.7616 8.37811ZM3.16547 6.21072C3.10658 6.32136 2.96346 6.36529 2.85344 6.30681L1.40314 5.53393C1.40296 5.53384 1.40278 5.53375 1.4026 5.53366C1.32996 5.49507 1.30153 5.43164 1.29106 5.39727C1.28055 5.36291 1.26869 5.29449 1.30746 5.22176L3.53899 1.02085C3.57754 0.948166 3.64083 0.91973 3.67511 0.909263C3.69155 0.904277 3.71576 0.898931 3.74447 0.898931C3.77591 0.898931 3.81275 0.90531 3.85066 0.925435L5.30267 1.69921C5.37414 1.7369 5.4024 1.79979 5.41287 1.83389C5.42351 1.86848 5.43555 1.93739 5.39665 2.01048L3.16547 6.21072ZM11.1631 10.8156L8.21675 8.97822C7.94309 8.80747 7.68748 8.68398 7.44037 8.56454C6.80082 8.25543 6.29567 8.01132 5.71541 7.07007C5.35272 6.48074 4.93207 6.11715 4.40284 5.79654L5.946 2.89153C6.08849 2.96893 6.22061 3.04139 6.3436 3.10886C7.56665 3.77995 8.02431 4.03106 9.85577 4.24997C10.1042 4.27957 10.3521 4.30396 10.5917 4.32755C12.1908 4.48482 13.4539 4.60907 14.2129 6.01854C14.2145 6.02142 14.216 6.02425 14.2176 6.02708L15.1053 7.5931C14.5606 7.42824 13.9933 7.40402 13.452 7.51013C12.7967 6.3962 12.1905 5.56438 10.3677 5.86931C9.82118 5.96104 9.48234 6.17658 9.36055 6.50999C9.28652 6.71276 9.26766 7.03625 9.59842 7.42568C9.60448 7.43282 9.61073 7.43974 9.61724 7.44647L11.2484 9.1403C11.7657 9.6764 11.9297 10.5928 11.7628 10.9069C11.7138 10.9992 11.676 11.0271 11.6666 11.0296C11.6479 11.0346 11.5364 11.0478 11.1631 10.8156ZM21.2034 22.1016H7.4994C7.21468 22.1016 6.98302 21.8695 6.98302 21.5843V16.282H9.41275C9.66086 16.282 9.86197 16.0809 9.86197 15.8328C9.86197 15.5847 9.66086 15.3836 9.41275 15.3836H6.98302V13.6195H21.7197V15.3836H13.443C13.1949 15.3836 12.9938 15.5847 12.9938 15.8328C12.9938 16.0809 13.1949 16.282 13.443 16.282H21.7197V21.5843C21.7197 21.8695 21.4881 22.1016 21.2034 22.1016Z" fill="#8C8C8C"/>
<path d="M18.6401 17.5967H10.0628C9.81472 17.5967 9.6136 17.7979 9.6136 18.046V20.3367C9.6136 20.5848 9.81472 20.7859 10.0628 20.7859H18.6401C18.8882 20.7859 19.0893 20.5848 19.0893 20.3367V18.046C19.0893 17.7979 18.8882 17.5967 18.6401 17.5967ZM18.1908 19.8875H10.512V18.4952H18.1908V19.8875Z" fill="#8C8C8C"/>
<path d="M11.4279 16.2821H11.4304C11.6785 16.2821 11.8784 16.081 11.8784 15.8329C11.8784 15.5848 11.676 15.3837 11.4279 15.3837C11.1798 15.3837 10.9787 15.5848 10.9787 15.8329C10.9787 16.081 11.1798 16.2821 11.4279 16.2821Z" fill="#8C8C8C"/>
</g>
<defs>
<clipPath id="clip0_16_13">
<rect width="23" height="23" fill="white"/>
</clipPath>
</defs>
</svg>
