<svg width="31" height="33" viewBox="0 0 31 33" fill="none" xmlns="http://www.w3.org/2000/svg">
<g clip-path="url(#clip0_1_1256)">
<path fill-rule="evenodd" clip-rule="evenodd" d="M22.2063 13.0772L19.7371 8.71554C18.3463 6.12966 15.8259 6.24641 13.2172 5.93511C10.335 5.59023 10.1144 5.23293 7.46334 3.82146L4.74347 8.94723C5.76188 9.49022 6.35313 9.96071 6.86853 10.7991C8.09697 12.7943 9.22307 12.8296 10.5397 13.652L14.6275 16.2043C14.7386 16.2732 14.8445 16.3352 14.9487 16.39C15.524 16.6889 16.0024 16.7296 16.3395 16.0946C16.6925 15.4278 16.4384 14.1172 15.78 13.2186C15.7006 13.1107 15.6158 13.0082 15.5241 12.9144L13.2614 10.5621C12.7407 9.9483 13.0937 9.56448 13.9568 9.41946C16.2689 9.03209 16.8037 10.0368 17.8309 11.8037C18.8476 11.4907 19.9842 11.5667 20.9991 12.1062C21.4721 12.3591 21.8781 12.6917 22.2063 13.0772Z" fill="#FFDCD5"/>
<path fill-rule="evenodd" clip-rule="evenodd" d="M4.74349 8.94723L7.46336 3.82147L7.50748 3.73654C7.75104 3.27847 7.57635 2.70184 7.11741 2.45955L5.10533 1.38597C4.64645 1.14187 4.07278 1.31702 3.82922 1.77684L0.733427 7.6119C0.489872 8.06997 0.664624 8.64485 1.1235 8.88889L3.13558 9.96253C3.59445 10.2066 4.16813 10.0297 4.41169 9.57166L4.74349 8.94723Z" fill="#FF9EB1"/>
<path fill-rule="evenodd" clip-rule="evenodd" d="M22.7129 17.7272C23.5354 16.176 23.2795 14.3366 22.2064 13.0772C21.8781 12.6917 21.4722 12.3591 20.9991 12.1062C19.9843 11.5667 18.8476 11.4907 17.831 11.8037C17.0349 12.0496 16.3131 12.5324 15.7801 13.2187C16.4384 14.1172 16.6926 15.4278 16.3396 16.0947C16.0025 16.7296 15.5242 16.6889 14.9488 16.3901C15.0953 17.3682 15.5877 18.2844 16.3678 18.9459H21.7352C22.1234 18.6151 22.4588 18.2065 22.7129 17.7272Z" fill="#FFDA8F"/>
<path fill-rule="evenodd" clip-rule="evenodd" d="M30.2265 22.6442V18.9459H21.7351H16.3678H8.53473V22.6442H30.2265Z" fill="white"/>
<path fill-rule="evenodd" clip-rule="evenodd" d="M30.2265 30.6336V22.6443H8.53473V30.6336C8.53473 31.3711 9.13838 31.976 9.87435 31.976H28.8869C29.6229 31.9761 30.2265 31.3712 30.2265 30.6336ZM13.4308 25.7183H25.3304V28.9003H13.4308V25.7183Z" fill="#A0C8FF"/>
<path fill-rule="evenodd" clip-rule="evenodd" d="M13.4308 25.7183H25.3305V28.9002H13.4308V25.7183Z" fill="#FFDA8F"/>
<path d="M30.2262 18.3219H23.0873C23.149 18.2234 23.2084 18.1232 23.2632 18.0198C24.1947 16.2631 23.9176 14.1795 22.7265 12.7309L20.2824 8.41378C18.9141 5.87645 16.5617 5.64476 14.2865 5.42069C13.9603 5.38855 13.6229 5.35536 13.2912 5.31573C10.9903 5.04037 10.5413 4.79364 8.87041 3.87575C8.67304 3.7673 8.45921 3.64987 8.22482 3.52276C8.25835 3.29469 8.24096 3.05982 8.17109 2.83226C8.04788 2.43091 7.77697 2.10262 7.41064 1.90912L5.39788 0.835238C5.02899 0.638994 4.60514 0.598309 4.2046 0.720986C3.80349 0.843725 3.47474 1.11497 3.27905 1.48438L0.183627 7.3188C-0.0124386 7.68764 -0.0530726 8.11171 0.0693282 8.513C0.191791 8.91453 0.462457 9.24381 0.831467 9.44006L2.84354 10.5136C3.077 10.6378 3.32791 10.6966 3.57558 10.6966C4.13673 10.6966 4.68061 10.3943 4.96237 9.86443L4.99229 9.80802C5.62741 10.2025 5.99941 10.5754 6.33826 11.1266C7.33448 12.7446 8.30839 13.2159 9.25027 13.6716C9.57783 13.8301 9.88726 13.9799 10.2102 14.1816L14.2984 16.7341C14.3285 16.7529 14.3592 16.7716 14.39 16.7902C14.5086 17.3367 14.72 17.8545 15.0132 18.3218H8.53487C8.19066 18.3218 7.91165 18.6012 7.91165 18.9458V30.6333C7.91165 31.7176 8.79213 32.5998 9.87449 32.5998H28.8867C29.969 32.5998 30.8495 31.7176 30.8495 30.6333V18.9459C30.8495 18.6012 30.5705 18.3219 30.2262 18.3219ZM22.1624 17.4346C21.9866 17.7661 21.7618 18.0634 21.494 18.3219H16.6082C16.2775 18.0038 16.0132 17.6253 15.8289 17.208C15.8791 17.2006 15.9293 17.1909 15.9796 17.1773C16.3597 17.0749 16.666 16.8092 16.8899 16.3875C17.3102 15.5957 17.1415 14.3105 16.5594 13.2778C17.6418 12.1894 19.3197 11.9189 20.7058 12.6568C22.4205 13.5724 23.0739 15.7156 22.1624 17.4346ZM15.7877 12.2891L13.7252 10.1449C13.7193 10.1377 13.7138 10.1309 13.7087 10.1244C13.7812 10.0963 13.8929 10.0631 14.0597 10.035C15.6949 9.76123 16.1652 10.2219 16.9266 11.4934C16.5158 11.6982 16.1317 11.9648 15.7877 12.2891ZM3.86182 9.27851C3.78012 9.43219 3.58156 9.49322 3.42893 9.41198L1.41686 8.3384C1.41661 8.33828 1.41636 8.33815 1.41611 8.33803C1.31534 8.28443 1.27589 8.19632 1.26137 8.14859C1.24678 8.10085 1.23033 8.00582 1.28411 7.90479L4.38003 2.06949C4.4335 1.96853 4.52132 1.92903 4.56887 1.91449C4.59168 1.90756 4.62527 1.90014 4.66509 1.90014C4.70872 1.90014 4.75982 1.909 4.81242 1.93695L6.82687 3.01178C6.92602 3.06413 6.96522 3.15149 6.97974 3.19885C6.99451 3.2469 7.01121 3.34262 6.95724 3.44414L3.86182 9.27851ZM14.9573 15.6749L10.8697 13.1227C10.49 12.8855 10.1354 12.714 9.79259 12.5481C8.90531 12.1187 8.2045 11.7796 7.39948 10.4722C6.89629 9.65359 6.31271 9.14853 5.57849 8.70319L7.71938 4.66797C7.91707 4.77548 8.10036 4.87613 8.271 4.96986C9.96778 5.90204 10.6027 6.25085 13.1436 6.55492C13.4883 6.59604 13.8321 6.62992 14.1646 6.66268C16.383 6.88114 18.1354 7.05373 19.1884 9.01156C19.1906 9.01556 19.1927 9.01949 19.195 9.02342L20.4265 11.1987C19.6709 10.9697 18.8839 10.9361 18.1328 11.0835C17.2237 9.53615 16.3827 8.38071 13.8538 8.80427C13.0956 8.93169 12.6255 9.23108 12.4566 9.69421C12.3539 9.97588 12.3277 10.4252 12.7866 10.9661C12.795 10.9761 12.8036 10.9857 12.8127 10.995L15.0757 13.3479C15.7934 14.0925 16.0209 15.3655 15.7893 15.8018C15.7213 15.9299 15.6688 15.9687 15.6559 15.9722C15.6299 15.9792 15.4752 15.9975 14.9573 15.6749ZM28.8866 31.3518H9.87449C9.47949 31.3518 9.15809 31.0295 9.15809 30.6333V23.2681H12.529C12.8732 23.2681 13.1522 22.9887 13.1522 22.6441C13.1522 22.2995 12.8732 22.0201 12.529 22.0201H9.15809V19.5698H29.603V22.0201H18.1203C17.7761 22.0201 17.4971 22.2995 17.4971 22.6441C17.4971 22.9887 17.7761 23.2681 18.1203 23.2681H29.603V30.6333C29.603 31.0295 29.2817 31.3518 28.8866 31.3518Z" fill="black"/>
<path d="M25.3305 25.0943H13.4308C13.0866 25.0943 12.8076 25.3737 12.8076 25.7183V28.9003C12.8076 29.2449 13.0866 29.5243 13.4308 29.5243H25.3305C25.6747 29.5243 25.9537 29.2449 25.9537 28.9003V25.7183C25.9537 25.3737 25.6747 25.0943 25.3305 25.0943ZM24.7072 28.2763H14.0541V26.3423H24.7072V28.2763Z" fill="black"/>
<path d="M15.3246 23.2682H15.3282C15.6724 23.2682 15.9496 22.9889 15.9496 22.6442C15.9496 22.2996 15.6689 22.0202 15.3247 22.0202C14.9805 22.0202 14.7014 22.2996 14.7014 22.6442C14.7014 22.9889 14.9804 23.2682 15.3246 23.2682Z" fill="black"/>
</g>
<defs>
<clipPath id="clip0_1_1256">
<rect width="30.8495" height="31.9483" fill="white" transform="translate(0 0.651474)"/>
</clipPath>
</defs>
</svg>
