<svg width="33" height="35" viewBox="0 0 33 35" fill="none" xmlns="http://www.w3.org/2000/svg">
<path d="M30.1803 34.0343H2.15622C1.24017 34.0343 0.497543 33.2908 0.497543 32.3736V5.93157C0.497543 5.01438 1.24017 4.27084 2.15622 4.27084H30.1803C31.0963 4.27084 31.8389 5.01438 31.8389 5.93157V32.3736C31.839 33.2908 31.0964 34.0343 30.1803 34.0343Z" fill="#F2FDFF"/>
<path d="M30.8438 4.27084H28.8534C29.7694 4.27084 30.5121 5.01438 30.5121 5.93157V32.3736C30.5121 33.2908 29.7694 34.0343 28.8534 34.0343H30.8438C31.7598 34.0343 32.5025 33.2908 32.5025 32.3736V5.93157C32.5025 5.01438 31.7598 4.27084 30.8438 4.27084Z" fill="#D3ECF5"/>
<path d="M30.1803 4.27084H29.2612L27.6871 4.93513L26.1129 4.27084H19.4011L17.8269 4.93513L16.2528 4.27084H9.54099L7.96684 4.93513L6.39268 4.27084H2.15622C1.24017 4.27084 0.497543 5.01438 0.497543 5.93157V11.432H31.8389V5.93157C31.839 5.01438 31.0964 4.27084 30.1803 4.27084Z" fill="#ED6479"/>
<path d="M30.8438 4.27084H28.8534C29.7694 4.27084 30.5121 5.01438 30.5121 5.93157V11.432H32.5025V5.93157C32.5025 5.01438 31.7598 4.27084 30.8438 4.27084Z" fill="#D65461"/>
<path d="M27.6871 7.52254C28.5565 7.52254 29.2612 6.81693 29.2612 5.94645V4.27084H26.1129V5.94645C26.1129 6.81693 26.8176 7.52254 27.6871 7.52254Z" fill="#FE646F"/>
<path d="M17.8269 7.52254C18.6964 7.52254 19.4011 6.81693 19.4011 5.94645V4.27084H16.2528V5.94645C16.2528 6.81693 16.9576 7.52254 17.8269 7.52254Z" fill="#D65461"/>
<path d="M7.96684 7.52254C8.83625 7.52254 9.54099 6.81693 9.54099 5.94645V4.27084H6.39268V5.94645C6.39268 6.81693 7.09749 7.52254 7.96684 7.52254Z" fill="#D65461"/>
<path d="M16.5 7.52254C15.6306 7.52254 14.9258 6.81693 14.9258 5.94645V2.59524C14.9258 1.72476 15.6306 1.01915 16.5 1.01915C17.3694 1.01915 18.0078 1.72476 18.0078 2.59524V5.94651C18.0078 6.81693 17.3694 7.52254 16.5 7.52254Z" fill="#9DC6FB"/>
<path d="M6.63989 7.52254C5.77047 7.52254 5.06573 6.81693 5.06573 5.94645V2.59524C5.06573 1.72476 5.77054 1.01915 6.63989 1.01915C7.5093 1.01915 8.14769 1.72476 8.14769 2.59524V5.94651C8.14769 6.81693 7.5093 7.52254 6.63989 7.52254Z" fill="#9DC6FB"/>
<path d="M26.3601 7.52254C25.4907 7.52254 24.786 6.81693 24.786 5.94645V2.59524C24.786 1.72483 25.4907 1.01915 26.3601 1.01915C27.2295 1.01915 27.8679 1.72476 27.8679 2.59524V5.94651C27.8679 6.81693 27.2295 7.52254 26.3601 7.52254Z" fill="#9DC6FB"/>
<path d="M26.3601 1.01915C26.1613 1.01915 25.9712 1.05642 25.7962 1.12378C26.3868 1.3509 26.8064 1.92385 26.8064 2.59524V5.94651C26.8064 6.61791 26.3869 7.19086 25.7962 7.41798C25.9712 7.48534 26.1613 7.5226 26.3601 7.5226C27.2295 7.5226 27.9343 6.817 27.9343 5.94651V2.59524C27.9343 1.72476 27.2295 1.01915 26.3601 1.01915Z" fill="#80B4FB"/>
<path d="M16.5 1.01915C16.3012 1.01915 16.1112 1.05642 15.9361 1.12378C16.5268 1.3509 16.9463 1.92385 16.9463 2.59524V5.94651C16.9463 6.61791 16.5268 7.19086 15.9361 7.41798C16.1112 7.48534 16.3012 7.5226 16.5 7.5226C17.3694 7.5226 18.0742 6.817 18.0742 5.94651V2.59524C18.0742 1.72476 17.3694 1.01915 16.5 1.01915Z" fill="#80B4FB"/>
<path d="M6.63995 1.01915C6.44111 1.01915 6.25109 1.05642 6.076 1.12378C6.66669 1.3509 7.08621 1.92385 7.08621 2.59524V5.94651C7.08621 6.61791 6.66669 7.19086 6.076 7.41798C6.25109 7.48534 6.44111 7.5226 6.63995 7.5226C7.5093 7.5226 8.21411 6.817 8.21411 5.94651V2.59524C8.21404 1.72476 7.5093 1.01915 6.63995 1.01915Z" fill="#80B4FB"/>
<path d="M28.9388 21.255H23.5581C23.3651 21.255 23.2086 21.0983 23.2086 20.905V15.5177C23.2086 15.3244 23.3651 15.1678 23.5581 15.1678H28.9388C29.1319 15.1678 29.2884 15.3245 29.2884 15.5177V20.905C29.2884 21.0983 29.1319 21.255 28.9388 21.255Z" fill="#ED6479"/>
<path d="M19.1903 30.3854H13.8096C13.6166 30.3854 13.4601 30.2287 13.4601 30.0355V24.6482C13.4601 24.4548 13.6166 24.2982 13.8096 24.2982H19.1903C19.3834 24.2982 19.5398 24.4549 19.5398 24.6482V30.0355C19.5399 30.2288 19.3834 30.3854 19.1903 30.3854Z" fill="#ED6479"/>
<path d="M9.44186 30.3854H4.06117C3.8681 30.3854 3.71165 30.2287 3.71165 30.0355V24.6482C3.71165 24.4548 3.86817 24.2982 4.06117 24.2982H9.44186C9.63493 24.2982 9.79137 24.4549 9.79137 24.6482V30.0355C9.79137 30.2288 9.63493 30.3854 9.44186 30.3854Z" fill="#ED6479"/>
<path d="M28.9388 30.3854H23.5581C23.3651 30.3854 23.2086 30.2287 23.2086 30.0355V24.6482C23.2086 24.4548 23.3651 24.2982 23.5581 24.2982H28.9388C29.1319 24.2982 29.2884 24.4549 29.2884 24.6482V30.0355C29.2884 30.2288 29.1319 30.3854 28.9388 30.3854Z" fill="#ED6479"/>
<path d="M19.1903 21.255H13.8096C13.6166 21.255 13.4601 21.0983 13.4601 20.905V15.5177C13.4601 15.3244 13.6166 15.1678 13.8096 15.1678H19.1903C19.3834 15.1678 19.5398 15.3245 19.5398 15.5177V20.905C19.5399 21.0983 19.3834 21.255 19.1903 21.255Z" fill="#F9D065"/>
<path d="M9.44186 21.255H4.06117C3.8681 21.255 3.71165 21.0983 3.71165 20.905V15.5177C3.71165 15.3244 3.86817 15.1678 4.06117 15.1678H9.44186C9.63493 15.1678 9.79137 15.3245 9.79137 15.5177V20.905C9.79137 21.0983 9.63493 21.255 9.44186 21.255Z" fill="#F9D065"/>
<g clip-path="url(#clip0_1_1163)">
<path d="M25.0285 33.5361H2.15628C1.5161 33.5361 0.995207 33.0145 0.995207 32.3736V18.6124C0.995207 18.3372 0.77248 18.1141 0.497603 18.1141C0.222727 18.1141 0 18.3372 0 18.6124V32.3736C0 33.564 0.967275 34.5325 2.15628 34.5325H25.0285C25.3034 34.5325 25.5261 34.3095 25.5261 34.0343C25.5261 33.7591 25.3033 33.5361 25.0285 33.5361Z" fill="black"/>
<path d="M23.5581 21.7532H28.9388C29.406 21.7532 29.786 21.3728 29.786 20.905V15.5177C29.786 15.05 29.406 14.6695 28.9388 14.6695H23.5581C23.091 14.6695 22.711 15.05 22.711 15.5177V20.905C22.711 21.3728 23.091 21.7532 23.5581 21.7532ZM23.7062 15.6659H28.7907V20.7568H23.7062V15.6659Z" fill="black"/>
<path d="M12.9626 30.0355C12.9626 30.5032 13.3426 30.8837 13.8097 30.8837H19.1904C19.6575 30.8837 20.0376 30.5033 20.0376 30.0355V24.6482C20.0376 24.1804 19.6575 23.7999 19.1904 23.7999H13.8097C13.3426 23.7999 12.9626 24.1804 12.9626 24.6482V30.0355ZM13.9578 24.7964H19.0423V29.8872H13.9578V24.7964Z" fill="black"/>
<path d="M3.21405 30.0355C3.21405 30.5032 3.59409 30.8837 4.06124 30.8837H9.44192C9.90907 30.8837 10.2891 30.5033 10.2891 30.0355V24.6482C10.2891 24.1804 9.90907 23.7999 9.44192 23.7999H4.06124C3.59409 23.7999 3.21405 24.1804 3.21405 24.6482V30.0355ZM4.20926 24.7964H9.29384V29.8872H4.20926V24.7964Z" fill="black"/>
<path d="M22.711 30.0355C22.711 30.5032 23.0909 30.8837 23.5581 30.8837H28.9388C29.4059 30.8837 29.7859 30.5033 29.7859 30.0355V24.6482C29.7859 24.1804 29.4059 23.7999 28.9388 23.7999H23.5581C23.0909 23.7999 22.711 24.1804 22.711 24.6482V30.0355ZM23.7062 24.7964H28.7907V29.8872H23.7062V24.7964Z" fill="black"/>
<path d="M19.1904 14.6695H13.8096C13.3425 14.6695 12.9625 15.05 12.9625 15.5177V20.905C12.9625 21.3728 13.3425 21.7532 13.8096 21.7532H19.1904C19.6574 21.7532 20.0375 21.3728 20.0375 20.905V17.8919L21.3246 16.5944C21.5182 16.3992 21.5171 16.0837 21.3222 15.8898C21.1272 15.6959 20.8121 15.6971 20.6184 15.8922L20.0374 16.4779V15.5178C20.0374 15.05 19.6574 14.6695 19.1904 14.6695ZM19.0422 20.7568H13.9577V15.6659H19.0422V17.4811L17.6069 18.928L16.5169 17.8559C16.321 17.6631 16.006 17.6659 15.8132 17.8622C15.6207 18.0585 15.6235 18.3739 15.8195 18.5668L17.2625 19.9861C17.3594 20.0814 17.4853 20.1289 17.6112 20.1289C17.7392 20.1289 17.867 20.0798 17.9643 19.9817L19.0422 18.8951V20.7568Z" fill="black"/>
<path d="M9.44186 14.6695H4.06124C3.59409 14.6695 3.21405 15.05 3.21405 15.5177V20.905C3.21405 21.3728 3.59409 21.7532 4.06124 21.7532H9.44192C9.90907 21.7532 10.2891 21.3728 10.2891 20.905V17.4404L11.1284 16.5943C11.3221 16.3992 11.3209 16.0836 11.126 15.8898C10.931 15.6959 10.6159 15.697 10.4223 15.8922L10.289 16.0264V15.5177C10.289 15.05 9.90901 14.6695 9.44186 14.6695ZM9.29384 20.7568H4.20926V15.6659H9.29384V17.0296L7.41071 18.928L6.32075 17.8559C6.12483 17.6631 5.80968 17.6658 5.61714 17.8621C5.42454 18.0584 5.42732 18.3738 5.62338 18.5666L7.0663 19.9859C7.16316 20.0812 7.28909 20.1287 7.41502 20.1287C7.54294 20.1287 7.67079 20.0796 7.76805 19.9816L9.29384 18.4435V20.7568Z" fill="black"/>
<path d="M30.8437 3.77263H28.4319V2.59524C28.4319 1.45147 27.5025 0.520935 26.36 0.520935C25.2177 0.520935 24.2883 1.45147 24.2883 2.59524V3.77263H18.5717V2.59524C18.5718 1.45147 17.6424 0.520935 16.5 0.520935C15.3576 0.520935 14.4282 1.45147 14.4282 2.59524V3.77263H8.71164V2.59524C8.71164 1.45147 7.78225 0.520935 6.63995 0.520935C5.49752 0.520935 4.56813 1.45147 4.56813 2.59524V3.77263H2.15628C0.967275 3.77263 0 4.74109 0 5.93156V16.441C0 16.7162 0.222727 16.9392 0.497603 16.9392C0.77248 16.9392 0.995207 16.7162 0.995207 16.441V11.9302H20.6373C20.9121 11.9302 21.1349 11.7072 21.1349 11.432C21.1349 11.1568 20.9121 10.9338 20.6373 10.9338H0.995207V5.93156C0.995207 5.29059 1.5161 4.76906 2.15628 4.76906H4.56813V5.94651C4.56813 7.09028 5.49752 8.02082 6.63995 8.02082C7.78232 8.02082 8.71171 7.09028 8.71171 5.94651V4.76906H14.4283V5.94651C14.4283 7.09028 15.3577 8.02082 16.5001 8.02082C17.6424 8.02082 18.5718 7.09028 18.5718 5.94651V4.76906H24.2884V5.94651C24.2884 7.09028 25.2178 8.02082 26.3602 8.02082C27.5026 8.02082 28.432 7.09028 28.432 5.94651V4.76906H30.8439C31.4841 4.76906 32.005 5.29059 32.005 5.93156V10.9338H22.8059C22.531 10.9338 22.3083 11.1568 22.3083 11.432C22.3083 11.7072 22.531 11.9302 22.8059 11.9302H32.0048V32.3736C32.0048 33.0145 31.4839 33.5361 30.8437 33.5361H27.1972C26.9223 33.5361 26.6996 33.7591 26.6996 34.0343C26.6996 34.3095 26.9223 34.5325 27.1972 34.5325H30.8437C32.0327 34.5325 33 33.564 33 32.3736V5.93156C33 4.74109 32.0327 3.77263 30.8437 3.77263ZM7.71644 5.94651C7.71644 6.54085 7.23356 7.02438 6.63989 7.02438C6.04628 7.02438 5.56327 6.54092 5.56327 5.94651V2.59524C5.56334 2.00084 6.04628 1.51737 6.63995 1.51737C7.23356 1.51737 7.7165 2.00084 7.7165 2.59524L7.71644 5.94651ZM17.5765 5.94651C17.5765 6.54085 17.0937 7.02438 16.5 7.02438C15.9063 7.02438 15.4235 6.54092 15.4235 5.94651V2.59524C15.4235 2.00084 15.9064 1.51737 16.5 1.51737C17.0936 1.51737 17.5765 2.00084 17.5765 2.59524V5.94651ZM27.4367 5.94651C27.4367 6.54085 26.9537 7.02438 26.36 7.02438C25.7664 7.02438 25.2835 6.54092 25.2835 5.94651V2.59524C25.2835 2.0009 25.7664 1.51737 26.36 1.51737C26.9537 1.51737 27.4367 2.00084 27.4367 2.59524V5.94651Z" fill="black"/>
</g>
<defs>
<clipPath id="clip0_1_1163">
<rect width="33" height="34.0116" fill="white" transform="translate(0 0.520935)"/>
</clipPath>
</defs>
</svg>
