<svg width="33" height="32" viewBox="0 0 33 32" fill="none" xmlns="http://www.w3.org/2000/svg">
<path d="M29.8502 23.5905L5.80195 28.1839C5.00074 28.334 4.22969 27.8053 4.07977 27.0031L0.508959 7.89277C0.359042 7.09057 0.887104 6.31858 1.68832 6.16847L9.89657 4.63099C10.3606 4.54407 10.8391 4.66887 11.2019 4.9714L12.7289 6.24494C13.0916 6.54747 13.5702 6.67228 14.0342 6.58535L26.2292 4.21225C27.0305 4.06214 27.8015 4.59086 27.9514 5.39305L31.0294 21.8662C31.1794 22.6684 30.6514 23.4404 29.8502 23.5905Z" fill="#FFD15B"/>
<path d="M31.0296 21.866L27.9515 5.3928C27.8016 4.59053 27.0305 4.06189 26.2293 4.21199L22.3409 4.96869C23.0604 4.94075 23.7107 5.44397 23.8471 6.1737L26.6936 21.8661C26.8435 22.6683 26.3154 23.4403 25.5142 23.5904L4.35983 27.6309C4.68764 28.0577 5.2371 28.2895 5.8019 28.1837L29.8501 23.5903C30.6514 23.4403 31.1794 22.6683 31.0296 21.866Z" fill="#FFC344"/>
<path d="M7.44905 5.62899L8.62455 7.0256C8.98729 7.32813 9.46585 7.45294 9.92985 7.36601L13.8149 6.60995C13.4227 6.62782 13.0347 6.49973 12.729 6.24476L11.202 4.97121C10.8392 4.66868 10.3607 4.54388 9.89666 4.6308L6.5159 5.26406C6.85492 5.28142 7.18312 5.40726 7.44905 5.62899Z" fill="#FFC344"/>
<path d="M4.68665 30.9452C3.41326 30.9452 2.38098 29.9117 2.38098 28.6367V13.5392C2.38098 12.2642 3.41326 11.2307 4.68659 11.2307H26.9719C28.2453 11.2307 29.2776 12.2643 29.2776 13.5392V28.6368C29.2776 29.9117 28.2453 30.9452 26.972 30.9452H4.68665Z" fill="#EAF9FA"/>
<path d="M26.9719 11.2307H21.5543C22.8277 11.2307 23.86 12.2643 23.86 13.5392V28.6368C23.86 29.9117 22.8277 30.9452 21.5544 30.9452H26.972C28.2453 30.9452 29.2776 29.9117 29.2776 28.6368V13.5392C29.2776 12.2643 28.2453 11.2307 26.9719 11.2307Z" fill="#D4F2F6"/>
<path d="M27.2649 13.886V28.2899C27.2649 28.6162 27.0008 28.8806 26.6749 28.8806H4.98374C4.65787 28.8806 4.39374 28.6162 4.39374 28.2899V13.886C4.39374 13.5597 4.65787 13.2953 4.98374 13.2953H26.6749C27.0008 13.2953 27.2649 13.5597 27.2649 13.886Z" fill="#A6E7F0"/>
<path d="M26.6749 13.2953H23.0333C23.4898 13.2953 23.86 13.6659 23.86 14.123V28.0529C23.86 28.5101 23.4898 28.8807 23.0333 28.8807H26.6749C27.0008 28.8807 27.2649 28.6162 27.2649 28.29V13.8861C27.2649 13.5598 27.0007 13.2953 26.6749 13.2953Z" fill="#81DBEA"/>
<path d="M27.2649 21.6985V28.2899C27.2649 28.6164 27.0006 28.881 26.6752 28.881H4.98357C4.65744 28.881 4.39383 28.6164 4.39383 28.2899V26.8585L15.1381 21.0765C15.5493 20.8545 16.0572 20.9254 16.393 21.252L18.9473 23.7345L23.818 19.9749C23.8315 19.9646 23.8457 19.9542 23.8599 19.9446C24.2485 19.6722 24.7732 19.6884 25.1463 19.9891L27.2649 21.6985Z" fill="#2ED1E2"/>
<path d="M27.2649 21.6985V28.2899C27.2649 28.6164 27.0007 28.881 26.6752 28.881H23.0329C23.4899 28.881 23.8599 28.5099 23.8599 28.0531V19.9446C24.2485 19.6722 24.7732 19.6884 25.1463 19.9891L27.2649 21.6985Z" fill="#05BDDB"/>
<path d="M12.2643 22.6465L11.1213 20.9269H11.4384C11.7337 20.9269 11.91 20.5974 11.7464 20.3512L10.1219 17.9073C9.96716 17.6745 9.62543 17.6745 9.47067 17.9073L7.8462 20.3512C7.68255 20.5974 7.85883 20.9269 8.15416 20.9269H8.47126L7.32825 22.6465C7.16461 22.8927 7.34089 23.2221 7.63621 23.2221H8.37091L7.32825 24.7908C7.16461 25.0369 7.34089 25.3664 7.63621 25.3664H11.9562C12.2515 25.3664 12.4278 25.0369 12.2641 24.7908L11.2215 23.2221H11.9562C12.2517 23.2221 12.4279 22.8927 12.2643 22.6465Z" fill="#BBEC6C"/>
<path d="M11.2216 23.2221H11.9563C12.2516 23.2221 12.4279 22.8927 12.2643 22.6465L11.1213 20.9269H11.4384C11.7337 20.9269 11.91 20.5975 11.7464 20.3513L10.1219 17.9074C9.96715 17.6746 9.62548 17.6746 9.47067 17.9074L8.87512 18.8034C9.03445 18.7497 9.22252 18.8006 9.32642 18.9569L10.2457 20.3514C10.4093 20.5976 10.233 20.927 9.93769 20.927H9.62059L10.7636 22.6465C10.9272 22.8927 10.751 23.2222 10.4556 23.2222H9.72094L10.7636 24.7908C10.9272 25.037 10.751 25.3664 10.4556 25.3664H11.9563C12.2516 25.3664 12.4279 25.037 12.2643 24.7908L11.2216 23.2221Z" fill="#A2E62E"/>
<path d="M19.1876 18.7823C19.9153 18.7823 20.5053 18.1916 20.5053 17.4629C20.5053 16.7342 19.9153 16.1435 19.1876 16.1435C18.4598 16.1435 17.8698 16.7342 17.8698 17.4629C17.8698 18.1916 18.4598 18.7823 19.1876 18.7823Z" fill="#FFD15B"/>
<path d="M19.1876 16.1435C18.9596 16.1435 18.7451 16.2015 18.5581 16.3035C18.9682 16.5272 19.2464 16.9625 19.2464 17.4628C19.2464 17.9632 18.9681 18.3986 18.5581 18.6222C18.7451 18.7242 18.9596 18.7822 19.1876 18.7822C19.9154 18.7822 20.5053 18.1915 20.5053 17.4628C20.5053 16.7342 19.9154 16.1435 19.1876 16.1435Z" fill="#FFC344"/>
<path d="M27.7482 13.8861C27.7482 13.2934 27.2667 12.8113 26.6749 12.8113H4.98364C4.39177 12.8113 3.91031 13.2935 3.91031 13.8861V28.2899C3.91031 28.5492 4.00248 28.7873 4.15575 28.9732C4.35271 29.2123 4.65068 29.3649 4.98358 29.3649H9.79633C10.0634 29.3649 10.2797 29.1483 10.2797 28.881C10.2797 28.8809 10.2797 28.8809 10.2797 28.8808C10.2797 28.8808 10.2797 28.8808 10.2797 28.8807V25.8504H11.9563C12.2714 25.8504 12.5596 25.6776 12.7085 25.3996C12.8574 25.1215 12.8414 24.7854 12.6667 24.5226L12.1143 23.6915C12.3655 23.6444 12.5851 23.4861 12.7086 23.2552C12.7719 23.1369 12.8051 23.0082 12.8092 22.8791L15.3676 21.5025C15.5942 21.3803 15.8711 21.419 16.0564 21.5993L20.4437 25.9241C20.5382 26.0191 20.6622 26.0665 20.7861 26.0665C20.9095 26.0665 21.033 26.0195 21.1273 25.9254C21.3164 25.7367 21.3169 25.4303 21.1286 25.241L19.6773 23.7823L24.1133 20.3581C24.3297 20.1909 24.6299 20.1942 24.843 20.366L26.7815 21.9301V28.29C26.7815 28.3488 26.7337 28.3967 26.6749 28.3967C26.6728 28.3967 26.6708 28.397 26.6687 28.397H12.0601C11.7931 28.397 11.5767 28.6137 11.5767 28.881C11.5767 29.1484 11.7931 29.365 12.0601 29.365H26.6752C27.2669 29.365 27.7483 28.8827 27.7483 28.2899L27.7482 13.8861ZM9.31294 28.397H4.98989C4.98783 28.397 4.98577 28.3966 4.98364 28.3966C4.95129 28.3966 4.92267 28.3819 4.90308 28.359C4.88722 28.3403 4.87723 28.3163 4.87723 28.2898V27.1479L7.28809 25.8504H9.31294V28.397ZM10.8192 23.4903L11.7445 24.8823H7.84812L8.7734 23.4903C8.87208 23.3417 8.88123 23.1508 8.79706 22.9936C8.71288 22.8363 8.54911 22.7381 8.37096 22.7381H7.84805L8.87369 21.1951C8.97243 21.0466 8.98158 20.8557 8.89741 20.6985C8.81323 20.5411 8.64946 20.443 8.47131 20.443H8.366L9.79627 18.2911L11.2265 20.443H11.1212C10.9429 20.443 10.7792 20.5411 10.6951 20.6985C10.6109 20.8557 10.62 21.0466 10.7188 21.1951L11.7444 22.7381H11.2215C11.0433 22.7381 10.8795 22.8363 10.7954 22.9936C10.7113 23.1508 10.7205 23.3417 10.8192 23.4903ZM26.7815 20.6868L25.4495 19.612C24.8867 19.1583 24.0943 19.1499 23.5228 19.5915L18.9836 23.0953L16.7298 20.9048C16.2404 20.4289 15.5085 20.3266 14.9092 20.6501L12.4113 21.9941L11.9232 21.2598C12.0328 21.184 12.1252 21.0821 12.1905 20.96C12.3394 20.6818 12.3233 20.3458 12.1487 20.0832L10.5243 17.6393C10.3618 17.3947 10.0896 17.2488 9.7962 17.2488C9.50288 17.2488 9.23069 17.3947 9.06814 17.6393L7.4438 20.0831C7.26914 20.3458 7.25309 20.6818 7.40198 20.96C7.46733 21.0822 7.55963 21.1841 7.66926 21.2598L6.9258 22.3784C6.7512 22.641 6.73521 22.977 6.8841 23.2552C7.00759 23.486 7.22711 23.6442 7.47842 23.6914L6.92599 24.5225C6.82564 24.6735 6.77794 24.8485 6.78349 25.0229L4.8771 26.049V13.8861C4.8771 13.8272 4.92486 13.7793 4.98364 13.7793H26.6749C26.7337 13.7793 26.7815 13.8272 26.7815 13.8861V20.6868Z" fill="black"/>
<path d="M19.1876 15.6595C18.1944 15.6595 17.3864 16.4685 17.3864 17.4629C17.3864 18.4572 18.1944 19.2662 19.1876 19.2662C20.1807 19.2662 20.9887 18.4572 20.9887 17.4629C20.9887 16.4685 20.1807 15.6595 19.1876 15.6595ZM19.1876 18.2983C18.7275 18.2983 18.3532 17.9235 18.3532 17.463C18.3532 17.0024 18.7276 16.6276 19.1876 16.6276C19.6476 16.6276 20.0219 17.0024 20.0219 17.463C20.0219 17.9235 19.6477 18.2983 19.1876 18.2983Z" fill="black"/>
<path d="M28.4266 5.30374C28.3306 4.78858 28.0397 4.34182 27.6077 4.04581C27.1756 3.74974 26.6545 3.64004 26.137 3.73716L13.945 6.10936C13.622 6.17002 13.2914 6.0838 13.0384 5.87324L11.5116 4.59931C11.0366 4.20314 10.4158 4.04136 9.80806 4.15532L1.59903 5.69248C0.537624 5.89176 -0.164718 6.91846 0.033474 7.98144L1.89758 17.9566V28.6367C1.89758 30.1764 3.14874 31.4291 4.68658 31.4291H26.9719C28.5098 31.4291 29.7609 30.1764 29.7609 28.6367V24.1003C30.8647 23.9865 31.7208 22.9078 31.5047 21.7773L28.4266 5.30374ZM28.7942 28.6368C28.7942 29.6428 27.9767 30.4612 26.972 30.4612H4.68664C3.68182 30.4612 2.86443 29.6428 2.86443 28.6368V17.9208C2.86443 17.9205 2.86443 17.9202 2.86443 17.9199V13.5391C2.86443 12.5331 3.68189 11.7147 4.68664 11.7147H21.2663C21.5333 11.7147 21.7497 11.4981 21.7497 11.2307C21.7497 10.9633 21.5333 10.7467 21.2663 10.7467H4.68664C3.33745 10.7467 2.20914 11.711 1.95256 12.9873L0.983895 7.80372C0.883413 7.26513 1.23939 6.74487 1.77705 6.64394L9.98595 5.10679C10.3092 5.046 10.6399 5.13221 10.8926 5.34297L12.4199 6.61723C12.8955 7.01313 13.5166 7.17485 14.1263 7.06018L26.3182 4.68791C26.5791 4.63919 26.8429 4.69462 27.0616 4.84459C27.2803 4.99457 27.4276 5.22062 27.4763 5.48153L28.5522 11.2399C28.1027 10.9292 27.5583 10.7467 26.9719 10.7467H23.5344C23.2674 10.7467 23.0511 10.9633 23.0511 11.2307C23.0511 11.4981 23.2674 11.7147 23.5344 11.7147H26.9719C27.9767 11.7147 28.7941 12.5332 28.7941 13.5392L28.7942 28.6368ZM29.761 23.1149V17.7088L30.5545 21.955C30.6548 22.4932 30.2994 23.0132 29.761 23.1149Z" fill="black"/>
<path d="M9.95523 6.59729L5.50739 7.4304C5.24501 7.47958 5.07201 7.73242 5.12113 7.99513C5.16463 8.22777 5.3676 8.3902 5.59569 8.3902C5.62521 8.3902 5.65512 8.38749 5.68516 8.38187L10.133 7.54876C10.3954 7.49958 10.5684 7.24675 10.5193 6.98403C10.4701 6.72126 10.2172 6.54831 9.95523 6.59729Z" fill="black"/>
<path d="M32.5166 6.58903H32.1083V6.18015C32.1083 5.91279 31.8919 5.69616 31.6249 5.69616C31.3578 5.69616 31.1415 5.91279 31.1415 6.18015V6.58903H30.7331C30.4661 6.58903 30.2497 6.80567 30.2497 7.07302C30.2497 7.34038 30.4661 7.55702 30.7331 7.55702H31.1415V7.96589C31.1415 8.23325 31.3578 8.44989 31.6249 8.44989C31.8919 8.44989 32.1083 8.23325 32.1083 7.96589V7.55702H32.5166C32.7837 7.55702 33 7.34038 33 7.07302C33 6.80567 32.7836 6.58903 32.5166 6.58903Z" fill="black"/>
<path d="M28.8761 1.62192C29.1431 1.62192 29.3595 1.40523 29.3595 1.13793C29.3595 0.870629 29.1431 0.653938 28.8761 0.653938C28.6091 0.653938 28.3927 0.870629 28.3927 1.13793C28.3927 1.40523 28.6091 1.62192 28.8761 1.62192Z" fill="black"/>
<path d="M3.28232 8.93974C3.54929 8.93974 3.76572 8.72305 3.76572 8.45575C3.76572 8.18845 3.54929 7.97176 3.28232 7.97176C3.01534 7.97176 2.79892 8.18845 2.79892 8.45575C2.79892 8.72305 3.01534 8.93974 3.28232 8.93974Z" fill="black"/>
</svg>
