<svg width="22" height="22" viewBox="0 0 22 22" fill="none" xmlns="http://www.w3.org/2000/svg">
<g clip-path="url(#clip0_16_6)">
<path d="M3.22148 3.22386C1.14404 5.30129 0 8.06321 0 11.0012C0 17.0801 4.91925 21.9998 10.9987 21.9998C13.9366 21.9998 16.6986 20.8558 18.776 18.7784C23.0745 14.48 23.0749 7.52274 18.776 3.22386C14.4774 -1.07469 7.52037 -1.07503 3.22148 3.22386ZM20.9274 8.06203C17.3812 9.12668 14.4343 5.23667 16.3209 2.12278C18.5167 3.4439 20.1842 5.55608 20.9274 8.06203ZM20.0605 16.0055C19.6649 15.4745 19.0988 15.092 18.4442 14.928C18.2716 14.8848 18.0965 14.9897 18.0532 15.1623C18.0099 15.3348 18.115 15.5099 18.2876 15.5532C18.8853 15.7029 19.389 16.0864 19.6934 16.6173C18.8962 17.8475 17.8451 18.8985 16.6151 19.6958C14.9467 18.7342 15.1789 16.2669 16.9716 15.6192C17.139 15.5586 17.2256 15.3739 17.1652 15.2066C17.1047 15.0391 16.9199 14.9526 16.7526 15.0129C14.5969 15.7917 14.1496 18.6711 16.0038 20.0626C14.5194 20.8857 12.8129 21.3553 10.9987 21.3553C5.28935 21.3555 0.644531 16.7105 0.644531 11.0012C0.644531 3.2586 8.88915 -1.76303 15.7583 1.80773C13.5962 5.41341 16.9936 9.89458 21.0916 8.68458C21.6487 11.1131 21.3232 13.728 20.0605 16.0055Z" fill="#8C8C8C"/>
<path d="M17.4069 9.96777C16.5188 9.96777 15.7962 10.6904 15.7962 11.5786C15.7962 12.4668 16.5188 13.1894 17.4069 13.1894C18.2951 13.1894 19.0177 12.4668 19.0177 11.5786C19.0177 10.6904 18.2951 9.96777 17.4069 9.96777ZM17.4069 12.5449C16.8741 12.5449 16.4406 12.1115 16.4406 11.5786C16.4406 11.0459 16.8741 10.6123 17.4069 10.6123C17.9398 10.6123 18.3733 11.0459 18.3733 11.5786C18.3733 12.1115 17.9398 12.5449 17.4069 12.5449Z" fill="#8C8C8C"/>
<path d="M13.0695 11.1381C13.0695 10.5337 12.5778 10.0417 11.9732 10.0417C11.3686 10.0417 10.8768 10.5335 10.8768 11.1381C10.8768 11.7427 11.3686 12.2347 11.9732 12.2347C12.5778 12.2347 13.0695 11.7427 13.0695 11.1381ZM11.5213 11.1381C11.5213 10.889 11.7239 10.6863 11.9732 10.6863C12.2224 10.6863 12.4252 10.889 12.4252 11.1381C12.4252 11.3874 12.2224 11.5901 11.9732 11.5901C11.7239 11.5901 11.5213 11.3874 11.5213 11.1381Z" fill="#8C8C8C"/>
<path d="M12.5606 16.8308C12.0589 16.8308 11.6509 17.2388 11.6509 17.7404C11.6509 18.2421 12.0589 18.6501 12.5606 18.6501C13.0622 18.6501 13.4704 18.2421 13.4704 17.7404C13.4704 17.2388 13.0622 16.8308 12.5606 16.8308ZM12.5606 18.0056C12.4144 18.0056 12.2954 17.8866 12.2954 17.7404C12.2954 17.5942 12.4144 17.4752 12.5606 17.4752C12.7068 17.4752 12.8258 17.5942 12.8258 17.7404C12.8258 17.8866 12.7068 18.0056 12.5606 18.0056Z" fill="#8C8C8C"/>
<path d="M13.5261 5.31421C13.3544 5.26838 13.1775 5.3706 13.1318 5.54265C12.8693 6.52757 11.9733 7.21557 10.953 7.21557C9.70959 7.21557 8.69815 6.20396 8.69815 4.96055C8.69815 3.71731 9.70959 2.7057 10.953 2.7057C11.9153 2.7057 12.772 3.317 13.0852 4.22673C13.1431 4.39508 13.3264 4.48471 13.4947 4.42663C13.6629 4.36873 13.7523 4.18527 13.6944 4.01709C13.2919 2.8472 12.1902 2.06134 10.953 2.06134C9.35426 2.06134 8.05362 3.36198 8.05362 4.96055C8.05362 6.55946 9.35426 7.85994 10.953 7.85994C12.2649 7.85994 13.417 6.97538 13.7544 5.70865C13.8004 5.5366 13.698 5.36003 13.5261 5.31421Z" fill="#8C8C8C"/>
</g>
<defs>
<clipPath id="clip0_16_6">
<rect width="22" height="22" fill="white"/>
</clipPath>
</defs>
</svg>
