<svg height="511pt" viewBox="0 -22 511.9992 511" width="511pt" xmlns="http://www.w3.org/2000/svg"><path d="m448.484375 267.597656-42.816406 7.15625-30.695313-148.265625 54.3125-9.082031zm0 0" fill="#354968"/><path d="m418.113281 175.808594 12.125 94.839844 18.246094-3.054688-19.199219-150.1875-54.3125 9.082031 4.222656 20.402344c18.828126-3.144531 36.5 9.984375 38.917969 28.917969zm0 0" fill="#2a3a51"/><path d="m448.972656 218.882812-59.609375 9.964844c-2.808593.46875-5.464843-1.425781-5.933593-4.234375l-8.671876-51.875c-.472656-2.8125 1.425782-5.46875 4.234376-5.9375l59.605468-9.964843c2.808594-.46875 5.46875 1.425781 5.9375 4.234374l8.671875 51.878907c.46875 2.804687-1.425781 5.464843-4.234375 5.933593zm0 0" fill="#37cd90"/><path d="m440.3125 100.160156c-5.136719 15.996094-18.820312 28.652344-36.539062 31.609375-17.707032 2.960938-34.753907-4.535156-44.820313-17.996093-3.167969-4.226563-5.640625-9.042969-7.21875-14.304688-.578125-1.875-1.03125-3.8125-1.359375-5.804688-4.230469-25.265624 12.828125-49.171874 38.105469-53.402343 25.265625-4.214844 49.171875 12.84375 53.402343 38.109375.328126 2 .535157 3.992187.605469 5.960937.207031 5.472657-.566406 10.816407-2.175781 15.828125zm0 0" fill="#566591"/><path d="m442.488281 84.328125c-.070312-1.96875-.277343-3.957031-.605469-5.960937-4.230468-25.265626-28.136718-42.324219-53.402343-38.105469-1.433594.238281-2.835938.550781-4.210938.914062 17.070313 4.527344 30.785157 18.640625 33.890625 37.191407.332032 2.003906.535156 3.992187.609375 5.960937.207031 5.476563-.566406 10.820313-2.175781 15.832031-4.726562 14.714844-16.699219 26.582032-32.378906 30.695313 6.191406 1.648437 12.828125 2.039062 19.558594.914062 17.71875-2.960937 31.402343-15.613281 36.539062-31.609375 1.609375-5.011718 2.382812-10.355468 2.175781-15.832031zm0 0" fill="#4d5d84"/><path d="m68.625 267.597656 42.816406 7.15625 30.695313-148.265625-54.316407-9.082031zm0 0" fill="#354968"/><path d="m87.820312 117.40625-3.097656 24.242188c17.082032 2.855468 28.367188 19.335937 24.859375 36.292968l-19.3125 93.273438 21.171875 3.539062 30.695313-148.265625zm0 0" fill="#2a3a51"/><path d="m68.136719 218.882812 59.609375 9.964844c2.808594.46875 5.464844-1.425781 5.933594-4.234375l8.671874-51.875c.46875-2.8125-1.425781-5.46875-4.234374-5.9375l-59.605469-9.964843c-2.8125-.46875-5.46875 1.425781-5.9375 4.234374l-8.671875 51.878907c-.46875 2.804687 1.429687 5.464843 4.234375 5.933593zm0 0" fill="#ffa91e"/><path d="m166.738281 93.664062c-.332031 1.988282-.785156 3.929688-1.363281 5.804688-1.578125 5.261719-4.050781 10.078125-7.21875 14.304688-10.066406 13.460937-27.113281 20.957031-44.820312 17.996093-17.71875-2.960937-31.402344-15.613281-36.539063-31.609375-1.609375-5.011718-2.382813-10.355468-2.175781-15.832031.070312-1.96875.277344-3.960937.609375-5.960937 4.226562-25.265626 28.132812-42.324219 53.402343-38.105469 25.273438 4.230469 42.332032 28.136719 38.105469 53.402343zm0 0" fill="#566591"/><path d="m128.628906 40.261719c-7.058594-1.179688-14.011718-.691407-20.460937 1.167969 22.40625 6.390624 36.914062 28.71875 32.976562 52.234374-.328125 1.988282-.785156 3.929688-1.359375 5.804688-1.578125 5.261719-4.054687 10.078125-7.21875 14.304688-6.046875 8.085937-14.613281 14.011718-24.328125 16.820312 1.660157.472656 3.355469.886719 5.097657 1.175781 17.707031 2.960938 34.753906-4.539062 44.820312-17.996093 3.164062-4.226563 5.640625-9.042969 7.21875-14.304688.578125-1.875 1.03125-3.816406 1.359375-5.804688 4.230469-25.265624-12.828125-49.171874-38.105469-53.402343zm0 0" fill="#4d5d84"/><path d="m63.832031 458.828125v-55.34375h384.335938v55.34375" fill="#bd9b7b"/><path d="m63.832031 403.484375v27.671875h314.265625c15.285156 0 27.675782 12.390625 27.675782 27.671875h42.394531v-55.34375zm0 0" fill="#b38a65"/><path d="m502.964844 300.265625-6.207032 15.890625-33.867187 86.746094c-1.167969 2.96875-4.023437 4.917968-7.210937 4.917968h-399.355469c-3.1875 0-6.054688-1.949218-7.21875-4.917968l-33.867188-86.746094-6.210937-15.890625c-4.082032-10.476563 1.746094-22.183594 12.5625-25.257813 57.835937-16.4375 136.019531-32.074218 229.054687-32.660156 98.003907-.609375 180.046875 15.695313 239.738281 32.648438 10.828126 3.074218 16.675782 14.78125 12.582032 25.269531zm0 0" fill="#c9ad91"/><path d="m502.964844 300.265625-6.207032 15.890625c-1.847656-1.402344-3.980468-2.496094-6.363281-3.175781-59.703125-16.953125-141.742187-33.257813-239.75-32.648438-93.03125.585938-171.214843 16.21875-229.042969 32.660157-2.371093.671874-4.515624 1.765624-6.351562 3.167968h-.011719l-6.210937-15.894531c-4.082032-10.476563 1.746094-22.183594 12.5625-25.257813 57.835937-16.4375 136.019531-32.074218 229.054687-32.660156 98.003907-.609375 180.046875 15.695313 239.738281 32.648438 10.828126 3.074218 16.675782 14.78125 12.582032 25.269531zm0 0" fill="#deccbe"/><path d="m277.34375 242.351562h-43.414062l-5.828126-151.300781h55.070313zm0 0" fill="#354968"/><path d="m228.101562 91.050781.707032 18.40625h.265625c21.300781 0 38.332031 17.699219 37.511719 38.984375l-3.617188 93.90625h14.371094l5.828125-151.296875zm0 0" fill="#2a3a51"/><path d="m285.851562 194.382812h-60.433593c-2.847657 0-5.15625-2.308593-5.15625-5.15625v-52.59375c0-2.847656 2.308593-5.15625 5.15625-5.15625h60.4375c2.84375 0 5.15625 2.308594 5.15625 5.15625v52.59375c-.003907 2.847657-2.3125 5.15625-5.160157 5.15625zm0 0" fill="#e0365f"/><path d="m302.023438 54.617188c0 2.03125-.132813 4.03125-.382813 5.992187-.699219 5.433594-2.347656 10.582031-4.761719 15.253906-7.703125 14.933594-23.289062 25.140625-41.242187 25.140625-17.957031 0-33.539063-10.207031-41.242188-25.140625-2.425781-4.683593-4.074219-9.839843-4.765625-15.292969-.257812-1.949218-.382812-3.941406-.382812-5.953124 0-25.617188 20.769531-46.386719 46.390625-46.386719 25.617187 0 46.386719 20.769531 46.386719 46.386719zm0 0" fill="#566591"/><path d="m255.636719 8.230469c-3.914063 0-7.714844.488281-11.34375 1.402343 20.132812 5.0625 35.042969 23.28125 35.042969 44.984376 0 2.03125-.132813 4.03125-.382813 5.992187-.699219 5.433594-2.351563 10.582031-4.765625 15.253906-6.023438 11.679688-16.867188 20.46875-29.894531 23.746094 3.628906.910156 7.429687 1.398437 11.34375 1.398437 17.953125 0 33.535156-10.210937 41.242187-25.144531 2.410156-4.671875 4.0625-9.816406 4.761719-15.253906.25-1.957031.382813-3.957031.382813-5.992187 0-25.617188-20.769532-46.386719-46.386719-46.386719zm0 0" fill="#4d5d84"/><path d="m509.210938 281.441406c-3.355469-6.757812-9.445313-11.816406-16.710938-13.882812-12.425781-3.53125-24.921875-6.777344-37.472656-9.742188l-4.019532-31.472656c6.585938-1.511719 10.957032-7.917969 9.828126-14.671875l-2.507813-15.003906c-.707031-4.214844-4.695313-7.058594-8.90625-6.355469-4.210937.707031-7.058594 4.691406-6.351563 8.90625l2.082032 12.460938-54.519532 9.113281-7.820312-46.789063 54.519531-9.113281.414063 2.488281c.703125 4.210938 4.691406 7.0625 8.90625 6.355469 4.210937-.707031 7.058594-4.691406 6.351562-8.90625l-.839844-5.03125c-.566406-3.394531-2.425781-6.367187-5.226562-8.367187-1.746094-1.246094-3.730469-2.023438-5.796875-2.292969l-3.617187-28.277344c.921874-1.097656 1.816406-2.226563 2.660156-3.40625 8.394531-11.765625 11.707031-26.101563 9.324218-40.359375-2.386718-14.257812-10.179687-26.734375-21.949218-35.132812-11.765625-8.398438-26.105469-11.707032-40.359375-9.324219-14.257813 2.382812-26.734375 10.175781-35.132813 21.945312-8.394531 11.765625-11.707031 26.101563-9.324218 40.359375 2.386718 14.257813 10.179687 26.734375 21.945312 35.132813 1.179688.84375 2.386719 1.632812 3.617188 2.371093l5.773437 27.90625c-1.863281.929688-3.484375 2.304688-4.730469 4.046876-2 2.804687-2.789062 6.21875-2.21875 9.613281l8.671875 51.875c1.050781 6.296875 6.523438 10.769531 12.707031 10.769531.449219 0 .902344-.03125 1.355469-.082031l1.8125 8.75c-35.179687-5.585938-70.679687-9-106.3125-10.210938l1.273438-33.035156c6.742187-.40625 12.105469-6.003906 12.105469-12.851563v-52.59375c0-5.792968-3.839844-10.703124-9.109376-12.324218l1.101563-28.539063c11.628906-9.933593 19.023437-24.6875 19.023437-41.148437 0-29.84375-24.277343-54.121094-54.121093-54.121094s-54.125 24.277344-54.125 54.121094c0 5.332031.789062 10.484375 2.230469 15.351562.054687.207032.109374.410156.175781.609375 3.0625 9.914063 8.914062 18.605469 16.617187 25.191407l1.105469 28.535156c-5.269531 1.621094-9.113281 6.53125-9.113281 12.324218v52.597657c0 6.84375 5.367187 12.441406 12.109375 12.851562l1.273437 33.050781c-33.605468 1.167969-67.097656 4.296876-100.304687 9.359376l1.640625-7.917969c.460937.050781.921875.082031 1.378906.082031 2.660156 0 5.25-.824219 7.460938-2.398438 2.800781-2 4.65625-4.972656 5.222656-8.371093l8.671875-51.875c.957031-5.710938-2.023438-11.1875-6.949219-13.652344l5.785156-27.964844c8.601563-5.171875 15.742188-12.6875 20.402344-21.835937.164062-.277344.300781-.566406.429688-.863282 2.21875-4.558593 3.839843-9.503906 4.71875-14.753906 2.386718-14.257812-.929688-28.59375-9.324219-40.359375-8.398438-11.769531-20.875-19.5625-35.132813-21.945312-14.253906-2.382813-28.589844.925781-40.359375 9.324219-11.769531 8.394531-19.5625 20.871093-21.945312 35.128906-2.382813 14.257812.925781 28.59375 9.324219 40.363281.839843 1.179687 1.734374 2.308594 2.65625 3.40625l-3.613282 28.277344c-2.070312.273437-4.050781 1.042969-5.800781 2.289062-2.800781 2-4.65625 4.972657-5.226563 8.371094l-8.671874 51.875c-1.125 6.75 3.246093 13.160156 9.832031 14.671875l-3.863281 30.238281c-14.335938 3.292969-28.59375 6.953125-42.761719 10.980469-7.253907 2.0625-13.339844 7.117188-16.691407 13.867188-3.347656 6.742187-3.699218 14.632812-.960937 21.644531l40.078125 102.632812c2.308594 5.914063 7.863281 9.75 14.191406 9.839844v43.28125c0 4.269531 3.464844 7.734375 7.734375 7.734375 4.273438 0 7.734375-3.464844 7.734375-7.734375v-43.273437h368.867188v43.273437c0 4.269531 3.460937 7.734375 7.734375 7.734375 4.273437 0 7.734375-3.464844 7.734375-7.734375v-43.28125c6.328125-.089844 11.886718-3.929687 14.191406-9.839844l40.078125-102.632812c2.734375-7.007813 2.386719-14.894531-.960937-21.632813zm-106.714844-157.300781c-8.183594 1.367187-16.394532.101563-23.667969-3.554687-.101563-.054688-.207031-.101563-.3125-.152344-1.667969-.859375-3.289063-1.84375-4.84375-2.953125-2.164063-1.542969-4.136719-3.285157-5.90625-5.1875l63.722656-10.652344c-1.054687 2.375-2.355469 4.664063-3.898437 6.828125-1.101563 1.542969-2.304688 2.988281-3.589844 4.332031-.066406.0625-.125.128907-.1875.191407-5.699219 5.875-13.089844 9.773437-21.316406 11.148437zm-37.835938-60.574219c5.996094-8.40625 14.90625-13.972656 25.089844-15.671875 2.15625-.363281 4.3125-.539062 6.457031-.539062 7.980469 0 15.742188 2.46875 22.367188 7.195312 8.40625 5.996094 13.972656 14.90625 15.671875 25.089844v.003906c.324218 1.921875.496094 3.847657.53125 5.761719l-75.40625 12.605469c-.589844-1.820313-1.050782-3.699219-1.371094-5.625-1.703125-10.179688.660156-20.417969 6.660156-28.820313zm31.347656 76.585938c3 0 6.019532-.25 9.039063-.753906 6.59375-1.101563 12.796875-3.375 18.398437-6.648438l2.351563 18.382812-36.5625 6.113282-3.753906-18.136719c3.449219.6875 6.972656 1.042969 10.527343 1.042969zm9.132813 93.898437 30.601563-5.113281 3.226562 25.246094c-10.273438-2.222656-20.582031-4.257813-30.921875-6.101563zm-152.714844.5625h-11.054687l-1.253906-32.496093h31.035156l-1.25 32.496093h-10.304688c-2.390625-.011719-4.78125-.011719-7.171875 0zm30.847657-95.402343v47.4375h-55.273438v-47.4375zm-59.90625-63.347657h64.539062c-6.921875 10.480469-18.796875 17.410157-32.269531 17.410157-13.472657 0-25.351563-6.933594-32.269531-17.410157zm32.269531-59.894531c21.3125 0 38.652343 17.339844 38.652343 38.652344 0 1.960937-.148437 3.886718-.433593 5.773437h-76.441407c-.28125-1.886719-.433593-3.8125-.433593-5.773437.003906-21.3125 17.34375-38.652344 38.65625-38.652344zm0 92.773438c6.78125 0 13.265625-1.261719 19.253906-3.550782l-.71875 18.550782h-37.074219l-.714844-18.550782c5.984376 2.289063 12.472657 3.550782 19.253907 3.550782zm-127.761719 48.503906-36.5625-6.113282 2.347656-18.382812c5.605469 3.273438 11.808594 5.542969 18.402344 6.648438 3.007812.5 6 .746093 8.953125.746093 3.613281 0 7.164063-.378906 10.621094-1.078125zm-45.011719-77.601563c0-.003906 0-.003906 0-.003906 1.703125-10.183594 7.269531-19.09375 15.671875-25.089844 6.625-4.726562 14.390625-7.195312 22.367188-7.195312 2.144531 0 4.304687.175781 6.457031.539062 10.183594 1.699219 19.097656 7.265625 25.09375 15.671875 5.996094 8.402344 8.359375 18.640625 6.65625 28.820313-.320313 1.9375-.785156 3.8125-1.375 5.621093l-33.476563-5.59375c-4.207031-.710937-8.199218 2.136719-8.90625 6.351563-.703124 4.214844 2.140626 8.199219 6.355469 8.90625l27.609375 4.613281c-8.554687 9.199219-21.414062 14.078125-34.703125 11.851563-8.203125-1.367188-15.574219-5.25-21.265625-11.097657-.085937-.089843-.171875-.183593-.261718-.269531-1.277344-1.335937-2.46875-2.769531-3.5625-4.304687-1.542969-2.164063-2.84375-4.449219-3.898438-6.828125l1.828125.308593c.429687.070313.859375.105469 1.28125.105469 3.710937 0 6.988281-2.679687 7.621094-6.460937.703125-4.214844-2.140625-8.199219-6.351563-8.902344l-7.671875-1.285156c.035157-1.910156.210938-3.835938.53125-5.757813zm-3.082031 85.246094 54.519531 9.113281-7.824219 46.789063-54.519531-9.113281zm1.585938 64.046875 30.601562 5.113281-2.710938 13.097657c-10.355468 1.78125-20.683593 3.753906-30.972656 5.914062zm374.3125 171.152344-399.363282-.007813-31.25-80.027343c8.207032-2.316407 16.550782-4.542969 24.832032-6.613282 4.144531-1.035156 6.660156-5.234375 5.625-9.378906-1.035157-4.144531-5.238282-6.660156-9.378907-5.628906-8.890625 2.222656-17.863281 4.621094-26.648437 7.117187-.027344.007813-.054688.019531-.082032.027344l-3.175781-8.128906c-1.171875-3.003907-1.027343-6.25.40625-9.140625 1.4375-2.898438 3.949219-4.980469 7.066407-5.867188 15.535156-4.414062 31.183593-8.375 46.917968-11.894531.070313-.011719.140625-.03125.210938-.046875 59.03125-13.179688 119.328125-20.039062 179.851562-20.417969h.9375 7.617188c47.292968.179688 94.433594 4.308594 140.957031 12.324219h.003906c29.644531 5.105469 59.039063 11.785156 88.066407 20.03125 3.128906.890625 5.644531 2.976562 7.085937 5.878906 1.433594 2.886719 1.574219 6.128906.402344 9.132813l-3.171875 8.121093c-.027344-.007812-.054688-.019531-.085938-.027343-78.765625-22.367188-160.152344-33.449219-241.910156-32.945313-57.140625.363282-114.507812 6.441406-170.5 18.070313-4.183594.867187-6.871094 4.964843-6 9.148437.867188 4.179688 4.953125 6.863282 9.144531 6 54.996094-11.421875 111.332031-17.394531 167.453125-17.746094 79.785156-.484374 159.308594 10.265626 236.246094 31.980469zm0 0"/><path d="m110.863281 192.839844c0 4.273437-3.464843 7.738281-7.734375 7.738281-4.273437 0-7.734375-3.464844-7.734375-7.738281 0-4.269532 3.460938-7.734375 7.734375-7.734375 4.269532 0 7.734375 3.464843 7.734375 7.734375zm0 0"/><path d="m263.28125 162.929688c0 4.269531-3.464844 7.734374-7.734375 7.734374-4.273437 0-7.738281-3.464843-7.738281-7.734374 0-4.273438 3.464844-7.734376 7.738281-7.734376 4.269531 0 7.734375 3.460938 7.734375 7.734376zm0 0"/><path d="m421.625 192.839844c0 4.273437-3.464844 7.738281-7.734375 7.738281-4.273437 0-7.738281-3.464844-7.738281-7.738281 0-4.269532 3.464844-7.734375 7.738281-7.734375 4.269531 0 7.734375 3.464843 7.734375 7.734375zm0 0"/><path d="m182.132812 322.660156c-3.507812-3.015625-8.167968-4.523437-13.984374-4.523437h-16.878907c-1.414062 0-2.554687.382812-3.425781 1.140625-.867188.761718-1.300781 1.660156-1.300781 2.691406v51.859375c0 1.25.621093 2.214844 1.875 2.894531 1.25.679688 2.742187 1.019532 4.484375 1.019532 1.738281 0 3.230468-.339844 4.484375-1.019532 1.25-.679687 1.875-1.644531 1.875-2.894531v-17.613281h8.070312c6.035157 0 10.886719-1.535156 14.554688-4.605469 3.671875-3.074219 5.503906-7.84375 5.503906-14.3125v-.40625c0-6.46875-1.75-11.214844-5.257813-14.230469zm-7.460937 15.617188c0 5.433594-2.445313 8.152344-7.339844 8.152344h-8.070312v-17.207032h8.070312c4.894531 0 7.339844 2.722656 7.339844 8.15625zm0 0"/><path d="m223.921875 352.136719c6.574219-2.554688 9.863281-8.070313 9.863281-16.550781 0-11.632813-6.683594-17.449219-20.058594-17.449219h-16.878906c-1.140625 0-2.078125.382812-2.8125 1.140625-.734375.761718-1.101562 1.660156-1.101562 2.691406v51.859375c0 1.25.625 2.214844 1.875 2.894531 1.25.679688 2.746094 1.019532 4.488281 1.019532 1.738281 0 3.230469-.339844 4.484375-1.019532 1.25-.679687 1.875-1.644531 1.875-2.894531v-19.652344h5.378906l11.171875 21.691407c.816407 1.578124 2.171875 2.363281 4.078125 2.363281 1.902344 0 3.707032-.703125 5.421875-2.117188 1.710938-1.414062 2.566407-2.910156 2.566407-4.488281 0-.59375-.136719-1.085938-.40625-1.464844zm-4.730469-9.5c-1.25 1.171875-3.074218 1.753906-5.464844 1.753906h-8.070312v-15.167969h8.070312c2.390626 0 4.214844.585938 5.464844 1.753906 1.25 1.167969 1.875 3.113282 1.875 5.828126 0 2.722656-.625 4.664062-1.875 5.832031zm0 0"/><path d="m275.125 329.222656c1.195312 0 2.132812-.542968 2.8125-1.628906s1.019531-2.417969 1.019531-3.996094c0-1.464844-.324219-2.742187-.976562-3.832031-.652344-1.085937-1.605469-1.628906-2.855469-1.628906h-29.027344c-1.523437 0-2.828125.335937-3.914062 1.019531-1.085938.679688-1.628906 1.644531-1.628906 2.894531v51.777344c0 1.25.542968 2.214844 1.628906 2.894531 1.085937.679688 2.390625 1.019532 3.914062 1.019532h29.027344c1.25 0 2.203125-.542969 2.855469-1.632813.652343-1.085937.976562-2.363281.976562-3.832031 0-1.574219-.339843-2.90625-1.019531-3.996094-.679688-1.085938-1.617188-1.628906-2.8125-1.628906h-21.851562v-13.863282h12.230468c1.25 0 2.203125-.488281 2.855469-1.464843.652344-.980469.976563-2.09375.976563-3.34375 0-1.359375-.339844-2.53125-1.019532-3.507813-.679687-.980468-1.617187-1.46875-2.8125-1.46875h-12.230468v-13.78125zm0 0"/><path d="m315 346.390625c-1.90625-1.386719-3.984375-2.664063-6.238281-3.835937-2.257813-1.167969-4.335938-2.117188-6.238281-2.851563-1.902344-.734375-3.492188-1.617187-4.769532-2.648437s-1.917968-2.175782-1.917968-3.425782c0-1.359375.679687-2.515625 2.039062-3.464844 1.359375-.953124 3.394531-1.425781 6.113281-1.425781 2.554688 0 4.894531.515625 7.015625 1.546875 2.117188 1.035156 3.503906 1.550782 4.15625 1.550782 1.574219 0 2.8125-.773438 3.710938-2.320313.894531-1.546875 1.34375-3.039063 1.34375-4.476563 0-1.511718-.609375-2.796874-1.832032-3.863281-1.226562-1.0625-2.800781-1.832031-4.730468-2.308593-1.929688-.476563-3.671875-.800782-5.21875-.96875-1.550782-.167969-3.03125-.25-4.445313-.25-5.761719 0-10.679687 1.425781-14.757812 4.277343-4.078125 2.855469-6.117188 7.164063-6.117188 12.925781 0 3.535157.882813 6.578126 2.652344 9.132813 1.765625 2.554687 3.925781 4.527344 6.480469 5.914063 2.554687 1.382812 5.097656 2.636718 7.625 3.75 2.527344 1.113281 4.675781 2.351562 6.441406 3.710937s2.652344 2.933594 2.652344 4.726563c0 1.796874-.789063 3.140624-2.367188 4.039062-1.578125.894531-3.421875 1.34375-5.542968 1.34375-1.6875 0-3.289063-.328125-4.8125-.988281-1.519532-.660157-2.703126-1.390625-3.546876-2.191407-.84375-.800781-1.765624-1.53125-2.769531-2.191406-1.007812-.660156-1.917969-.988281-2.734375-.988281-1.464844 0-2.757812.761719-3.871094 2.28125-1.113281 1.523437-1.671874 3.046875-1.671874 4.566406 0 2.71875 1.957031 5.164063 5.871093 7.339844 3.914063 2.171875 8.507813 3.261719 13.78125 3.261719 6.085938 0 11.007813-1.5625 14.757813-4.683594 3.75-3.125 5.625-7.488281 5.625-13.09375 0-3.207031-.636719-6.0625-1.914063-8.5625-1.277343-2.5-2.871093-4.441406-4.769531-5.828125zm0 0"/><path d="m358.457031 346.390625c-1.902343-1.386719-3.980469-2.664063-6.238281-3.835937-2.253906-1.167969-4.335938-2.117188-6.238281-2.851563-1.902344-.734375-3.492188-1.617187-4.769531-2.648437-1.277344-1.03125-1.914063-2.175782-1.914063-3.425782 0-1.359375.679687-2.515625 2.035156-3.464844 1.359375-.953124 3.398438-1.425781 6.117188-1.425781 2.554687 0 4.890625.515625 7.011719 1.546875 2.121093 1.035156 3.507812 1.550782 4.15625 1.550782 1.578124 0 2.816406-.773438 3.710937-2.320313.898437-1.546875 1.347656-3.039063 1.347656-4.476563 0-1.511718-.613281-2.796874-1.835937-3.863281-1.222656-1.0625-2.800782-1.832031-4.730469-2.308593-1.929687-.476563-3.667969-.800782-5.21875-.96875-1.546875-.167969-3.03125-.25-4.441406-.25-5.761719 0-10.683594 1.425781-14.757813 4.277343-4.078125 2.855469-6.117187 7.164063-6.117187 12.925781 0 3.535157.882812 6.578126 2.652343 9.132813 1.765626 2.554687 3.925782 4.527344 6.480469 5.914063 2.554688 1.382812 5.097657 2.636718 7.625 3.75 2.527344 1.113281 4.671875 2.351562 6.441407 3.710937 1.765624 1.359375 2.648437 2.933594 2.648437 4.726563 0 1.796874-.789063 3.140624-2.363281 4.039062-1.578125.894531-3.425782 1.34375-5.542969 1.34375-1.6875 0-3.289063-.328125-4.8125-.988281-1.523437-.660157-2.703125-1.390625-3.546875-2.191407-.84375-.800781-1.765625-1.53125-2.773438-2.191406-1.003906-.660156-1.914062-.988281-2.730468-.988281-1.46875 0-2.757813.761719-3.871094 2.28125-1.117188 1.523437-1.671875 3.046875-1.671875 4.566406 0 2.71875 1.957031 5.164063 5.871094 7.339844 3.914062 2.171875 8.503906 3.261719 13.78125 3.261719 6.085937 0 11.007812-1.5625 14.757812-4.683594 3.75-3.125 5.625-7.488281 5.625-13.09375 0-3.207031-.640625-6.0625-1.917969-8.5625-1.277343-2.5-2.867187-4.441406-4.769531-5.828125zm0 0"/></svg>