<svg width="31" height="32" viewBox="0 0 31 32" fill="none" xmlns="http://www.w3.org/2000/svg">
<g clip-path="url(#clip0_1_1195)">
<path d="M30.0976 16.0533C30.0976 20.197 28.3897 23.9413 25.6395 26.6191C25.5608 26.6203 24.3689 26.956 24.2896 26.9596C15.196 27.3241 8.67365 20.9747 8.67365 12.7746C8.67365 8.70012 10.6003 4.11375 14.8662 1.32584C15.0362 1.31983 15.2074 1.31682 15.3792 1.31682C17.1647 1.31682 18.8756 1.63501 20.4586 2.21785C20.6366 4.11375 23.34 6.25139 25.5187 5.37207C28.3392 8.05652 30.0976 11.8489 30.0976 16.0533Z" fill="#FCE3A0"/>
<path d="M25.6395 26.6191C22.9883 29.2001 19.3694 30.7899 15.3792 30.7899C7.25047 30.7899 0.660828 24.1921 0.660828 16.0533C0.660828 8.08659 6.97472 1.5965 14.8662 1.32583C12.2121 4.00848 10.5732 7.69923 10.5732 11.7737C10.5732 19.9739 17.2127 26.6209 25.4028 26.6209C25.4821 26.6209 25.5608 26.6203 25.6395 26.6191Z" fill="#F9D171"/>
<path d="M30.1194 29.3803L30.0521 29.4074C29.4435 29.6519 28.9611 30.1349 28.7169 30.7442L28.6899 30.8116C28.589 31.0633 28.2332 31.0633 28.1323 30.8116L28.1054 30.7442C27.8612 30.1349 27.3788 29.6519 26.7701 29.4074L26.7029 29.3803C26.4515 29.2794 26.4515 28.9231 26.7029 28.8221L26.7701 28.7951C27.3788 28.5506 27.8612 28.0676 28.1054 27.4582L28.1323 27.3909C28.2332 27.1392 28.589 27.1392 28.6899 27.3909L28.7169 27.4582C28.9611 28.0676 29.4435 28.5506 30.0521 28.7951L30.1194 28.8221C30.3707 28.9231 30.3707 29.2794 30.1194 29.3803Z" fill="#B0F0EF"/>
<path d="M7.44517 4.9814L6.8831 5.2072C5.81797 5.63516 4.9738 6.48031 4.54642 7.54676L4.3209 8.10951C4.22003 8.36118 3.86421 8.36118 3.76334 8.10951L3.53782 7.54676C3.11039 6.48031 2.26627 5.6351 1.20114 5.2072L0.639077 4.9814C0.387723 4.88041 0.387723 4.52414 0.639077 4.42315L1.20114 4.19735C2.26627 3.76939 3.11045 2.92424 3.53782 1.8578L3.76334 1.29504C3.86421 1.04338 4.22003 1.04338 4.3209 1.29504L4.54642 1.8578C4.97386 2.92424 5.81797 3.76945 6.8831 4.19735L7.44517 4.42315C7.69652 4.52414 7.69652 4.88041 7.44517 4.9814Z" fill="#93ECEA"/>
<path d="M23.34 22.7961C24.833 22.7961 26.0434 21.5843 26.0434 20.0894C26.0434 18.5945 24.833 17.3827 23.34 17.3827C21.847 17.3827 20.6366 18.5945 20.6366 20.0894C20.6366 21.5843 21.847 22.7961 23.34 22.7961Z" fill="#F9D171"/>
<path d="M24.7631 11.1499C25.2607 11.1499 25.6642 10.746 25.6642 10.2477C25.6642 9.7494 25.2607 9.34546 24.7631 9.34546C24.2654 9.34546 23.8619 9.7494 23.8619 10.2477C23.8619 10.746 24.2654 11.1499 24.7631 11.1499Z" fill="#F9D171"/>
<path d="M5.5227 16.9688C6.18627 16.9688 6.7242 16.4302 6.7242 15.7658C6.7242 15.1014 6.18627 14.5629 5.5227 14.5629C4.85913 14.5629 4.3212 15.1014 4.3212 15.7658C4.3212 16.4302 4.85913 16.9688 5.5227 16.9688Z" fill="#FFB25A"/>
<path d="M12.2403 13.2599C12.2407 14.0681 11.4192 14.7238 10.4055 14.7242C9.39179 14.7247 8.56967 14.0699 8.56924 13.2617C8.56882 12.4534 9.39029 11.7978 10.404 11.7973C11.4177 11.7967 12.2398 12.4516 12.2403 13.2599Z" fill="#FFA1AC"/>
<path d="M18.5182 13.2567C18.5186 14.0649 19.3407 14.7197 20.3545 14.7192C21.3682 14.7187 22.1896 14.0631 22.1892 13.2548C22.1888 12.4465 21.3667 11.7917 20.353 11.7922C19.3393 11.7927 18.5178 12.4484 18.5182 13.2567Z" fill="#FFA1AC"/>
<path d="M17.1781 12.5957C17.1776 11.4824 16.372 11.3782 15.3783 11.3787C14.3846 11.3792 13.5791 11.4842 13.5797 12.5975C13.5802 13.7108 14.3862 14.6129 15.3799 14.6124C16.3736 14.6119 17.1787 13.709 17.1781 12.5957Z" fill="#666667"/>
<path d="M16.1961 20.029C16.6938 20.029 17.0972 19.6251 17.0972 19.1268C17.0972 18.6285 16.6938 18.2245 16.1961 18.2245C15.6984 18.2245 15.295 18.6285 15.295 19.1268C15.295 19.6251 15.6984 20.029 16.1961 20.029Z" fill="#F9D171"/>
<path d="M10.4289 26.5773C12.2537 26.5773 13.733 25.0962 13.733 23.2691C13.733 21.4421 12.2537 19.9609 10.4289 19.9609C8.6041 19.9609 7.12479 21.4421 7.12479 23.2691C7.12479 25.0962 8.6041 26.5773 10.4289 26.5773Z" fill="#FFB25A"/>
<path d="M14.5069 7.72269C15.5023 7.72269 16.3092 6.9148 16.3092 5.91822C16.3092 4.92164 15.5023 4.11375 14.5069 4.11375C13.5116 4.11375 12.7047 4.92164 12.7047 5.91822C12.7047 6.9148 13.5116 7.72269 14.5069 7.72269Z" fill="#F9D171"/>
<path d="M25.5187 5.37207C25.0429 6.40483 24 7.1212 22.7901 7.1212C21.1308 7.1212 19.7863 5.77447 19.7863 4.11375C19.7863 3.39497 20.0387 2.73513 20.4586 2.21785C22.3606 2.91799 24.0781 4.00007 25.5187 5.37207Z" fill="#F9D171"/>
<path d="M24.7631 11.601C24.0177 11.601 23.4114 10.994 23.4114 10.2477C23.4114 9.50143 24.0177 8.89434 24.7631 8.89434C25.5084 8.89434 26.1148 9.50143 26.1148 10.2477C26.1148 10.994 25.5084 11.601 24.7631 11.601ZM24.7631 9.79658C24.5146 9.79658 24.3125 9.99892 24.3125 10.2477C24.3125 10.4965 24.5146 10.6988 24.7631 10.6988C25.0115 10.6988 25.2136 10.4965 25.2136 10.2477C25.2136 9.99892 25.0115 9.79658 24.7631 9.79658Z" fill="black"/>
<path d="M5.5227 17.4199C4.61172 17.4199 3.87064 16.6779 3.87064 15.7658C3.87064 14.8537 4.61172 14.1117 5.5227 14.1117C6.43368 14.1117 7.17477 14.8537 7.17477 15.7658C7.17477 16.6779 6.43362 17.4199 5.5227 17.4199ZM5.5227 15.014C5.1086 15.014 4.77176 15.3512 4.77176 15.7658C4.77176 16.1804 5.1086 16.5177 5.5227 16.5177C5.9368 16.5177 6.27364 16.1804 6.27364 15.7658C6.27364 15.3512 5.93674 15.014 5.5227 15.014Z" fill="black"/>
<path d="M15.3791 15.1237C14.7689 15.1237 14.198 14.8609 13.7716 14.3835C13.3576 13.9202 13.1294 13.3074 13.1291 12.6579C13.1283 10.9889 14.6478 10.9881 15.3781 10.9878C15.9788 10.99 16.4614 11.0281 16.8543 11.2273C17.3678 11.4877 17.6284 11.9683 17.6287 12.6557C17.6294 14.016 16.6207 15.1231 15.3802 15.1237C15.3798 15.1237 15.3794 15.1237 15.3791 15.1237ZM15.3857 11.89C15.3833 11.89 15.3809 11.89 15.3785 11.89C14.2158 11.8906 14.0299 12.0727 14.0302 12.6574C14.0304 13.0848 14.1771 13.4843 14.4432 13.782C14.6964 14.0654 15.0288 14.2214 15.3791 14.2214H15.3797C16.1234 14.2211 16.728 13.5188 16.7276 12.6561C16.7274 12.2326 16.5927 12.106 16.4471 12.0321C16.2015 11.9076 15.7923 11.89 15.3857 11.89Z" fill="black"/>
<path d="M10.6 12.1794C10.3512 12.1794 10.1496 11.9776 10.1494 11.7284C10.1493 11.3743 10.2868 11.0413 10.5368 10.7908C10.7868 10.5402 11.1193 10.4022 11.473 10.402H11.4737C11.8272 10.402 12.1595 10.5397 12.4096 10.7899C12.6599 11.0402 12.7977 11.373 12.7979 11.7272C12.798 11.9763 12.5964 12.1784 12.3475 12.1785C12.3475 12.1785 12.3474 12.1785 12.3474 12.1785C12.0986 12.1785 11.8969 11.9767 11.8968 11.7275C11.8967 11.494 11.7069 11.3041 11.4737 11.3041C11.4737 11.3041 11.4736 11.3041 11.4735 11.3041C11.2402 11.3043 11.0505 11.4944 11.0506 11.728C11.0508 11.9772 10.8491 12.1792 10.6002 12.1793C10.6001 12.1794 10.6001 12.1794 10.6 12.1794Z" fill="black"/>
<path d="M18.4095 12.1755C18.1608 12.1755 17.9591 11.9737 17.959 11.7245C17.9586 10.9935 18.5523 10.3984 19.2826 10.398H19.2832C19.6367 10.398 19.9691 10.5357 20.2191 10.7859C20.4694 11.0362 20.6073 11.369 20.6075 11.7232C20.6076 11.9723 20.406 12.1744 20.1571 12.1745H20.1569C19.9081 12.1745 19.7065 11.9727 19.7063 11.7236C19.7062 11.4901 19.5164 11.3002 19.2833 11.3002C19.2833 11.3002 19.2832 11.3002 19.283 11.3002C19.0498 11.3003 18.8601 11.4904 18.8602 11.724C18.8603 11.9732 18.6587 12.1752 18.4098 12.1753C18.4097 12.1755 18.4095 12.1755 18.4095 12.1755Z" fill="black"/>
<path d="M28.4111 31.4515C28.1026 31.4515 27.8291 31.2663 27.7141 30.9796L27.6872 30.9123C27.4897 30.4197 27.0943 30.0238 26.6023 29.826L26.535 29.799C26.2487 29.684 26.0637 29.4102 26.0637 29.1013C26.0637 28.7924 26.2487 28.5185 26.535 28.4035L26.6023 28.3764C27.0943 28.1787 27.4897 27.7828 27.6872 27.2902L27.7141 27.2228C27.8291 26.9362 28.1026 26.751 28.4111 26.751C28.7196 26.751 28.9931 26.9362 29.1079 27.2229L29.1349 27.2902C29.3324 27.7828 29.7278 28.1787 30.2198 28.3764L30.2871 28.4035C30.5734 28.5185 30.7584 28.7924 30.7584 29.1013C30.7584 29.4102 30.5733 29.684 30.287 29.799L30.2198 29.826C29.7278 30.0238 29.3324 30.4197 29.1349 30.9123L29.1079 30.9796C28.9931 31.2662 28.7196 31.4515 28.4111 31.4515ZM27.1832 29.1012C27.7079 29.3731 28.1396 29.8052 28.4111 30.3306C28.6825 29.8052 29.1142 29.3731 29.6389 29.1012C29.1142 28.8294 28.6825 28.3973 28.4111 27.8719C28.1396 28.3973 27.7079 28.8294 27.1832 29.1012Z" fill="black"/>
<path d="M28.8038 8.97572C27.6992 6.87946 26.0937 5.04407 24.1608 3.66792C23.958 3.52356 23.6767 3.57108 23.5325 3.77414C23.3883 3.97715 23.4358 4.25883 23.6386 4.40318C24.0986 4.7307 24.5386 5.086 24.9566 5.46572C24.4942 6.20615 23.675 6.67008 22.7901 6.67008C21.3822 6.67008 20.2369 5.52334 20.2369 4.11375C20.2369 3.6281 20.3692 3.167 20.6219 2.76322C21.0536 2.93476 21.4791 3.12706 21.8973 3.34258C22.1187 3.45668 22.3902 3.36946 22.5041 3.14793C22.618 2.9264 22.5309 2.65435 22.3097 2.54037C20.1535 1.42911 17.8218 0.865696 15.3792 0.865696C12.2403 0.865696 9.24021 1.8128 6.68444 3.60705C5.90971 3.19256 5.29388 2.51131 4.96461 1.68974L4.73908 1.1271C4.62422 0.840433 4.35064 0.655174 4.04215 0.655174C3.73367 0.655174 3.46015 0.840433 3.34522 1.12704L3.1197 1.68974C2.73997 2.63715 1.97953 3.39851 1.03329 3.77872L0.471349 4.00452C0.185031 4.11952 0 4.39338 0 4.70231C0 5.01123 0.185031 5.28503 0.471289 5.40009L1.03335 5.62589C1.85386 5.95557 2.53427 6.57216 2.94825 7.3479C1.15621 9.90676 0.210263 12.9106 0.210263 16.0533C0.210263 17.5627 0.431099 19.0539 0.866643 20.4855C0.925817 20.68 1.10442 20.8052 1.2975 20.8052C1.341 20.8052 1.38515 20.7989 1.42895 20.7855C1.66696 20.7129 1.80117 20.4609 1.72866 20.2225C1.31907 18.8763 1.11139 17.4735 1.11139 16.0533C1.11139 13.2872 1.89032 10.6358 3.37111 8.33477C3.49781 8.58854 3.75469 8.74938 4.04209 8.74938C4.35058 8.74938 4.6241 8.56412 4.73902 8.27751L4.96455 7.71475C5.34422 6.7674 6.10471 6.00604 7.05089 5.62583L7.6129 5.40003C7.89921 5.28503 8.08419 5.01117 8.08425 4.70231C8.08425 4.41461 7.92361 4.15729 7.67015 4.03044C9.96838 2.54783 12.6166 1.76793 15.3792 1.76793C16.8911 1.76793 18.3571 1.99878 19.761 2.45333C19.4845 2.95973 19.3358 3.53186 19.3358 4.11375C19.3358 6.02083 20.8853 7.57232 22.7901 7.57232C23.922 7.57232 24.9745 7.01167 25.6146 6.1042C26.5625 7.08241 27.3728 8.19354 28.0068 9.39676C29.0799 11.4331 29.6471 13.735 29.6471 16.0533C29.6471 19.8691 28.163 23.4565 25.4681 26.1547C22.7733 28.8528 19.1903 30.3387 15.3792 30.3387C12.6186 30.3387 9.94039 29.5483 7.6341 28.0528C5.38675 26.5956 3.59796 24.5463 2.4611 22.1265C2.35518 21.901 2.08677 21.8043 1.86161 21.9103C1.63645 22.0163 1.53978 22.2851 1.6457 22.5105C2.85423 25.0829 4.7556 27.2613 7.14425 28.8102C9.59682 30.4004 12.4444 31.241 15.3792 31.241C19.431 31.241 23.2403 29.6612 26.1053 26.7926C28.9703 23.924 30.5482 20.1101 30.5482 16.0533C30.5482 13.5888 29.945 11.1413 28.8038 8.97572ZM6.71531 4.78856C5.54205 5.25995 4.59911 6.20405 4.1283 7.37876L4.04215 7.59367L3.95601 7.37876C3.4852 6.20405 2.5422 5.25989 1.36899 4.78856L1.15428 4.70231L1.36893 4.61605C2.54226 4.14466 3.4852 3.20056 3.95601 2.02579L4.04215 1.81082L4.1283 2.02579C4.59911 3.2005 5.54205 4.14466 6.71531 4.61605L6.93002 4.70231L6.71531 4.78856Z" fill="black"/>
<path d="M23.7075 23.222C23.4857 23.222 23.2924 23.0579 23.2616 22.8317C23.2281 22.5848 23.4007 22.3574 23.6473 22.3238C24.7563 22.1726 25.5926 21.212 25.5926 20.0894C25.5926 18.8456 24.582 17.8338 23.3398 17.8338C22.0976 17.8338 21.087 18.8456 21.087 20.0894C21.087 20.3049 21.1173 20.5181 21.1771 20.7234C21.2468 20.9626 21.1096 21.2131 20.8708 21.2828C20.6317 21.3525 20.3818 21.2152 20.3121 20.9761C20.2283 20.6887 20.1859 20.3904 20.1859 20.0894C20.1859 18.3482 21.6007 16.9316 23.3398 16.9316C25.0789 16.9316 26.4937 18.3482 26.4937 20.0894C26.4937 21.6611 25.3223 23.006 23.7689 23.2179C23.7482 23.2206 23.7278 23.222 23.7075 23.222Z" fill="black"/>
<path d="M16.1961 20.4801C15.4507 20.4801 14.8444 19.873 14.8444 19.1268C14.8444 18.3805 15.4507 17.7734 16.1961 17.7734C16.9414 17.7734 17.5478 18.3805 17.5478 19.1268C17.5478 19.873 16.9414 20.4801 16.1961 20.4801ZM16.1961 18.6757C15.9476 18.6757 15.7455 18.878 15.7455 19.1268C15.7455 19.3756 15.9476 19.5779 16.1961 19.5779C16.4446 19.5779 16.6466 19.3756 16.6466 19.1268C16.6466 18.878 16.4446 18.6757 16.1961 18.6757Z" fill="black"/>
<path d="M10.429 27.0287C8.35873 27.0287 6.67435 25.3423 6.67435 23.2694C6.67435 21.3842 8.08065 19.7813 9.94556 19.5408C10.1926 19.5088 10.4182 19.6836 10.4499 19.9307C10.4817 20.1778 10.3074 20.4039 10.0606 20.4357C8.64385 20.6184 7.57547 21.8366 7.57547 23.2694C7.57547 24.8448 8.85561 26.1265 10.429 26.1265C11.9827 26.1265 13.2354 24.9093 13.281 23.3554C13.2883 23.1064 13.4938 22.9097 13.7446 22.9178C13.9933 22.9251 14.189 23.1329 14.1817 23.382C14.1529 24.3623 13.7498 25.2795 13.0465 25.9645C12.3418 26.6508 11.4122 27.0287 10.429 27.0287Z" fill="black"/>
<path d="M14.5069 8.15517C13.2647 8.15517 12.2541 7.14334 12.2541 5.89958C12.2541 5.5948 12.3143 5.29845 12.433 5.01881C12.5303 4.78952 12.795 4.6827 13.0239 4.78002C13.2529 4.87746 13.3596 5.14236 13.2624 5.37165C13.1913 5.5391 13.1552 5.71666 13.1552 5.89958C13.1552 6.64585 13.7616 7.25293 14.5069 7.25293C15.2523 7.25293 15.8586 6.64585 15.8586 5.89958C15.8586 5.19541 15.3103 4.60276 14.6103 4.55037C14.3622 4.53179 14.176 4.31531 14.1946 4.06683C14.2132 3.81842 14.4287 3.63189 14.6776 3.65066C15.8452 3.73812 16.7598 4.72595 16.7598 5.89958C16.7598 7.14334 15.7492 8.15517 14.5069 8.15517Z" fill="black"/>
</g>
<defs>
<clipPath id="clip0_1_1195">
<rect width="30.7584" height="30.7963" fill="white" transform="translate(0 0.655174)"/>
</clipPath>
</defs>
</svg>
