<svg clip-rule="evenodd" fill-rule="evenodd" height="64" image-rendering="optimizeQuality" shape-rendering="geometricPrecision" text-rendering="geometricPrecision" viewBox="0 0 4.151 4.151" width="64" xmlns="http://www.w3.org/2000/svg"><g id="Layer_x0020_1"><g id="_1669152639632"><path d="m0 0h4.151v4.151h-4.151z" fill="none"/><path d="m2.076 4.122c.028 0 .056-.01.077-.032l.131-.13c.043-.043.114-.045.156 0l.144.155c.041.045.113.044.155 0l.153-.155c.043-.044.107-.036.156 0l.221.164c.048.049.121.03.121-.039v-3.3c0-.099-.082-.181-.181-.181h-1.133-1.134c-.099 0-.181.082-.181.181v3.3c0 .069.073.088.121.039l.222-.164c.048-.037.113-.043.155 0l.153.155c.043.044.115.045.156 0l.144-.155c.041-.045.113-.043.155 0l.131.13c.021.022.05.032.078.032zm-.845-3.058h1.079c.02 0 .036.017.036.037v.104c0 .021-.016.037-.036.037h-1.079c-.02 0-.036-.016-.036-.037v-.104c0-.021.016-.037.036-.037zm1.066 1.243h.623c.02 0 .037.016.037.036v.105c0 .02-.017.037-.037.037h-.623c-.02 0-.037-.016-.037-.037v-.105c0-.02.017-.036.037-.036zm.303-1.243h.32c.02 0 .037.017.037.037v.104c0 .021-.017.037-.037.037h-.32c-.02 0-.036-.016-.036-.037v-.104c0-.021.016-.037.036-.037zm-.96 1.412v-.077c0-.024.019-.043.043-.043h.082c.024 0 .043.019.043.043v.073c.018.005.035.012.051.021.068.039.109.105.122.181.002.013-.001.025-.009.035-.009.01-.02.015-.033.015h-.076c-.019 0-.035-.012-.041-.03-.025-.085-.188-.097-.188.009 0 .057.083.08.126.096.122.045.226.093.226.241 0 .114-.073.202-.178.237v.077c0 .023-.019.042-.043.042h-.082c-.024 0-.043-.019-.043-.042l-.001-.074c-.017-.005-.034-.012-.05-.021-.069-.038-.109-.104-.123-.181-.002-.012.002-.025.01-.034.008-.01.02-.016.033-.016h.075c.019 0 .036.013.041.031.026.085.188.096.188-.009 0-.061-.095-.085-.14-.102-.117-.043-.211-.095-.211-.235 0-.114.073-.202.178-.237zm.96-.575h.32c.02 0 .037.017.037.037v.105c0 .02-.017.036-.037.036h-.32c-.02 0-.036-.016-.036-.036v-.105c0-.021.016-.037.036-.037zm-1.369 0h1.079c.02 0 .036.017.036.037v.105c0 .02-.016.036-.036.036h-1.079c-.02 0-.036-.016-.036-.036v-.105c0-.021.016-.037.036-.037zm0-.419h1.079c.02 0 .036.017.036.037v.105c0 .02-.016.037-.036.037h-1.079c-.02 0-.036-.017-.036-.037v-.105c0-.02.016-.037.036-.037zm1.369 0h.32c.02 0 .037.017.037.037v.105c0 .02-.017.037-.037.037h-.32c-.02 0-.036-.017-.036-.037v-.105c0-.02.016-.037.036-.037z" fill="#0070b7"/><path d="m.505 1.189c-.288-.046-.505-.298-.505-.591 0-.165.067-.314.176-.422.108-.109.257-.176.422-.176h2.955c.165 0 .315.067.423.176.108.108.175.257.175.422 0 .293-.216.545-.504.591-.025.004-.047-.003-.065-.019-.019-.015-.029-.036-.029-.061v-.248c0-.036.023-.066.057-.077.082-.025.138-.1.138-.186 0-.053-.022-.102-.057-.137-.036-.036-.084-.058-.138-.058h-2.955c-.053 0-.102.022-.137.058-.036.035-.058.084-.058.137 0 .086.057.161.138.186.035.011.057.041.057.077v.248c0 .025-.01.046-.028.061-.019.016-.041.023-.065.019z" fill="#303c47" fill-rule="nonzero"/></g></g></svg>