<svg height="512" viewBox="0 0 512 512" width="512" xmlns="http://www.w3.org/2000/svg"><g id="ARROW_48" data-name="ARROW 48"><path d="m190 180.85-28.12-28.12a118.84 118.84 0 0 0 -84.6-35h-53.13a24 24 0 0 0 0 48h53.08a71.14 71.14 0 0 1 50.66 21l28.11 28.06a24 24 0 0 0 34-33.94z"/><path d="m161.66 359.25 172.58-172.58a71.16 71.16 0 0 1 50.66-21h45.41l-27.74 27.74a24 24 0 0 0 0 34 24 24 0 0 0 33.94 0l68.28-68.24a24.67 24.67 0 0 0 0-34.9l-68.28-68.27a24 24 0 0 0 -33.61-.32c-9.7 9.33-9.47 25.13.05 34.65l27.33 27.33h-45.38a118.86 118.86 0 0 0 -84.6 35l-172.58 172.64a71.14 71.14 0 0 1 -50.66 21h-53.06a24 24 0 0 0 0 48h53.06a118.89 118.89 0 0 0 84.6-35.05z"/><path d="m436.51 456 68.28-68.25a24.66 24.66 0 0 0 0-34.89l-68.28-68.26a24 24 0 0 0 -33.61-.32c-9.7 9.33-9.47 25.13.05 34.65l27.33 27.33h-45.21a71.16 71.16 0 0 1 -50.66-21l-31.12-31.12a24 24 0 1 0 -33.94 33.94l31.12 31.13a118.91 118.91 0 0 0 84.6 35h45.23l-27.73 27.79a24 24 0 0 0 0 33.94 24 24 0 0 0 33.94.06z"/></g></svg>