<svg fill="none" height="24" viewBox="0 0 24 24" width="24" xmlns="http://www.w3.org/2000/svg"><path clip-rule="evenodd" d="m12.62 3.31644c.2687-.1213.5835-.07393.8046.12106l8.221 7.25c.79.6967.79 1.9283 0 2.625l-8.221 7.25c-.2211.195-.5359.2424-.8046.1211s-.4414-.3888-.4414-.6836v-3.7492c-1.9477.0064-3.6132.06-5.12529.4933-1.60984.4613-3.07165 1.3637-4.45331 3.2059-.19369.2583-.53091.3636-.83717.2615-.30626-.102-.51283-.3886-.51283-.7115 0-4.6187 1.52895-7.5939 3.8167-9.3978 2.094-1.65112 4.72219-2.23956 7.1119-2.33705v-3.76514c0-.29481.1727-.56228.4414-.68357zm1.0586 2.34498v2.63859c0 .5234-.4216.94532-.941.95105-2.3615.02605-4.85361.53991-6.74213 2.02904-1.52757 1.2045-2.74062 3.1112-3.12086 6.1271 1.1673-1.069 2.41858-1.7191 3.7655-2.1051 1.88947-.5414 3.94059-.5516 6.08759-.5521.5216-.0001.9509.4221.9509.95v2.6386l6.9749-6.1511c.1128-.0995.1128-.2755 0-.375z" fill="rgb(0,0,0)" fill-rule="evenodd"/></svg>