<svg width="35" height="35" viewBox="0 0 35 35" fill="none" xmlns="http://www.w3.org/2000/svg">
<g clip-path="url(#clip0_1_968)">
<path d="M5.46146 5.85234C4.89305 6.19823 4.24939 7.04691 4.09927 7.68928C3.97664 8.21427 4.01738 8.82198 4.30298 9.29113C4.64881 9.85898 5.37587 10.3818 5.99179 10.5743C6.86801 10.8483 8.04795 10.8119 8.90333 10.4704C9.56367 10.2067 10.0951 9.85051 10.4305 9.20855C10.7804 8.53877 10.6688 7.80049 10.5083 7.09319C10.3549 6.41705 9.99727 5.77502 9.2404 5.7176C8.71534 5.67768 8.18556 5.65881 7.65919 5.6273C7.27509 5.60426 6.88223 5.56967 6.4973 5.60255C6.17054 5.63038 5.84823 5.76511 5.46146 5.85234Z" fill="#FEE2C9"/>
<path d="M18.225 3.87567C17.4668 4.07665 16.6874 4.52494 16.5435 5.37123C16.4872 5.70208 16.4824 6.03602 16.4179 6.36879C16.3965 6.47871 16.3855 6.8017 16.3061 6.88196C16.2015 6.98757 15.9391 6.9551 15.8035 7.04404C15.6611 7.13755 15.4835 7.36683 15.4846 7.54668C15.487 7.96907 16.0191 8.01008 16.2827 8.18775C16.6325 8.42338 16.7491 8.89403 17.039 9.1875C17.3499 9.50215 17.8551 9.70402 18.2678 9.83479C19.4028 10.1944 20.4864 9.95585 21.4801 9.2847C21.9048 8.99794 22.2121 8.39672 22.3606 7.91869C22.5641 7.26381 22.343 6.7732 22.101 6.16269C21.8142 5.43931 21.2434 4.59221 20.588 4.14993C20.2625 3.93029 19.8048 3.72098 19.4153 3.66397C19.0697 3.61317 18.8019 3.78045 18.225 3.87567Z" fill="#FEE2C9"/>
<path d="M24.1551 19.7456C23.8732 20.0365 24.0768 20.4302 24.4155 20.5299C24.6634 20.6027 24.7175 20.5421 24.8963 20.7559C25.0486 20.9379 25.0153 21.0244 25.2424 20.8883C25.4692 20.7526 25.4489 20.5204 25.7083 20.4515C25.9417 20.3895 26.203 20.5166 26.3563 20.2678C26.4009 20.1955 26.368 20.0342 26.4135 19.9425C26.4635 19.8418 26.5774 19.7929 26.6336 19.689C26.7618 19.4519 26.7038 19.125 26.5914 18.8914C26.4651 18.6289 26.1528 18.3423 25.8374 18.544C25.7073 18.6274 25.6375 18.8292 25.5239 18.9413C25.33 19.1329 25.0578 19.3806 24.7764 19.4067" fill="#FEE2C9"/>
<path d="M5.58095 6.0635C5.28318 6.47796 5.32823 7.37298 5.36931 7.87603C5.41429 8.42591 5.61287 9.01482 5.97777 9.43195C6.6457 10.1954 7.68038 9.89446 8.58135 9.95332C8.76414 9.96528 9.289 9.96241 9.25428 10.2349C9.20704 10.6058 8.34921 10.6525 8.0984 10.6716C7.00671 10.7546 5.51936 10.8099 4.74157 9.87539C4.37018 9.42908 4.1545 8.67549 4.12114 8.09608C4.09783 7.69044 4.22307 7.25964 4.44893 6.92044C4.62782 6.65173 5.06443 6.09207 5.58095 6.0635Z" fill="#EFCAAC"/>
<path d="M19.9571 4.97447C19.5674 5.97566 19.7892 7.11506 19.7705 8.14913C19.7628 8.57227 19.6404 9.11052 19.3439 9.43263C19.0415 9.7613 18.6202 9.58056 18.3128 9.83506C18.3771 10.0664 18.5914 10.111 18.6355 10.3532C18.6751 10.5711 18.5131 10.8004 18.5866 11.0196C18.7332 11.4573 19.4233 11.2691 19.7741 11.1976C20.2354 11.1035 20.8519 11.0127 21.2108 10.6691C21.404 10.4841 21.3617 10.276 21.3575 10.0099C21.3492 9.4716 21.789 9.06787 21.9907 8.57931C22.2699 7.90317 22.455 7.16647 22.1532 6.46312C21.9663 6.02747 21.5399 5.53105 21.1915 5.21243C20.7767 4.83304 20.4262 4.59365 19.9571 4.97447Z" fill="#EFCAAC"/>
<path d="M4.63453 1.84589C4.71847 2.03518 4.65237 2.3795 4.63453 2.60516C4.59194 3.14287 4.60274 3.68119 4.60274 4.22041C4.60274 4.43505 4.48571 5.07599 4.60917 5.25468C4.70986 5.40042 4.73714 5.33691 4.89498 5.36938C5.13184 5.41798 5.32953 5.37348 5.56981 5.35482C5.98393 5.32283 6.38787 5.41839 6.8015 5.43514C7.47026 5.46221 8.16308 5.39802 8.82787 5.34101C9.22161 5.30731 10.1767 5.40862 10.4145 5.15084C10.5666 4.98609 10.5119 4.48379 10.5027 4.29157C10.4805 3.82768 10.5528 3.36804 10.5359 2.90587C10.5207 2.49223 10.5411 1.83906 10.1309 1.71895C9.78509 1.61778 9.30111 1.73522 8.94674 1.73659C8.42304 1.73857 7.90229 1.6737 7.3764 1.68648C6.45492 1.70877 5.57139 1.84077 4.63453 1.84589Z" fill="#DB3333"/>
<path d="M5.61895 10.6428C5.16395 11.0939 4.7255 11.4965 4.38043 12.0471C4.0441 12.5836 3.89556 13.2924 3.72753 13.8956C3.53107 14.6008 3.36762 15.3254 3.22844 16.0449C3.13677 16.5186 2.80441 17.0788 2.86088 17.5612C3.00511 17.5597 3.10191 17.6365 3.23473 17.6621C3.54153 17.7209 3.86404 17.6961 4.17494 17.7239C5.12868 17.8091 6.03731 17.6862 6.98613 17.6606C8.35077 17.6237 9.72492 17.7259 11.0813 17.7855C11.4787 17.803 11.9179 17.9297 12.0331 17.5202C12.2921 16.5999 11.7826 15.5145 11.5578 14.6371C11.2385 13.3908 11.2816 11.7404 10.1765 10.884C9.70073 10.5153 9.31334 10.4629 8.7422 10.5722C7.70376 10.771 6.70408 10.5642 5.61895 10.6428Z" fill="#DB3333"/>
<path d="M6.60301 1.65784C6.79066 2.24238 6.72708 2.90539 6.95472 3.51563C7.23526 4.26792 7.78617 4.27503 8.49491 4.30579C8.89091 4.32294 9.36574 4.46288 9.32062 4.9595C9.27393 5.47377 8.80506 5.54144 8.39107 5.57863C7.79553 5.63208 7.20361 5.67317 6.6052 5.62149C6.10064 5.57794 5.54988 5.66114 5.05373 5.57849C4.84229 5.54329 4.63264 5.49065 4.58909 5.29214C4.54801 5.10483 4.73053 4.71642 4.74666 4.50854C4.77366 4.15991 4.81099 3.77676 4.78193 3.42621C4.75514 3.10329 4.45518 2.30615 4.60762 1.99847C4.68028 1.8517 4.96247 1.76817 5.13008 1.72804C5.3625 1.67247 5.57681 1.70419 5.80896 1.70979C6.20093 1.71909 6.52522 1.66502 6.60301 1.65784Z" fill="#BF1B1B"/>
<path d="M5.64003 10.4279C5.45471 10.8907 4.8699 11.3338 4.57308 11.7709C4.20736 12.3095 3.96811 12.8661 3.74847 13.4871C3.48488 14.2324 3.40586 14.9708 3.22313 15.726C3.09544 16.2537 2.77012 16.8376 2.7503 17.3752C2.7289 17.9563 3.67683 17.7436 4.0781 17.7851C4.618 17.8408 4.51956 17.5225 4.53822 17.0021C4.58778 15.6218 4.38366 13.9528 5.34629 12.8154C5.7909 12.2901 6.48699 12.0704 7.13647 11.8923C7.4633 11.8025 8.04127 11.7039 8.01755 11.2348C7.99786 10.8455 7.45612 10.6499 7.15096 10.6016C6.8251 10.5501 6.11635 10.3575 5.64003 10.4279Z" fill="#BF1B1B"/>
<path d="M9.86349 3.21697C9.50488 3.03746 8.93777 3.14293 8.54854 3.18053C7.97487 3.23604 7.38418 3.22271 6.80224 3.21697C6.16726 3.21068 5.35126 2.92918 4.72147 3.18525C4.72106 3.40133 4.6473 3.63895 4.67642 3.85168C4.71771 4.1528 4.66972 4.07227 4.9437 4.13906C5.60029 4.29943 6.43816 4.25418 7.11594 4.25445C7.85333 4.25472 8.57144 4.21781 9.30869 4.25766C9.65732 4.27653 10.0711 4.47156 10.2862 4.13715C10.5627 3.70703 10.4215 3.06049 9.86349 3.21697Z" fill="#FFC94E"/>
<path d="M5.9827 10.3253C5.82096 10.4271 5.3244 10.9306 5.28065 11.1216C5.20983 11.4311 5.53153 11.5278 5.77461 11.6311C6.32046 11.8632 6.95613 11.9415 7.02866 12.5922C7.1839 13.9857 6.98019 15.4386 6.98169 16.8409C6.98217 17.2994 6.8864 17.5313 7.28076 17.7295C7.65913 17.9196 8.2438 18.0411 8.36699 17.6094C8.50651 17.1205 8.365 16.4112 8.365 15.9109C8.365 15.261 8.3326 14.6148 8.32658 13.9667C8.32221 13.4896 8.17367 12.652 8.33315 12.2145C8.47151 12.0657 8.55859 12.1502 8.72833 12.1122C9.01892 12.0472 9.30794 11.9754 9.59553 11.8257C10.0843 11.5711 10.4921 11.4625 10.2092 10.9409C9.90301 10.3764 9.82467 10.3865 9.2873 10.5184C8.43548 10.7276 7.3643 10.6374 5.9827 10.3253Z" fill="#FFC94E"/>
<path d="M6.81997 3.35047C6.88791 3.51884 7.05567 3.93419 7.02258 4.10632C6.98047 4.3252 6.7393 4.28473 6.50524 4.3049C5.90218 4.35699 5.30862 4.30264 4.70904 4.2781C4.6385 4.00487 4.59598 3.41446 4.70481 3.15975C4.91419 3.24465 5.17922 3.21355 5.4074 3.22955C5.84018 3.2601 6.25628 3.30009 6.81997 3.35047Z" fill="#F49D34"/>
<path d="M7.65067 10.8525C7.37033 11.1259 7.08992 11.8656 6.69276 11.979C6.42657 12.0549 5.89562 11.7436 5.62855 11.6392C5.5204 11.597 5.15571 11.4647 5.13431 11.3403C5.11558 11.2316 5.44521 10.9356 5.51261 10.857C5.6738 10.6686 5.65111 10.6768 5.89193 10.677C6.31576 10.6772 6.75845 10.7705 7.65067 10.8525Z" fill="#F49D34"/>
<path d="M10.2797 17.8513C7.97537 17.8513 5.67626 17.8513 3.37557 17.896C2.63237 17.9105 1.80626 17.97 1.16252 18.3872C0.639918 18.7259 0.510857 19.4516 0.576823 20.0277C0.652428 20.6877 0.622555 21.2241 0.557888 21.8994C0.394031 23.6118 0.447215 25.3359 0.47907 27.053C0.497253 28.0329 0.521316 29.094 0.701646 30.0538C0.835766 30.768 1.10469 31.139 1.82225 31.2444C3.26784 31.4566 4.86196 31.1171 6.315 31.0515C7.72203 30.9879 9.08805 30.9752 10.4905 31.0548C11.1032 31.0895 12.5811 31.3791 13.1036 30.9744C13.6749 30.5319 13.4469 29.2075 13.3565 28.6378C13.0616 26.7786 12.8645 24.8767 13.0488 22.9961C13.0976 22.4974 12.9792 21.7642 13.432 21.4552C13.9161 21.1248 14.5627 21.3275 14.9351 20.7488C15.3233 20.1456 15.5136 18.7291 14.8368 18.29C14.353 17.9761 13.523 17.936 12.9649 17.8715C11.9094 17.7494 10.8408 17.8148 10.2797 17.8513Z" fill="#EA8D4E"/>
<path d="M4.14864 17.6722C3.35759 19.4135 4.69749 19.8038 6.16263 19.9098C8.09793 20.0499 10.0045 20.133 11.9428 20.0886C12.7203 20.0708 13.7796 19.8289 14.3799 20.4731C14.9763 21.113 14.1688 21.1157 13.6813 21.1629C12.673 21.2604 11.6555 21.2499 10.6444 21.3038C10.6316 21.346 10.6436 21.3824 10.631 21.4248C9.71585 21.5382 8.61261 21.4754 7.74055 21.8074C6.10835 22.4287 5.09712 25.0543 5.08994 26.6699C5.08112 28.6428 7.85758 28.4094 9.17493 28.9467C9.58761 29.1149 10.216 29.6195 10.2374 30.1184C10.2593 30.63 9.76534 30.7184 9.37337 30.884C7.79777 31.5494 5.98667 31.3227 4.32767 31.115C3.49704 31.0109 2.66142 31.0778 1.82717 31.0184C1.48893 30.9942 1.09853 31.005 0.862833 30.7179C0.647298 30.4553 0.577367 29.8584 0.523295 29.5323C0.220602 27.7062 0.384595 25.9095 0.389449 24.0511C0.391226 23.3722 0.389449 22.6932 0.389449 22.0143C0.389449 21.1916 0.241178 20.178 0.428687 19.3952C0.771985 17.9627 2.67133 17.3461 4.14864 17.6722Z" fill="#CC6D3E"/>
<path d="M6.83375 22.3713C5.88226 22.586 6.35708 23.318 6.60571 23.8358C6.33993 24.0558 5.95062 24.3633 5.77077 24.6548C5.454 25.1685 5.78704 25.1234 6.00743 25.5022C6.51287 26.371 5.33327 27.8119 5.49125 28.7936C5.6277 29.6414 7.12052 29.7122 7.5509 29.0659C8.09928 28.2424 7.91833 27.0212 8.0532 26.0824C8.13154 25.5374 8.35733 24.7125 8.04315 24.2039C7.90938 23.9875 7.73294 23.9553 7.5291 23.8424C7.19195 23.6556 7.13829 23.7827 7.2547 23.4452C7.34733 23.1767 7.57633 23.1455 7.54967 22.7962C7.52684 22.4969 7.36182 22.2151 6.83375 22.3713Z" fill="#FFC94E"/>
<path d="M6.43099 22.595C6.16903 22.893 6.37985 23.2142 6.42969 23.537C6.47508 23.8311 6.49647 23.8336 6.32455 24.0997C6.17293 24.3345 5.89991 24.5211 5.76961 24.753C5.54088 25.16 5.69913 25.0563 5.86019 25.3574C6.21025 26.0118 5.84228 26.8674 5.71992 27.5963C5.67596 27.8581 5.42652 28.931 5.67036 29.1196C6.1086 29.4587 6.85679 27.8776 6.93513 27.6172C7.28376 26.4584 7.36866 24.9314 7.13836 23.7364C7.08538 23.4616 6.88441 22.411 6.43099 22.595Z" fill="#F49D34"/>
<path d="M18.0643 30.852C17.3418 30.5979 16.1494 30.7754 15.3806 30.7669C14.346 30.7556 13.307 30.7544 12.2758 30.7999C10.7215 30.8685 9.16636 31.1544 7.61379 31.1504C6.14948 31.1467 4.69918 31.2206 3.23862 31.2285C2.48996 31.2324 1.73541 30.922 0.989686 31.1074C0.276567 31.2848 0.749815 32.3677 1.00056 32.7599C1.41809 33.4134 2.68341 33.2655 3.35271 33.3154C7.16085 33.5996 11.0382 33.0205 14.857 33.0263C18.4854 33.0317 22.144 32.8273 25.769 32.986C27.001 33.0399 28.2382 32.9574 29.4693 33.0228C30.1735 33.0602 31.1998 33.3258 31.8891 33.1562C32.5089 33.0037 32.7234 32.0011 32.4637 31.4587C32.3069 31.1311 32.1795 31.164 31.8218 31.1505C31.0078 31.1197 30.2447 30.9847 29.4361 30.9032C27.3083 30.6886 25.1303 30.7142 22.9988 30.7998C22.1292 30.8347 21.2582 30.8657 20.3884 30.8912C19.5889 30.9146 18.5867 31.2187 18.0643 30.852Z" fill="#AA4130"/>
<path d="M0.518585 31.8841C1.23464 31.8467 1.98297 32.0915 2.71687 32.0906C4.08849 32.089 5.44979 32.1423 6.82127 32.0867C9.47735 31.9791 12.1747 31.9152 14.8322 31.9249C17.9359 31.9364 21.013 31.9668 24.1141 31.7601C26.3764 31.6093 28.6018 31.8011 30.8558 31.8014C31.5239 31.8016 32.4402 31.6794 32.2709 32.628C32.1936 33.0609 31.8574 33.1048 31.5119 33.1743C30.3941 33.3992 29.3355 33.3223 28.2021 33.2682C25.1975 33.1248 22.2056 32.8937 19.1944 32.8767C17.7987 32.8688 16.4016 32.7638 15.0055 32.7487C13.6189 32.7338 12.1941 32.8658 10.8062 32.9261C8.36167 33.0323 5.89959 33.0946 3.45125 33.0823C2.60209 33.0781 0.80788 33.2575 0.518585 31.8841Z" fill="#93332A"/>
<path d="M18.6397 11.5284C18.5702 13.2126 17.9637 14.9165 17.7295 16.5874C17.5912 17.5742 17.2616 18.6743 17.4625 19.6677C17.6785 20.7356 18.7533 20.4804 19.6294 20.5634C20.5199 20.6476 21.3748 20.6617 22.2601 20.6191C23.2181 20.5729 23.508 20.3888 23.5629 19.4115C23.903 19.3898 24.0878 19.6879 24.4536 19.6143C24.8088 19.543 25.5674 19.06 25.7773 18.7679C26.2334 18.1331 25.6541 16.8876 25.2462 16.325C24.5848 15.4125 23.9272 14.4366 23.185 13.5927C22.8877 13.2547 22.5881 12.8674 22.3916 12.4603C22.1588 11.9779 22.0635 11.3245 21.7196 10.8946C21.3502 10.4325 21.2495 10.6345 20.7947 10.8959C20.193 11.2417 19.4154 11.1128 18.6397 11.5284Z" fill="#118ACB"/>
<path d="M20.1725 11.1585C20.2768 12.9003 21.9759 13.7974 22.9619 15.0814C23.567 15.8693 24.0644 16.7705 24.3388 17.7295C24.4449 18.1006 24.2511 19.0254 24.5632 19.2935C24.8637 19.5518 25.6617 19.0321 25.8725 18.7744C26.2442 18.3204 25.9449 17.6421 25.6702 17.1954C24.8738 15.9001 24.108 14.5933 23.0293 13.5135C22.3978 12.8813 22.4194 12.2916 22.0353 11.5418C21.4858 10.4689 21.0478 10.7096 20.1725 11.1585Z" fill="#1372BF"/>
<path d="M20.2253 14.2769C21.1215 15.6124 21.0517 17.2134 20.6945 18.7184C20.6028 19.1051 20.0594 20.3081 20.3828 20.623C20.608 20.8424 21.387 20.7123 21.6909 20.7276C22.033 20.7448 22.589 20.8138 22.8695 20.6217C23.056 20.4938 23.4606 19.7954 23.5046 19.5924C23.6322 19.0036 23.0855 17.9847 22.8034 17.4507C22.5353 16.9431 22.2727 16.2877 21.8665 15.8743C21.4025 15.4021 20.9214 15.0994 20.2253 14.2769Z" fill="#1372BF"/>
<path d="M18.1112 20.3548C17.6188 21.6627 17.3165 22.9197 17.0477 24.2673C16.8646 25.1854 16.734 26.0572 16.3818 26.9495C16.0987 27.6668 15.4598 28.2534 16.2497 28.771C16.7824 29.1201 17.9232 29.4404 18.559 29.3939C19.198 29.3471 19.1254 28.5026 19.2858 27.8557C19.3621 27.548 19.8373 25.6103 20.3323 25.6352C20.9102 25.6642 21.3127 27.7757 21.454 28.19C21.5837 28.5703 21.6503 29.1019 21.9979 29.2893C22.3184 29.4622 23.3111 29.5312 23.6725 29.5007C25.3158 29.3621 24.4452 27.545 24.0506 26.5866C23.546 25.3611 23.4793 24.1585 23.3501 22.8634C23.3042 22.4023 23.4329 20.8436 23.0535 20.5638C22.9161 20.4625 22.5129 20.566 22.3354 20.5727C21.8883 20.5893 21.4196 20.583 20.9712 20.566C20.4515 20.5465 18.2275 20.5799 18.1112 20.3548Z" fill="#777673"/>
<path d="M17.107 29.1811C17.6572 27.9904 18.4217 26.8719 19.0534 25.7173C19.7087 24.5195 20.2061 23.23 20.742 21.9761C21.057 21.239 21.7322 20.1431 22.7059 20.6397C23.3806 20.9838 23.1762 21.8811 23.2423 22.5169C23.3284 23.3433 23.5299 24.167 23.7662 24.9659C24.0702 25.9936 24.3536 27.0222 24.4916 28.0854C24.539 28.4514 24.7425 28.8826 24.4547 29.1825C24.0016 29.6547 23.1694 29.5623 22.9779 28.9911C22.8463 28.5985 22.8886 28.1016 22.8214 27.6852C22.7155 27.0291 22.4941 26.3973 22.3539 25.7489C22.2834 25.4227 22.0937 23.914 21.7195 23.7735C21.1035 23.5422 20.1187 26.5442 19.9384 26.9847C19.653 27.6823 19.4056 28.9379 18.8246 29.4582C18.3811 29.8554 17.5208 29.2038 17.107 29.1811Z" fill="#636260"/>
<path d="M18.3755 29.3397C17.6339 29.0916 16.8246 29.125 16.0764 28.8377C15.546 28.6339 14.6426 28.2799 14.425 29.1311C14.2019 30.0043 17.1331 30.7049 17.847 30.6597C18.1933 30.6377 18.4565 30.5343 18.6807 30.1823C18.9688 29.7298 18.7724 29.6446 18.3755 29.3397Z" fill="#4D4B49"/>
<path d="M24.5063 29.3397C23.5425 29.3397 21.1297 29.0847 20.5999 30.1061C20.1211 31.0291 21.2882 30.8196 21.8639 30.8196C22.4699 30.8196 23.0479 30.8312 23.6448 30.9122C23.9557 30.9544 24.5678 31.1653 24.8775 31.0204C25.6089 30.6781 25.0416 28.8953 24.5063 29.3397Z" fill="#4D4B49"/>
<path d="M28.4702 20.9363C27.6135 21.2943 26.9132 21.9997 26.1244 22.4908C25.6593 22.7803 25.1138 22.9782 25.0877 23.5761C25.06 24.2092 25.5964 24.8885 25.8924 25.4246C26.2991 26.1608 26.7589 26.8416 27.2216 27.5392C27.6088 28.1229 27.925 28.8028 28.3778 29.3277C28.8621 29.8894 29.2155 29.6932 29.8162 29.3661C30.5813 28.9495 31.6901 28.5275 32.2032 27.7827C32.5587 27.2668 32.3583 26.9229 32.105 26.4208C31.5983 25.4165 31.0281 24.3955 30.4257 23.4454C30.1337 22.9847 29.2194 21.1103 28.4702 20.9363Z" fill="#FFC94E"/>
<path d="M25.3163 23.2652C25.2551 22.6555 24.9176 22.3773 24.6062 21.8631C24.3313 21.4092 23.8957 20.7154 24.5988 20.4657C24.7521 20.8872 25.1171 21.1563 25.3399 21.5172C25.7677 22.2097 25.728 22.4315 26.5696 22.1129C27.2827 21.843 27.8082 21.8896 28.0342 22.7419C28.3488 23.9285 28.2354 25.2992 28.9191 26.376C29.302 26.9789 30.176 27.3515 30.4682 27.9655C30.9375 28.9519 29.717 29.6798 28.893 29.5512C27.8304 29.3856 27.2742 28.3397 26.8306 27.4075C26.4599 26.6287 26.1359 25.7971 25.772 25.0048C25.4855 24.3811 25.3763 23.9602 25.3188 23.2912C25.3179 23.2825 25.3171 23.2738 25.3163 23.2652Z" fill="#F49D34"/>
<path d="M26.9108 18.8649C26.7693 18.9054 26.6187 19.3821 26.6742 19.5729C26.7167 19.7192 26.9233 19.8447 27.0114 19.9516C27.2353 20.223 27.4774 20.5593 27.6311 20.8784C27.758 21.1417 27.9549 21.6012 28.304 21.1483C28.6041 20.7589 28.0788 20.0259 27.8799 19.6991C27.754 19.492 27.6492 19.2056 27.4737 19.0422C27.3206 18.8996 27.0367 18.898 26.9108 18.8649Z" fill="#F49D34"/>
<path d="M30.6782 29.0439C30.9744 29.5616 31.1042 30.2733 30.3882 30.4939C29.8668 30.6546 29.4697 30.2995 29.3052 29.8418C29.6085 29.5765 29.9871 29.3062 30.3884 29.225C30.7099 29.16 30.377 29.1479 30.6782 29.0439Z" fill="#F49D34"/>
<path d="M27.4747 4.48202C27.1692 4.99163 26.5529 5.36678 26.1488 5.79751C25.7382 6.23521 25.4177 6.74059 25.0411 7.21035C24.6323 7.72052 23.7673 8.43733 23.9278 9.07969C24.1396 9.9281 25.2008 10.8441 25.7694 11.4949C26.3073 12.1107 26.8264 13.1039 27.5367 13.5241C28.3737 14.0192 28.4654 12.5255 28.559 11.9532C28.6074 11.6571 28.5734 10.8315 28.7879 10.6624C29.0459 10.459 30.1111 10.5415 30.456 10.4796C31.1986 10.3464 31.961 10.4456 32.7056 10.4712C33.0641 10.4835 34.0497 10.5703 34.3252 10.3128C34.6601 9.99974 34.6019 7.85464 34.23 7.60711C34.0975 7.51892 33.3826 7.64573 33.1981 7.64573C32.5813 7.6458 31.9741 7.59945 31.359 7.59713C30.7333 7.5948 29.4426 7.81909 28.8889 7.49951C28.3495 7.18821 28.6722 6.38718 28.6427 5.85001C28.6197 5.43159 28.3932 4.22013 27.4747 4.48202Z" fill="#7CC366"/>
<path d="M26.1119 12.3181C25.6514 11.5574 25.2215 10.766 24.7469 10.0184C24.4293 9.51822 23.8553 8.52223 24.9007 8.61732C25.3621 8.65936 25.7821 8.99541 26.2336 9.12467C26.7404 9.26973 27.2909 9.27862 27.8131 9.30234C29.2268 9.36646 30.6427 9.19768 32.0476 9.13014C32.6057 9.10328 33.5439 8.83442 34.0714 8.95795C34.5495 9.06992 34.587 9.83506 34.2423 10.1788C33.951 10.4694 33.351 10.3368 33.0012 10.3227C32.4222 10.2994 31.8517 10.321 31.2724 10.3225C30.8163 10.3237 29.1438 10.1283 28.8351 10.4642C28.6016 10.7181 28.6428 11.9788 28.5808 12.3175C28.5069 12.7212 28.5648 13.105 28.2559 13.4019C28.0216 13.6271 27.7696 13.6451 27.4988 13.5406C27.192 13.4223 27.1252 13.2259 26.9283 12.9617C26.7421 12.7121 26.3315 12.4604 26.1119 12.3181Z" fill="#5BA53F"/>
<path d="M6.45169 8.0686C6.54049 8.04378 6.62369 7.9958 6.68664 7.93106C6.82247 7.79154 6.84729 7.59494 6.76245 7.42227C6.68507 7.2647 6.52197 7.12231 6.33904 7.12053C5.93524 7.11657 5.74165 7.66658 5.9699 7.9621C6.09062 8.11843 6.29016 8.14687 6.45169 8.0686Z" fill="black"/>
<path d="M8.71752 8.03927C8.86668 8.13463 9.05166 8.1358 9.20129 8.04098C9.30356 7.97625 9.37308 7.87508 9.40029 7.76406C9.41348 7.73699 9.42476 7.70889 9.43255 7.67943C9.47268 7.52617 9.43118 7.35739 9.31648 7.24652C9.17108 7.1059 8.96149 7.09038 8.78355 7.17214C8.47327 7.31487 8.4259 7.85279 8.71752 8.03927Z" fill="black"/>
<path d="M7.72859 8.76155C7.88493 8.7675 8.13383 8.69723 8.16814 8.51963C8.19289 8.39125 8.08645 8.25337 7.94584 8.29726C7.85977 8.32419 7.78048 8.39159 7.70043 8.36138C7.62975 8.33465 7.58449 8.28994 7.50116 8.29617C7.42823 8.30157 7.34585 8.35407 7.3449 8.43528C7.34271 8.62818 7.55756 8.75499 7.72859 8.76155Z" fill="black"/>
<path d="M6.69635 9.20698C6.68706 9.21662 6.67865 9.22694 6.67113 9.23794C6.34082 9.97431 8.62694 10.3108 8.79791 9.31662C8.82204 9.17635 8.71718 9.0598 8.57212 9.09084C8.47061 9.11251 8.42932 9.1501 8.35351 9.21614C8.19075 9.35791 8.05266 9.43072 7.82988 9.46913C7.42075 9.53988 7.2234 9.37507 6.90608 9.17998C6.84305 9.14122 6.74728 9.15188 6.69635 9.20698Z" fill="black"/>
<path d="M5.66694 29.5608C6.15106 29.7931 6.71891 29.9239 7.18984 29.6251C7.73561 29.2789 7.89927 28.6324 8.03339 28.0327C8.20415 27.2697 8.26464 26.4877 8.3261 25.7108C8.36506 25.2176 8.4849 24.5036 8.15971 24.0766C8.02655 23.9017 7.83542 23.7699 7.62077 23.6846C7.64832 23.6579 7.67491 23.6311 7.7002 23.605C8.14413 23.1462 7.82947 22.428 7.31124 22.2004C7.08901 22.1027 6.80067 22.1703 6.58213 22.2634C6.29994 22.3836 6.09213 22.5506 6.00969 22.843C5.93873 23.0948 5.96204 23.3543 6.10389 23.5843C6.14634 23.6531 6.19686 23.7278 6.25517 23.7942C5.83873 24.044 5.43732 24.4777 5.43705 24.9461C5.39521 25.0865 5.39679 25.2268 5.47588 25.374C5.52407 25.4635 5.59954 25.5121 5.66133 25.5861C5.81514 25.7701 5.77679 25.9167 5.70385 26.1516C5.59462 26.5033 5.44573 26.8486 5.36951 27.21C5.3043 27.5194 5.27483 27.8307 5.21939 28.1405C5.1174 28.7111 5.07721 29.2777 5.66694 29.5608ZM6.49463 22.9954C6.53059 22.754 6.87129 22.6441 7.07732 22.6499C7.12722 22.6513 7.2072 22.7016 7.27556 22.7866C7.38425 22.9219 7.44728 23.076 7.32861 23.2334C7.27556 23.3038 7.08607 23.4659 7.00418 23.4868C6.91025 23.5108 6.72602 23.4599 6.61323 23.4353C6.52348 23.3061 6.47002 23.1607 6.49463 22.9954ZM5.86094 28.1682C5.93538 27.5992 6.05713 27.057 6.16459 26.4931C6.21586 26.2244 6.29762 25.9265 6.26597 25.6534C6.25715 25.5771 6.23958 25.502 6.20533 25.4326C6.11209 25.2433 5.93491 25.2675 6.02459 25.0126C6.07156 24.8793 6.18175 24.7737 6.28108 24.6801C6.51883 24.4563 6.81872 24.1454 7.17159 24.2022C7.45514 24.2478 7.64278 24.3921 7.6931 24.6535C7.7471 24.9339 7.73842 25.1775 7.71326 25.4596C7.65324 26.1341 7.61688 26.8103 7.5006 27.4789C7.44099 27.8214 7.38268 28.2096 7.24131 28.5287C7.13351 28.772 7.02749 29.0995 6.72889 29.1722C6.51965 29.2232 6.17929 29.1114 5.99588 29.0271C5.82827 28.95 5.82546 28.9332 5.78903 28.7691C5.74562 28.5729 5.83606 28.3587 5.86094 28.1682Z" fill="black"/>
<path d="M17.4999 6.05256C17.3599 6.13315 17.2583 6.30289 17.2556 6.46374C17.2539 6.56423 17.3033 6.65555 17.3785 6.71653C17.4275 6.80717 17.5023 6.88134 17.6063 6.91094C17.8815 6.98935 18.0885 6.72036 18.1017 6.47235C18.1085 6.34514 18.0686 6.2076 17.9797 6.11401C17.8555 5.98324 17.6546 5.96369 17.4999 6.05256Z" fill="black"/>
<path d="M32.3308 30.5699C31.8687 30.5079 31.3768 30.5166 30.9042 30.5116C31.099 30.3386 31.1949 30.127 31.2647 29.8337C31.3238 29.5851 31.2675 29.2873 31.1203 29.0658C31.7488 28.6765 32.4935 28.2129 32.6744 27.5007C32.7986 27.0113 32.6133 26.494 32.4688 26.0325C32.3185 25.5528 32.0686 25.1131 31.7826 24.6966C31.472 24.2444 31.1612 23.7922 30.8685 23.3273C30.5606 22.8383 30.3418 22.2982 30.0166 21.8213C29.739 21.4142 29.5555 20.9366 29.1304 20.673C28.9106 20.5368 28.715 20.5438 28.5263 20.607C28.5105 20.4503 28.4608 20.2914 28.4027 20.13C28.3323 19.9345 28.1938 19.7662 28.0832 19.5893C27.9183 19.3257 27.7714 19.0504 27.5749 18.808C27.2599 18.4193 27.0137 18.4781 26.6889 18.6432C26.5854 18.5153 26.4598 18.4127 26.3187 18.3539C26.2781 18.337 26.2347 18.3387 26.1932 18.3503C26.2186 18.2488 26.2354 18.1435 26.2401 18.0324C26.2589 17.5993 26.0365 17.2223 25.8642 16.8415C25.672 16.417 25.4526 16.0694 25.193 15.6836C24.9614 15.3397 24.7955 14.9576 24.538 14.6287C24.3232 14.3542 24.0819 14.1048 23.8691 13.8188C23.6709 13.5525 23.4387 13.2994 23.1924 13.0674C23.1748 12.8457 23.0598 12.6415 22.9666 12.4256C22.8297 12.1083 22.6717 11.793 22.4874 11.5014C22.3169 11.2318 22.1399 10.9627 22.01 10.6696C21.9222 10.4716 21.8261 10.3058 21.6545 10.1956C21.6576 10.053 21.643 9.90841 21.6166 9.76978C21.6142 9.75713 21.6105 9.74462 21.6056 9.73204C22.649 8.76381 22.9472 7.10891 22.68 5.75575C22.4159 4.41844 21.2376 3.47256 19.9313 3.2262C19.4275 3.13111 18.971 3.16638 18.4979 3.34111C18.0454 3.50818 17.6749 3.75242 17.2707 4.00849C16.9993 4.18048 16.8031 4.40532 16.6625 4.68073C16.5007 4.87672 16.3687 5.0969 16.2752 5.33848C16.1708 5.6085 16.08 5.90436 16.0663 6.1944C16.0598 6.33126 16.0646 6.47399 16.0657 6.61098C16.0658 6.62062 16.0599 6.69527 16.0588 6.76103C15.5681 6.96084 15.0277 7.48816 15.3401 8.01487C15.4974 8.2801 15.762 8.29637 16.0372 8.32248C16.4554 8.36206 16.5631 8.98406 16.7988 9.29154C17.1242 9.71598 17.5956 9.99345 18.089 10.181C18.2253 10.2328 18.3107 10.233 18.374 10.3642C18.4345 10.4893 18.4591 10.6478 18.4772 10.7844C18.5193 11.103 18.4724 11.3876 18.3722 11.6852C18.2613 12.0142 18.2461 12.3794 18.1622 12.7169C18.0109 13.3256 17.8449 13.9334 17.704 14.5443C17.433 15.7183 17.247 16.9188 17.0666 18.106C16.9907 18.6053 16.8765 19.3013 17.0831 19.7756C17.2489 20.1564 17.5424 20.4377 17.9133 20.5972C17.8217 20.8025 17.7178 21.0007 17.6487 21.2219C17.5242 21.6209 17.3565 22.0018 17.1965 22.3875C16.8777 23.1561 16.6878 23.9834 16.5216 24.798C16.3514 25.6331 16.1805 26.4901 15.929 27.3044C15.8335 27.6138 15.6741 27.9182 15.6065 28.233C15.5968 28.2783 15.5928 28.3172 15.5915 28.3539C15.586 28.3528 15.581 28.3513 15.5754 28.3503C15.1038 28.2602 14.4661 28.4657 14.3161 28.9726C14.1597 29.5009 14.545 30.0234 14.9862 30.2675C15.1856 30.3778 15.3894 30.4667 15.5964 30.5447C15.1831 30.5477 14.7733 30.5373 14.3653 30.5783C14.1214 30.6028 13.8759 30.6044 13.63 30.6025C13.6341 30.5878 13.6385 30.5734 13.6415 30.558C13.7353 30.0937 13.6166 29.5201 13.5941 29.0503C13.5379 27.8789 13.4521 26.6988 13.5515 25.5264C13.6107 24.8288 13.597 24.1389 13.6062 23.437C13.6141 22.8286 13.6586 22.2471 13.5495 21.6613C14.186 21.6622 14.9218 21.6423 15.226 21.0709C15.3837 20.7749 15.3473 20.3955 15.3998 20.0725C15.4683 19.6508 15.5435 19.1883 15.4806 18.7622C15.4259 18.3919 15.218 18.1163 14.9047 17.916C14.467 17.6363 13.8927 17.7216 13.4013 17.6789C13.0653 17.6498 12.7272 17.632 12.3881 17.6185C12.4701 16.9823 12.2056 16.2595 12.1269 15.6392C12.0271 14.8519 11.8169 14.0549 11.6593 13.2761C11.5262 12.6184 11.4688 11.9275 11.0995 11.3493C10.9256 11.0772 10.699 10.7991 10.4028 10.6582C10.2566 10.5887 10.1332 10.5482 10.0028 10.4614C10.1014 10.3889 10.1952 10.3106 10.281 10.223C10.6767 9.81859 10.9425 9.19454 11.0737 8.65143C11.3243 7.61429 11.3947 6.10533 10.5855 5.27423C10.6152 5.17223 10.6303 5.0606 10.6452 4.94768C10.7049 4.49165 10.6742 4.0167 10.6755 3.55644C10.677 3.09556 10.666 2.63229 10.6945 2.17504C10.7131 1.87823 10.6069 1.66673 10.3251 1.53609C10.009 1.38946 9.56729 1.37401 9.2231 1.3747C8.73953 1.37545 8.25548 1.33409 7.77451 1.33744C7.33783 1.34052 6.88147 1.30996 6.44794 1.3548C5.9522 1.40594 5.40936 1.30429 4.92272 1.40259C4.12319 1.56426 4.35014 2.7321 4.3496 3.31048C4.34912 3.84594 4.34925 4.38146 4.3498 4.91691C4.35007 5.14318 4.35999 5.3929 4.4939 5.57514C4.45111 5.60344 4.40695 5.64097 4.35452 5.70222C4.17986 5.90648 4.06522 6.13705 4.00623 6.4016C3.88284 6.95497 3.81688 7.53984 3.8002 8.1064C3.7868 8.56311 3.93603 9.16405 4.145 9.57099C4.39369 10.0552 4.85689 10.4357 5.33868 10.6817C5.29493 10.721 5.25262 10.7619 5.21112 10.7988C4.94603 11.0343 4.65188 11.2628 4.40948 11.5218C3.91723 12.0478 3.72944 12.9183 3.57967 13.6029C3.39729 14.4368 3.1648 15.2673 2.93416 16.0892C2.82266 16.4866 2.69695 16.8738 2.60733 17.2771C2.58245 17.3891 2.5709 17.4939 2.58423 17.5883C2.51074 17.6002 2.43705 17.6105 2.36247 17.6153C2.10291 17.6319 1.86537 17.6526 1.60806 17.7051C1.23927 17.7803 0.843813 17.8921 0.582272 18.1805C0.289901 18.5028 0.169385 19.0023 0.115518 19.4212C0.051944 19.9156 0.0887211 20.4278 0.0884477 20.9255C0.0881059 21.5181 0.077647 22.1113 0.0867387 22.7036C0.102119 23.7085 0.000538193 24.7096 5.9681e-05 25.7165C-0.00048719 26.784 -0.0024696 27.8266 0.129395 28.8869C0.183261 29.3199 0.199394 29.7286 0.302069 30.1522C0.338846 30.3039 0.354227 30.4558 0.380203 30.6025C0.376512 31.3666 0.209238 32.1641 0.513708 32.8619C0.667994 33.2155 0.911078 33.3281 1.28398 33.3902C1.78204 33.4729 2.29719 33.4954 2.80024 33.5374C3.28081 33.5775 3.76602 33.5317 4.24508 33.5024C4.78805 33.4692 5.34025 33.4993 5.88425 33.501C6.97628 33.5045 8.08582 33.4473 9.17559 33.5073C9.69047 33.5356 10.1438 33.5629 10.6581 33.5156C11.2149 33.4643 11.7928 33.5151 12.352 33.5159C13.414 33.5173 14.4733 33.4781 15.5356 33.4787C16.5352 33.4796 17.5286 33.4193 18.5289 33.4327C19.0759 33.44 19.623 33.4396 20.1701 33.4392C20.6811 33.439 21.1854 33.4925 21.6957 33.4887C22.7944 33.4805 23.8921 33.5706 24.9915 33.5715C26.1053 33.5724 27.2178 33.5302 28.3328 33.531C29.2635 33.5317 30.1893 33.6425 31.1167 33.668C31.6061 33.6814 32.0247 33.6297 32.4309 33.3343C32.7444 33.1063 32.8645 32.6755 32.9377 32.312C33.0041 31.982 33.0014 31.6115 32.9887 31.2743C32.9727 30.8471 32.7448 30.6254 32.3308 30.5699ZM28.5314 21.3835C28.6307 21.3332 28.7285 21.3022 28.808 21.3277C28.9134 21.3615 28.9715 21.5688 29.0239 21.6577C29.1074 21.799 29.1995 21.9351 29.2945 22.0689C29.5454 22.4224 29.7181 22.8064 29.9339 23.1795C30.3202 23.8474 30.7602 24.4765 31.1885 25.1164C31.5657 25.6798 32.0385 26.4766 31.9918 27.1886C31.9517 27.7996 31.1105 28.1919 30.6698 28.4963C30.3645 28.707 30.0494 28.9192 29.7187 29.0884C29.4743 29.2134 28.9098 29.5027 28.6443 29.3193C28.4346 29.1746 28.2826 28.7584 28.1539 28.5427C27.9314 28.1693 27.6823 27.8132 27.4597 27.4405C26.8068 26.3467 26.3243 25.2898 25.7769 24.1445C25.6424 23.863 25.414 23.5937 25.6537 23.281C25.7251 23.1881 25.8189 23.1017 25.9214 23.0204C26.1471 22.918 26.3287 22.7781 26.5419 22.6259C26.7439 22.4819 27.0243 22.331 27.2498 22.1855C27.5367 22.0003 27.8254 21.7393 28.1372 21.6132C28.2366 21.5731 28.3857 21.4575 28.5314 21.3835ZM30.3854 30.1964C30.1887 30.2974 29.9909 30.2666 29.7976 30.1635C29.6966 30.1095 29.6286 30.0283 29.5648 29.9416C29.9425 29.7988 30.3097 29.5813 30.5977 29.398C30.7215 29.6892 30.7343 30.0173 30.3854 30.1964ZM25.5275 30.0692C25.5224 29.7972 25.3934 29.4005 25.1852 29.1436C25.2115 29.0728 25.2182 28.9952 25.1948 28.9241C24.97 28.2413 24.6723 27.5898 24.4841 26.8934C24.2705 26.1034 24.0752 25.3163 23.9049 24.5151C23.7301 23.6926 23.6451 22.8559 23.5616 22.0205C23.526 21.6632 23.4579 21.3133 23.4455 20.9543C23.443 20.8815 23.4385 20.8077 23.4283 20.7354C23.4458 20.695 23.4603 20.6537 23.4696 20.6111C23.6208 20.4974 23.765 20.339 23.8533 20.1642C23.8542 20.2046 23.8586 20.2451 23.8679 20.2851C23.9118 20.4737 24.0149 20.536 24.1487 20.572C23.955 20.8242 23.9718 21.0734 24.1627 21.4273C24.326 21.7302 24.5126 22.0192 24.6855 22.3166C24.8041 22.5203 24.8919 22.7733 25.0884 22.9177C25.1002 22.9265 25.1124 22.933 25.1245 22.9405C24.9959 23.1173 24.9184 23.3145 24.9074 23.5664C24.8875 24.0239 25.1564 24.4012 25.336 24.8019C25.7201 25.659 26.1587 26.4526 26.5951 27.2803C26.8247 27.7155 27.0822 28.1223 27.3387 28.5423C27.5915 28.9561 27.8097 29.5601 28.1884 29.8747C28.4503 30.0921 28.7776 30.1287 29.1187 30.0683C29.1566 30.2216 29.2384 30.3553 29.3489 30.4647C29.306 30.4636 29.2632 30.4622 29.2203 30.4615C27.9933 30.4411 26.7666 30.4725 25.5401 30.5032C25.5561 30.3611 25.53 30.2033 25.5275 30.0692ZM19.1865 29.7384C19.2807 29.6647 19.3615 29.558 19.4234 29.4061C19.7036 28.7191 19.9536 28.0089 20.2555 27.3301C20.4079 26.9872 20.5271 26.6278 20.6457 26.2677C20.9033 27.278 21.305 28.26 21.3517 29.308C21.245 29.3446 21.1496 29.385 21.078 29.4224C20.6469 29.6472 20.332 30.0651 20.317 30.5483C19.8787 30.5481 19.4404 30.5479 19.0022 30.5478C18.9431 30.5478 18.8839 30.5471 18.8246 30.5464C19.0405 30.3155 19.238 30.0009 19.1865 29.7384ZM21.0276 25.2194C21.0613 25.1416 21.0954 25.0642 21.1327 24.9882C21.3248 24.5966 21.5793 24.2255 21.8249 23.8662C22.0641 23.5163 22.2443 23.1138 22.4386 22.7355C22.6091 22.4033 22.8222 22.1196 22.9427 21.7637C22.9504 21.741 22.9595 21.7189 22.9677 21.6963C22.9758 21.9657 22.9946 22.2369 23.0149 22.5013C23.0758 23.2927 23.1235 24.0586 23.2633 24.8424C23.3984 25.6004 23.5787 26.3452 23.7781 27.0881C23.8626 27.403 23.9704 27.711 24.0835 28.0167C24.1691 28.2481 24.3184 28.47 24.3429 28.7205C24.3698 28.9949 24.0337 29.0768 23.7994 29.0788C23.3323 29.0827 22.8392 29.0764 22.3909 29.1077C22.2986 29.114 22.0212 29.1189 21.954 29.0628C21.8709 28.9935 21.897 28.7988 21.8819 28.7033C21.8542 28.5274 21.8258 28.3516 21.7942 28.1763C21.7342 27.8439 21.6631 27.5131 21.5666 27.1892C21.4628 26.8409 21.4028 26.4835 21.3115 26.134C21.2678 25.9667 21.2292 25.7994 21.1871 25.6314C21.1512 25.4879 21.0783 25.3566 21.0276 25.2194ZM21.6112 29.7791C21.8058 29.7326 22.0068 29.7343 22.2299 29.7221C22.8138 29.69 23.3976 29.6579 23.9816 29.6258C24.1371 29.6173 24.5954 29.526 24.7327 29.6297C24.8335 29.7059 24.8312 30.0528 24.8261 30.1768C24.8202 30.3216 24.8432 30.4256 24.8745 30.5191C24.1629 30.5358 23.4514 30.5495 22.74 30.5492C22.1147 30.549 21.4893 30.5487 20.8639 30.5484C20.7925 30.278 21.0822 30.0436 21.2803 29.9179C21.3904 29.8481 21.4997 29.8057 21.6112 29.7791ZM24.5089 20.6999C24.6393 20.833 24.6757 21.0782 24.889 21.1767C24.8948 21.1794 24.9004 21.1811 24.9061 21.1836C24.9697 21.3576 25.0588 21.5164 25.1561 21.6908C25.2552 21.8685 25.3806 22.0288 25.4761 22.2083C25.5298 22.3092 25.5742 22.4084 25.6306 22.503C25.6018 22.5178 25.5735 22.5334 25.5456 22.5496C25.5324 22.553 25.5192 22.5569 25.506 22.5595C25.21 22.6161 25.0167 22.032 24.8754 21.8003C24.6972 21.5075 24.3119 21.0452 24.5089 20.6999ZM27.0383 18.9765C27.262 18.989 27.4024 19.3177 27.5126 19.4998C27.6582 19.7406 27.8613 19.9956 27.9631 20.2506C28.0054 20.3566 28.0659 20.5218 28.0804 20.6388C28.0895 20.7132 28.0773 20.7776 28.052 20.836C27.9985 20.8636 27.9445 20.89 27.8894 20.9132C27.8809 20.9168 27.8724 20.9214 27.8639 20.9251C27.7254 20.6998 27.607 20.438 27.4941 20.2077C27.3592 19.9328 27.1868 19.7341 27.0036 19.4932C26.9965 19.4838 26.9885 19.4759 26.9803 19.4683C26.9812 19.314 26.9514 19.1551 26.8946 19.0058C26.9408 18.9865 26.988 18.9737 27.0383 18.9765ZM26.837 19.966C26.8435 19.9565 26.8481 19.9459 26.8541 19.9362C26.9278 20.0865 27.014 20.227 27.0832 20.3808C27.1929 20.6248 27.3155 20.903 27.4578 21.1422C27.1272 21.3483 26.8085 21.6103 26.5309 21.8476C26.351 22.0013 26.1706 22.1421 25.9977 22.2908C25.7694 21.9404 25.5773 21.5644 25.3417 21.2168C25.3319 21.2024 25.3206 21.1847 25.3083 21.1654C25.4157 21.1039 25.5105 21.0037 25.6068 20.9021C25.807 20.6911 26.1825 20.7661 26.4078 20.5345C26.5007 20.439 26.4862 20.2994 26.5536 20.2115C26.6226 20.1217 26.7619 20.0753 26.837 19.966ZM25.8124 19.0943C25.8957 18.9856 25.9688 18.8748 26.031 18.7601C26.1531 18.875 26.2944 19.0391 26.3602 19.1933C26.3901 19.2635 26.4237 19.4385 26.4176 19.5085C26.4021 19.6865 26.343 19.6693 26.2296 19.7724C26.1005 19.89 26.1203 20.0042 26.0407 20.1315C25.8997 20.3571 25.657 20.2434 25.455 20.3425C25.3163 20.4106 25.1954 20.7257 25.0465 20.623C24.9349 20.546 24.9236 20.3378 24.7807 20.2499C24.6548 20.1725 24.531 20.2079 24.4025 20.1696C24.3652 20.1703 24.3279 20.1704 24.2906 20.17C24.2906 20.0576 24.3197 19.9568 24.3776 19.8677C24.3793 19.8638 24.381 19.8606 24.3827 19.8569C24.9385 19.7931 25.4979 19.5051 25.8124 19.0943ZM22.7941 13.6466C23.2032 14.0564 23.5091 14.5549 23.9181 14.9523C24.2508 15.2756 24.472 15.8292 24.7592 16.2297C24.9321 16.4708 25.0828 16.7046 25.1995 16.9774C25.3277 17.2769 25.5302 17.5768 25.5814 17.902C25.6836 18.5512 25.1218 19.1255 24.5209 19.2346C24.3813 19.26 24.1784 19.2958 24.0321 19.2634C23.8312 19.219 23.8093 19.0779 23.7797 18.9032C23.7235 18.5719 23.6335 18.2689 23.4997 17.9597C23.2757 17.4421 22.9906 16.9531 22.6215 16.5236C22.2468 16.0875 21.8903 15.6177 21.5028 15.1942C21.291 14.9628 21.1264 14.6818 20.9291 14.433C20.8339 14.313 20.7107 14.2074 20.5968 14.0956C20.596 14.0942 20.595 14.0931 20.5942 14.0917C20.5291 13.9886 20.5007 13.891 20.4475 13.7939C20.4244 13.6204 20.4063 13.5616 20.481 13.3803C20.5977 13.0967 20.8546 12.9911 21.1437 12.9551C21.8251 12.8705 22.3269 13.1786 22.7941 13.6466ZM17.8742 9.45936C17.8404 9.44254 17.8083 9.42484 17.776 9.40707C17.8035 9.40201 17.8308 9.39626 17.8576 9.3895C18.2607 9.28785 18.5183 9.06459 18.777 8.7623C18.9175 8.59831 18.7855 8.34121 18.5631 8.39488C18.4553 8.42092 18.3928 8.47711 18.3117 8.54896C18.1882 8.65847 18.0721 8.74788 17.9216 8.82383C17.7616 8.90456 17.5988 8.95993 17.416 8.94182C17.3171 8.93204 17.238 8.90818 17.1557 8.89506C17.1021 8.82766 17.051 8.75595 17.0034 8.67713C16.8351 8.39925 16.7734 8.08446 16.4428 7.95177C16.2968 7.89305 16.1217 7.92238 15.9838 7.86803C15.6544 7.73815 15.9878 7.52863 16.1504 7.43799C16.4538 7.2688 16.7094 7.31016 16.7275 6.88538C16.7464 6.44132 16.6998 6.05844 16.8554 5.62552C17.0285 5.1438 17.3644 4.8504 17.7792 4.57662C18.0993 4.36526 18.461 4.18568 18.8201 4.0491C18.9324 4.00637 19.0522 3.99072 19.1658 3.95955C18.9702 4.19019 18.8468 4.49521 18.8404 4.79113C18.8365 4.9716 18.8871 5.1533 18.9573 5.31804C19.0271 5.4817 19.2831 5.67084 19.3053 5.82964C19.309 5.85534 19.3042 5.88556 19.294 5.91878C19.2616 5.97149 19.2368 6.02672 19.2203 6.08325C19.1644 6.18887 19.0993 6.29783 19.084 6.37562C19.0351 6.62459 19.0979 6.88688 19.2435 7.09414C19.6452 7.66631 20.2901 6.82481 20.7547 6.79562C21.3845 6.75618 21.488 7.69782 20.8946 7.76686C20.6519 7.79503 20.5068 7.6849 20.2942 7.60239C20.0852 7.52132 19.9051 7.83871 20.0737 7.98103C20.3895 8.24743 20.8324 8.35297 21.2245 8.17244C21.45 8.06846 21.6032 7.85922 21.6788 7.62461C21.8218 7.7065 21.9606 7.69488 22.0784 7.62953C22.0634 7.69782 22.0475 7.76577 22.0299 7.83262C21.8242 8.61239 21.2873 9.36113 20.5269 9.68973C19.7075 10.044 18.6425 9.84258 17.8742 9.45936ZM18.8752 10.4156C19.5711 10.5694 20.3737 10.494 21.0085 10.16C21.0132 10.4792 20.8184 10.6584 20.4642 10.7778C20.1416 10.8866 19.7666 10.9842 19.4315 11.0434C19.3842 11.0518 19.0235 11.1149 18.9605 11.0738C18.8599 11.0084 18.9204 10.8636 18.9193 10.7794C18.9176 10.6494 18.9128 10.5266 18.8752 10.4156ZM17.7587 18.7147C17.7911 18.2185 17.8745 17.7295 17.9319 17.2367C18.0519 16.2051 18.2661 15.1547 18.5091 14.145C18.7039 13.3359 18.8955 12.491 18.9556 11.6523C19.1933 11.6786 19.4579 11.6306 19.6524 11.5868C20.1793 11.4684 20.8179 11.3797 21.2635 11.0503C21.3327 10.9991 21.3904 10.9409 21.4392 10.8779C21.4528 10.9149 21.466 10.9507 21.4779 10.9842C21.5712 11.2479 21.7294 11.5062 21.8668 11.7477C21.9956 11.9741 22.1284 12.1984 22.2445 12.4326C21.7622 12.2469 21.2175 12.2061 20.7303 12.3669C19.9925 12.6106 19.7195 13.4098 19.9271 14.0311C20.0137 14.2902 20.2466 14.5525 20.4637 14.787C20.5572 14.8881 20.6418 14.9921 20.7244 15.0987C20.8712 15.3228 21.0244 15.5348 21.1879 15.7536C21.4157 16.0584 21.6157 16.3907 21.8615 16.6813C22.1434 17.0146 22.4409 17.3506 22.6346 17.7488C22.8521 18.1954 22.9807 18.6345 23.0846 19.1168C23.1285 19.3209 23.219 19.492 23.3562 19.6191C23.2027 19.7742 23.125 19.9806 22.9057 20.0857C22.6828 20.1926 22.4399 20.2562 22.197 20.2983C21.9886 20.3344 21.797 20.3028 21.5899 20.3232C21.0491 20.3765 20.5078 20.3428 19.9673 20.3046C19.3612 20.2618 18.7493 20.1606 18.196 19.8988C17.7129 19.6704 17.7278 19.1885 17.7587 18.7147ZM16.1638 28.1246C16.2375 27.9993 16.3384 27.8832 16.3987 27.7525C16.4752 27.5866 16.5204 27.3954 16.5779 27.2218C16.6977 26.86 16.8113 26.4963 16.9189 26.1307C17.1072 25.4911 17.2768 24.8459 17.4274 24.1962C17.4909 23.9222 17.4966 23.6431 17.5586 23.364C17.6304 23.0412 17.7125 22.7204 17.8114 22.4048C17.9275 22.0337 18.0408 21.6596 18.1309 21.2815C18.172 21.109 18.2423 20.9193 18.2794 20.7318C18.6711 20.863 19.0578 20.9611 19.4787 21.0115C19.8671 21.0581 20.2533 21.1264 20.6288 21.0791C20.6497 21.0803 20.6705 21.0815 20.6907 21.083C21.1266 21.1135 21.5994 21.1019 22.0324 21.047C22.2089 21.0247 22.3941 20.9981 22.5778 20.9604C22.5138 21.0894 22.4516 21.2191 22.3952 21.3516C22.269 21.6481 22.1357 21.8958 21.9733 22.1727C21.8185 22.4363 21.6562 22.7124 21.5168 22.983C21.345 23.3165 21.1559 23.6116 20.9519 23.9295C20.1992 25.1023 19.8089 26.5057 19.3224 27.8032C19.1934 28.147 19.0125 28.4672 18.8836 28.8098C18.8521 28.8938 18.8376 29.0632 18.7807 29.1269C18.6879 29.2309 18.5029 29.1369 18.3548 29.115C18.0264 29.0665 17.6962 29.0649 17.3791 28.9562C17.0706 28.8504 16.7714 28.7179 16.462 28.6153C16.3584 28.5809 16.0442 28.4935 16.0284 28.3792C16.0181 28.3062 16.128 28.1855 16.1638 28.1246ZM15.2502 29.6954C15.0335 29.6033 14.6781 29.5122 14.8006 29.2C14.8904 28.9711 15.1521 28.8804 15.3785 28.8856C15.6157 28.8912 15.8429 28.965 16.0656 29.0403C16.2624 29.1069 16.4388 29.209 16.6286 29.2716C17.112 29.4313 17.6124 29.5517 18.1022 29.6911C18.1926 29.7169 18.2865 29.7444 18.3565 29.8071C18.5178 29.9512 18.3951 30.1059 18.2638 30.2117C17.6662 30.6927 16.9161 30.2463 16.281 30.056C15.9263 29.9499 15.593 29.841 15.2502 29.6954ZM10.4159 11.5664C10.4207 11.573 10.4256 11.5792 10.4303 11.586C10.8057 12.1368 10.8474 12.8294 10.9713 13.4656C11.1114 14.1848 11.2879 14.9125 11.3984 15.6362C11.4541 16.001 11.5275 16.3635 11.5815 16.7279C11.6239 17.0137 11.6282 17.3104 11.6849 17.5944C11.3075 17.5826 10.9302 17.5706 10.5546 17.5489C10.5006 17.5457 10.4465 17.5437 10.3924 17.541C10.3497 17.1785 10.2714 16.8032 10.2073 16.4508C10.1365 16.0623 10.0911 15.6753 9.97908 15.2978C9.92446 15.1135 9.6379 15.1449 9.63975 15.3437C9.64638 16.0686 9.70941 16.7915 9.72424 17.5159C9.35627 17.506 8.98802 17.5001 8.62011 17.4891C8.66249 17.2121 8.57882 16.8869 8.57486 16.6265C8.56788 16.174 8.50684 15.7298 8.51456 15.2733C8.52297 14.7787 8.51149 14.2834 8.50745 13.7887C8.50424 13.3892 8.54751 12.9098 8.46555 12.4957C8.82812 12.4557 9.17812 12.3583 9.5299 12.2023C9.86492 12.0539 10.2324 11.8745 10.4159 11.5664ZM7.30311 16.9555C7.27016 16.6929 7.28205 16.4267 7.28103 16.1621C7.2772 15.1599 7.18587 14.1448 7.29894 13.147C7.32464 12.9201 7.34159 12.6836 7.33701 12.4497C7.48617 12.4741 7.63397 12.4925 7.77752 12.5041C7.87568 12.5121 7.97193 12.5149 8.06743 12.5153C7.9964 12.9005 8.03188 13.3377 8.02894 13.708C8.02477 14.2296 8.0288 14.7519 8.01158 15.2733C7.99716 15.7089 8.0474 16.1317 8.0515 16.5629C8.05403 16.8262 8.01684 17.1769 8.0757 17.4676C7.88799 17.4582 7.56444 17.4978 7.39375 17.4202C7.24617 17.353 7.32006 17.0908 7.30311 16.9555ZM7.5762 11.9645C7.12736 11.9068 6.58602 11.7838 6.17464 11.594C5.9818 11.5049 5.71746 11.3693 5.57055 11.2294C5.5508 11.2106 5.5335 11.1927 5.51703 11.1752C5.575 11.1177 5.6318 11.0596 5.68615 10.9994C5.71705 10.9652 5.7582 10.9244 5.79662 10.8797C6.76321 11.237 7.87978 11.2854 8.85506 10.9965C9.06704 10.9337 9.28025 10.8568 9.48499 10.7623C9.54282 10.8356 9.61049 10.9022 9.67037 10.9595C9.77619 11.0607 9.89035 11.1335 10.0027 11.2064C9.93369 11.2961 9.87217 11.39 9.77312 11.4638C9.56162 11.6217 9.30028 11.7352 9.0546 11.8272C8.57506 12.0071 8.08103 12.0296 7.5762 11.9645ZM5.0165 2.02636C5.11474 1.94454 5.45926 2.01153 5.58108 2.01105C5.79286 2.01016 6.0086 2.02103 6.21996 2.00948C6.5703 1.99034 6.9121 1.96737 7.2651 1.96566C7.62439 1.96402 7.96865 1.97024 8.32623 1.99731C8.70159 2.02575 9.07996 1.96443 9.45299 2.00271C9.60824 2.0187 9.77606 2.03272 9.92939 2.0589C10.1128 2.09028 10.0548 2.05623 10.0731 2.17183C10.1113 2.4119 10.0938 2.69163 10.0787 2.95953C9.61801 2.93471 9.14709 2.96103 8.6886 2.96062C8.20175 2.96007 7.70957 3.01907 7.22641 3.00417C6.77579 2.99008 6.32783 3.07984 5.87653 3.04156C5.59913 3.01804 5.26731 2.95317 4.96544 2.97081C4.93994 2.66627 4.891 2.13088 5.0165 2.02636ZM6.28873 4.52248C6.84948 4.52631 7.41043 4.52064 7.97118 4.51961C8.49009 4.51872 9.00907 4.51674 9.52798 4.51565C9.68712 4.51537 9.88632 4.52604 10.0719 4.50211C10.0753 4.65059 10.0754 4.79332 10.053 4.94125C10.039 5.03306 10.0259 5.08262 10.0023 5.10805C9.64871 5.03388 9.27321 5.0645 8.90496 5.09642C8.56604 5.10326 8.22684 5.12138 7.88799 5.13806C7.33243 5.14352 6.7764 5.14612 6.22208 5.19069C5.8565 5.22015 5.49529 5.2071 5.13285 5.17025C4.94104 5.15077 4.99101 5.17408 4.9761 5.00469C4.96052 4.82825 4.97111 4.64286 4.97528 4.46267C5.37641 4.59207 5.88849 4.51968 6.28873 4.52248ZM4.9772 3.36141C5.26595 3.40591 5.56994 3.40577 5.85035 3.43161C6.31334 3.47441 6.76588 3.38698 7.22634 3.40113C7.684 3.41514 8.1498 3.35505 8.61102 3.3545C9.09015 3.35396 9.58322 3.38199 10.0649 3.35635C10.0651 3.59417 10.0651 3.83199 10.0667 4.06988C9.79602 4.07822 9.52197 4.11411 9.25284 4.11425C8.76599 4.11466 8.2792 4.11295 7.79235 4.11213C7.56581 4.09346 7.33872 4.0733 7.11034 4.07214C6.71433 4.07015 6.3279 4.02319 5.93272 4.02654C5.65477 4.02886 5.2831 3.97233 4.97713 4.01465C4.97727 3.79692 4.97727 3.57913 4.9772 3.36141ZM4.48994 8.637C4.46314 8.52243 4.4453 8.40793 4.43334 8.2935C4.74464 8.19486 5.09594 7.81594 5.23853 7.64279C5.4687 7.36327 5.60193 7.06331 5.73065 6.7276C5.8163 6.50407 5.94092 6.24198 5.84864 6.00608C6.31607 6.34691 6.8395 6.38294 7.43969 6.38027C7.80117 6.37863 8.13934 6.39668 8.49064 6.30398C8.67398 6.25572 8.86114 6.23187 9.0358 6.15496C9.16377 6.09857 9.27936 6.02734 9.40337 5.96821C9.35845 6.189 9.37568 6.41732 9.4774 6.62001C9.53085 6.83438 9.62184 7.04041 9.73108 7.21733C9.91865 7.52104 10.1373 7.84404 10.5071 7.90276C10.4805 8.14058 10.4363 8.37567 10.3734 8.60118C10.2007 9.21962 9.85939 9.82433 9.26255 10.1082C8.69968 10.3758 8.0852 10.5118 7.46573 10.4889C6.82227 10.4651 6.1486 10.3687 5.57377 10.0645C4.9638 9.74195 4.64436 9.29721 4.48994 8.637ZM3.34137 17.1976C3.43215 16.8127 3.56914 16.4413 3.6561 16.0548C3.82754 15.2926 4.03918 14.5366 4.17535 13.7671C4.30161 13.0534 4.40298 12.2251 4.94869 11.7056C5.02778 11.6303 5.10899 11.556 5.19041 11.4818C5.38694 11.7492 5.67801 11.927 5.99575 12.0649C6.28941 12.1923 6.61788 12.296 6.95079 12.3728C6.83581 13.1898 6.78016 14.0116 6.77545 14.8389C6.77223 15.3952 6.76793 15.9513 6.76601 16.5077C6.76512 16.7664 6.7358 17.1197 6.81892 17.3957C6.54104 17.391 6.26282 17.3945 5.98378 17.3949C5.84194 17.3951 5.69845 17.3914 5.55456 17.3874C5.54464 16.9759 5.52769 16.5661 5.57411 16.1557C5.60029 15.9243 5.68533 15.6272 5.6277 15.4001C5.60254 15.3011 5.43288 15.2897 5.41565 15.4001C5.42276 15.3541 5.35365 15.5299 5.33882 15.567C5.25979 15.7646 5.21488 15.9888 5.17182 16.1967C5.0904 16.5904 5.06805 16.9809 5.05937 17.3787C4.87487 17.3795 4.69125 17.3871 4.51072 17.4095C4.09954 17.4605 3.68788 17.49 3.27534 17.5106C3.30111 17.4033 3.31868 17.2937 3.34137 17.1976ZM0.94471 19.0789C1.09148 18.6223 1.35377 18.5063 1.79838 18.3948C1.988 18.3473 2.16881 18.3203 2.36254 18.3067C2.618 18.2886 2.87783 18.2236 3.13158 18.2165C3.53647 18.2049 3.94457 18.1784 4.34843 18.1389C4.79769 18.0951 5.23204 18.0968 5.68464 18.0975C6.62123 18.099 7.5438 18.1329 8.47649 18.1956C9.35257 18.2545 10.2365 18.2498 11.1147 18.2739C11.5318 18.2853 11.9529 18.35 12.3705 18.3736C12.8255 18.3993 13.2855 18.3852 13.7405 18.4012C14.1627 18.4161 14.7224 18.4393 14.7701 18.9554C14.8074 19.3581 14.6946 19.7908 14.6432 20.1885C14.5979 20.5391 14.6675 20.7964 14.2427 20.8861C13.861 20.9669 13.4065 20.9054 13.0122 20.9319C10.895 21.0741 8.76264 20.9931 6.64167 21.026C5.63201 21.0417 4.62201 20.8813 3.60975 20.8919C2.68308 20.9017 1.75709 20.9691 0.830483 20.9788C0.830483 20.8533 0.830688 20.7278 0.830551 20.6023C0.830278 20.0916 0.786255 19.5718 0.94471 19.0789ZM0.830141 22.0569C0.830141 21.9443 0.830141 21.8317 0.830209 21.7191C1.75702 21.7095 2.6828 21.642 3.60968 21.6322C4.6218 21.6216 5.63235 21.7853 6.6416 21.7664C8.7517 21.7268 10.8702 21.8102 12.977 21.6715C12.9564 21.9039 12.9539 22.1385 12.9468 22.3719C12.9353 22.7521 12.8884 23.1272 12.8746 23.5061C12.8603 23.897 12.8665 24.2813 12.8323 24.6708C12.802 25.0169 12.7669 25.3732 12.7666 25.7203C12.7661 26.4152 12.6891 27.1074 12.7221 27.8048C12.7537 28.4723 12.8085 29.1389 12.8493 29.8054C12.8577 29.9427 12.8638 30.0992 12.8543 30.2361C12.8434 30.2927 12.8418 30.3271 12.8492 30.3401C12.7981 30.3616 12.7445 30.375 12.6881 30.3796C12.5387 30.4209 12.3861 30.4514 12.2353 30.4851C12.0633 30.5236 11.8883 30.6084 11.7146 30.6309C11.3805 30.6743 11.0018 30.6334 10.6647 30.6272C10.3509 30.6213 10.0552 30.6654 9.74646 30.6933C9.67871 30.6994 9.61124 30.7058 9.54377 30.7122C9.0842 30.705 8.61758 30.6847 8.1604 30.7168C7.73596 30.7466 7.30988 30.7137 6.8868 30.7487C6.49907 30.7808 6.11893 30.8313 5.72846 30.8248C4.80842 30.8097 3.88763 30.772 2.96827 30.7624C2.55299 30.7581 2.11686 30.8017 1.70431 30.7698C1.5771 30.7599 1.27126 30.7313 1.17446 30.6354C1.0681 30.53 1.08095 30.2872 1.06147 30.1521C0.936439 29.2854 0.768481 28.4141 0.748452 27.5299C0.707164 25.7014 0.829184 23.8818 0.830141 22.0569ZM32.2103 31.474C32.2077 31.6679 32.1886 31.8418 32.16 32.0349C32.1001 32.4387 32.0216 32.8127 31.5488 32.888C31.1325 32.9542 30.6619 32.863 30.2418 32.8524C29.7958 32.8412 29.352 32.7906 28.9068 32.7703C27.9179 32.7252 26.895 32.7407 25.9079 32.8035C24.8832 32.8686 23.8277 32.8153 22.8031 32.7636C18.9093 32.567 15.0137 32.8218 11.1167 32.7818C10.5944 32.7765 10.0892 32.877 9.56579 32.8239C8.9902 32.7656 8.41825 32.7916 7.84068 32.7941C6.69184 32.7993 5.53357 32.7571 4.38583 32.8053C3.88106 32.8265 3.37473 32.8952 2.86785 32.8617C2.6085 32.8446 2.34798 32.8203 2.08897 32.7993C1.85019 32.78 1.57559 32.7939 1.34454 32.7249C0.945873 32.606 0.984974 31.9102 0.984769 31.5523C0.984769 31.4977 0.983675 31.4429 0.982513 31.3881C1.25458 31.4975 1.57935 31.5274 1.84281 31.5258C2.40561 31.5225 2.96752 31.4912 3.53073 31.5151C5.55825 31.6009 7.6056 31.5146 9.62997 31.4744C10.5173 31.4568 11.4046 31.4398 12.2919 31.4228C13.2619 31.4042 14.2208 31.3473 15.1933 31.3287C16.3051 31.3075 17.4206 31.2917 18.5285 31.2913C19.0545 31.2911 19.5806 31.2908 20.1066 31.2906C22.1379 31.2898 24.1631 31.2466 26.1928 31.252C26.7005 31.2533 27.2049 31.1909 27.7142 31.1951C28.216 31.1993 28.7184 31.1913 29.2201 31.2002C29.6685 31.2081 30.1143 31.2431 30.564 31.2496C30.8544 31.2539 31.145 31.2525 31.4354 31.2593C31.6202 31.2634 32.2243 31.2037 32.2103 31.474Z" fill="black"/>
<path d="M34.9862 8.46378C34.9838 8.40718 34.9648 8.35947 34.9359 8.31872C34.9068 8.16833 34.866 8.01781 34.8087 7.86632C34.617 7.35985 33.9754 7.32308 33.399 7.34837C32.691 7.37947 31.9996 7.41857 31.2879 7.41837C30.9544 7.41837 30.6356 7.41488 30.3037 7.39082C30.1289 7.37804 29.9555 7.35493 29.781 7.34311C29.639 7.33347 29.3295 7.36922 29.2096 7.28302C29.0217 7.14815 29.0967 6.75741 29.0959 6.58302C29.0946 6.27739 29.1263 5.95945 29.0781 5.65601C29.0027 5.18078 28.8208 4.67028 28.4477 4.28446C27.5569 3.36298 26.4882 5.07127 26.0597 5.52182C25.6716 5.92999 25.2953 6.39025 24.9954 6.84436C24.7917 7.05894 24.5996 7.28097 24.4051 7.50149C24.1537 7.78648 23.9347 8.08289 23.7144 8.38271C23.5343 8.62771 23.3616 8.90627 23.4587 9.1959C23.5479 9.46216 23.7949 9.70777 23.9846 9.93452C24.2268 10.224 24.4335 10.5341 24.6666 10.8289C24.7778 10.9695 24.8944 11.1087 25.0147 11.2452C25.3114 11.6898 25.6799 12.1392 26.0598 12.5387C26.4883 12.9892 27.557 14.6976 28.4479 13.7761C28.821 13.3901 29.0028 12.8797 29.0783 12.4045C29.1265 12.1011 29.0947 11.7831 29.096 11.4774C29.0967 11.3031 29.0219 10.9123 29.2097 10.7775C29.3296 10.6913 29.6391 10.727 29.7811 10.7174C29.9556 10.7055 30.129 10.6824 30.3038 10.6697C30.6356 10.6457 30.9546 10.6421 31.288 10.6421C31.9997 10.642 32.6911 10.681 33.3991 10.7122C33.9755 10.7375 34.6172 10.7007 34.8089 10.1941C34.8661 10.0426 34.907 9.89214 34.9361 9.74175C34.9649 9.70101 34.984 9.65329 34.9863 9.59669C34.9943 9.40522 35.0012 9.21696 34.9998 9.03034C35.0012 8.84351 34.9942 8.65525 34.9862 8.46378ZM34.1866 9.36851C34.1775 9.55014 34.1585 9.99468 33.9345 10.0766C33.7056 10.1602 33.2676 10.0714 33.0239 10.0535C32.7006 10.0298 32.3849 10.0133 32.0597 10.0131C31.4461 10.0126 30.8404 10.0109 30.2294 10.0432C29.7638 10.0678 29.0207 10.0377 28.6544 10.3011C28.2688 10.5785 28.2854 11.1046 28.295 11.4772C28.3081 11.9915 28.3412 12.4935 28.1732 12.9974C28.1225 13.1493 27.9678 13.506 27.7317 13.4126C27.5371 13.3357 27.3424 13.0085 27.2156 12.8705C26.9051 12.5329 26.5919 12.1876 26.2902 11.8466C26.1347 11.6708 26.0271 11.4287 25.8955 11.2335C25.7677 11.0441 25.6328 10.8596 25.4856 10.685C25.2455 10.3998 25.0289 10.1008 24.8106 9.80573C24.6499 9.58835 24.4461 9.39168 24.3125 9.16193C24.1542 8.88979 24.4126 8.67364 24.5819 8.43336C24.7283 8.22562 24.8814 8.02177 25.0373 7.81875C25.1698 7.66993 25.2906 7.51243 25.4123 7.35951C25.5565 7.1785 25.6498 6.98764 25.8118 6.81497C25.9641 6.65261 26.1101 6.48028 26.2496 6.31102C26.5627 5.93115 26.8781 5.55627 27.2155 5.18953C27.3423 5.05165 27.537 4.72435 27.7315 4.64744C27.9676 4.55407 28.1224 4.9109 28.1731 5.06266C28.3411 5.56653 28.3081 6.06856 28.2949 6.58282C28.2853 6.95544 28.2687 7.48167 28.6542 7.75893C29.0205 8.02239 29.7636 7.99231 30.2293 8.01692C30.8402 8.04925 31.4459 8.04754 32.0596 8.047C32.3847 8.04672 32.7005 8.03018 33.0238 8.00653C33.2675 7.98862 33.7055 7.89996 33.9343 7.98356C34.1584 8.06539 34.1774 8.50992 34.1865 8.69155C34.1921 8.80557 34.1944 8.91789 34.1951 9.02986C34.1945 9.14217 34.1923 9.25449 34.1866 9.36851Z" fill="black"/>
</g>
<defs>
<clipPath id="clip0_1_968">
<rect width="35" height="35" fill="white"/>
</clipPath>
</defs>
</svg>
