<svg id="Layer_1" enable-background="new 0 0 512 512" height="512" viewBox="0 0 512 512" width="512" xmlns="http://www.w3.org/2000/svg"><g clip-rule="evenodd" fill-rule="evenodd"><g><g><ellipse cx="448.45" cy="392.168" fill="#8ac9fe" rx="56.5" ry="56.5" transform="matrix(.707 -.707 .707 .707 -145.957 431.965)"/><path d="m448.45 335.668c31.204 0 56.5 25.296 56.5 56.5s-25.296 56.5-56.5 56.5c-1.685 0-3.353-.078-5-.223 28.862-2.532 51.5-26.758 51.5-56.277s-22.638-53.745-51.5-56.277c1.647-.144 3.314-.223 5-.223z" fill="#60b7ff"/></g><g><ellipse cx="63.55" cy="392.168" fill="#fe646f" rx="56.5" ry="56.5" transform="matrix(.707 -.707 .707 .707 -258.691 159.8)"/><path d="m63.55 335.668c31.204 0 56.5 25.296 56.5 56.5s-25.296 56.5-56.5 56.5c-1.686 0-3.353-.078-5-.223 28.862-2.532 51.5-26.758 51.5-56.277s-22.638-53.745-51.5-56.277c1.647-.144 3.314-.223 5-.223z" fill="#fd4755"/></g><g><ellipse cx="256" cy="58.835" fill="#6cf5c2" rx="56.5" ry="56.5" transform="matrix(.957 -.29 .29 .957 -6.065 76.71)"/><path d="m256 2.335c31.204 0 56.5 25.296 56.5 56.5s-25.296 56.5-56.5 56.5c-1.686 0-3.353-.078-5-.223 28.862-2.532 51.5-26.758 51.5-56.277s-22.638-53.745-51.5-56.277c1.647-.145 3.314-.223 5-.223z" fill="#00e499"/></g><g><circle cx="256" cy="281.057" fill="#837683" r="112.5"/><path d="m348.499 281.057c0 23.013-6.91 44.412-18.768 62.236-4.576 6.879-9.89 13.225-15.827 18.926-17.962 17.246-41.638 28.587-67.905 30.9 3.295.29 6.631.439 10.001.439 5.466 0 10.842-.39 16.1-1.143.679-.097 1.355-.201 2.03-.31 53.512-8.669 94.371-55.086 94.371-111.047 0-62.132-50.368-112.5-112.5-112.5-3.37 0-6.706.148-10 .439 57.446 5.058 102.498 53.298 102.498 112.06z" fill="#685e68"/><path d="m256 291.906c-40.525 0-73.889 30.707-78.115 70.11 20.235 19.528 47.772 31.54 78.114 31.54 5.466 0 10.842-.39 16.1-1.144 23.926-3.43 45.42-14.39 62.01-30.4-4.219-39.41-37.578-70.106-78.109-70.106z" fill="#8ac9fe"/><path d="m246.001 292.537c46.764 5.943 65.61 41.327 69.942 83.732 6.541-4.128 12.627-8.91 18.165-14.256-4.218-39.412-37.577-70.107-78.109-70.107-3.386 0-6.723.215-9.998.631z" fill="#60b7ff"/><circle cx="256.001" cy="246.246" fill="#f6dccd" r="39.721"/><path d="m285.721 246.246c0 20.244-15.144 36.95-34.721 39.409 1.638.206 3.307.312 5 .312 21.937 0 39.721-17.784 39.721-39.721s-17.784-39.721-39.721-39.721c-1.693 0-3.362.106-5 .312 19.577 2.459 34.721 19.166 34.721 39.409z" fill="#f1cbbc"/></g></g><path d="m360.499 281.783c0 23.985-8.138 46.117-21.787 63.775-7.973-25.948-27.66-46.376-52.693-55.585 10.79-8.761 17.701-22.122 17.701-37.063 0-26.321-21.409-47.72-47.72-47.72s-47.72 21.4-47.72 47.72c0 14.941 6.911 28.302 17.701 37.063-25.028 9.209-44.72 29.637-52.688 55.585-13.653-17.659-21.791-39.79-21.791-63.775 0-57.623 46.881-104.504 104.499-104.504 57.622 0 104.498 46.881 104.498 104.504zm-136.217-28.873c0 17.489 14.229 31.723 31.718 31.723s31.723-14.234 31.723-31.723-14.234-31.718-31.723-31.718-31.718 14.229-31.718 31.718zm-37.893 106.74c18.494 16.55 42.903 26.632 69.611 26.632 26.712 0 51.113-10.082 69.611-26.641-5.548-33.911-34.789-59.01-69.611-59.01-34.817-.001-64.058 25.098-69.611 59.019zm-50.886-77.867c0 66.436 54.047 120.497 120.497 120.497 66.441 0 120.502-54.061 120.502-120.497 0-66.45-54.061-120.502-120.502-120.502-66.45 0-120.497 54.052-120.497 120.502zm312.969 154.658c-24.042 0-43.583-19.532-43.583-43.55 0-24.023 19.541-43.56 43.583-43.56 24.014 0 43.545 19.536 43.545 43.56 0 24.019-19.532 43.55-43.545 43.55zm29.911-95.002c5.19-19.376 7.831-39.417 7.831-59.657 0-44.022-12.455-86.822-36.044-123.752-22.957-35.94-55.33-64.789-93.62-83.401-3.968-1.93-8.761-.278-10.69 3.689-1.93 3.982-.278 8.761 3.689 10.7 74.433 36.19 120.672 110.052 120.672 192.764 0 18.126-2.265 36.077-6.746 53.476-4.812-1.25-9.813-1.93-15.003-1.93-32.859 0-59.581 26.722-59.581 59.562s26.722 59.548 59.581 59.548c32.836 0 59.539-26.707 59.539-59.548-.001-21.932-11.937-41.109-29.628-51.451zm-458.39 51.452c0-24.023 19.536-43.56 43.559-43.56 24.018 0 43.55 19.536 43.55 43.56 0 24.018-19.532 43.55-43.55 43.55-24.023 0-43.559-19.531-43.559-43.55zm356.16 66.257c-35.511 24.113-77.06 36.851-120.153 36.851-56.821 0-109.769-21.73-150.04-61.35 10.591-10.757 17.14-25.509 17.14-41.757 0-32.84-26.707-59.562-59.548-59.562s-59.562 26.721-59.562 59.561 26.722 59.548 59.562 59.548c10.78 0 20.9-2.887 29.628-7.917 20.282 20.306 43.824 36.459 70.073 48.027 29.288 12.908 60.487 19.452 92.747 19.452 46.301 0 90.964-13.701 129.14-39.611 3.651-2.481 4.6-7.449 2.123-11.11-2.481-3.651-7.464-4.609-11.11-2.132zm-120.153-443.147c24.018 0 43.55 19.541 43.55 43.56 0 24.009-19.532 43.55-43.55 43.55s-43.559-19.541-43.559-43.55c0-24.019 19.541-43.56 43.559-43.56zm-221.66 289.692c.193 0 .382-.014.571-.024 4.411-.307 7.733-4.138 7.421-8.539-.368-5.19-.552-10.36-.552-15.347 0-97.083 64.063-180.814 156.81-206.432 6.94 25.188 30.043 43.757 57.411 43.757 32.841 0 59.553-26.717 59.553-59.548 0-32.84-26.712-59.562-59.553-59.562-32.77 0-59.449 26.613-59.548 59.359-47.041 12.592-89.51 40.295-120.181 78.533-32.562 40.62-50.49 91.719-50.49 143.893 0 5.369.203 10.908.59 16.47.301 4.217 3.811 7.44 7.968 7.44z"/></g></svg>