<svg width="27" height="35" viewBox="0 0 27 35" fill="none" xmlns="http://www.w3.org/2000/svg">
<g clip-path="url(#clip0_1_947)">
<path d="M2.93332 23.6181H24.0668V32.2537H2.93332V23.6181Z" fill="#FE7D43"/>
<path d="M15.928 32.2537H11.0719V26.5907C11.0719 26.1803 11.4042 25.8476 11.8141 25.8476H15.1857C15.5957 25.8476 15.9279 26.1804 15.9279 26.5907V32.2537H15.928Z" fill="#FEAD8A"/>
<path d="M20.6336 21.3887H6.36652L7.86428 11.4013C8.28354 8.60903 10.6798 6.54348 13.5 6.54348C16.3211 6.54348 18.7159 8.60903 19.1358 11.4013L20.6336 21.3887Z" fill="#FE7D43"/>
<path d="M19.1358 11.4013C18.9258 10.0052 18.2219 8.79055 17.2181 7.92496C16.5821 7.37691 15.8253 6.9694 14.9976 6.7439C15.0726 6.80223 15.1464 6.86189 15.2184 6.92389C16.2223 7.78948 16.9262 9.00411 17.1361 10.4003L18.2633 17.9183C18.4584 19.2183 17.4529 20.3876 16.1399 20.3876H6.51676L6.36652 21.3887H20.6336L19.1358 11.4013Z" fill="#FD6930"/>
<path d="M19.0664 11.033H7.93356C8.11353 10.2047 8.46881 9.44926 8.9574 8.8039H18.0426C18.5312 9.44926 18.8865 10.2047 19.0664 11.033Z" fill="#FEDF30"/>
<path d="M19.0665 11.033H17.2308L17.1361 10.4003C17.0508 9.83434 16.8835 9.2991 16.6489 8.8039H18.0426C18.5312 9.44926 18.8865 10.2047 19.0665 11.033Z" fill="#FED402"/>
<path d="M16.6316 21.3887H10.3686L11.4817 11.033H15.5184L16.6316 21.3887Z" fill="#FD6930"/>
<path d="M16.14 20.3876H10.4761L10.3686 21.3887H16.6316L16.5204 20.3537C16.3971 20.3757 16.2701 20.3876 16.14 20.3876Z" fill="#FD5426"/>
<path d="M20.1483 23.6184H22.8399V32.2537H20.1483V23.6184Z" fill="#FD6930"/>
<path d="M19.1485 23.6184H21.84V32.2537H19.1485V23.6184Z" fill="#FD6930"/>
<path d="M6.15988 23.6184H8.85145V32.2537H6.15988V23.6184Z" fill="#FD6930"/>
<path d="M5.16003 23.6184H7.8516V32.2537H5.16003V23.6184Z" fill="#FD6930"/>
<path d="M25.7154 34.1891H1.28465C0.851252 34.1891 0.499908 33.7408 0.499908 33.188V32.5206C0.499908 32.3732 0.61929 32.2537 0.766533 32.2537H26.2334C26.3807 32.2537 26.5001 32.3732 26.5001 32.5206V33.188C26.5001 33.7408 26.1488 34.1891 25.7154 34.1891Z" fill="#918291"/>
<path d="M13.0001 4.66334V1.53412C13.0001 1.25029 13.2299 1.02024 13.5133 1.02024H16.7602C17.1176 1.02024 17.2686 1.47606 16.9822 1.68996L13.0001 4.66334Z" fill="#FE646F"/>
<path d="M16.7603 1.02024H15.7604C15.6109 1.34445 15.3458 1.81202 14.8868 2.25883C14.1763 2.95044 13.3942 3.20972 13.0001 3.31076V4.66334L16.9823 1.68996C17.2687 1.47606 17.1176 1.02024 16.7603 1.02024Z" fill="#FD4755"/>
<path d="M2.93333 21.3888H24.0668C24.6817 21.3888 25.1802 21.8878 25.1802 22.5035C25.1802 23.1191 24.6817 23.6182 24.0668 23.6182H2.93333C2.31843 23.6182 1.81998 23.1191 1.81998 22.5035C1.81998 21.8878 2.31843 21.3888 2.93333 21.3888Z" fill="#FEDF30"/>
<path d="M24.0667 21.3888H23.1747C23.1785 21.4261 23.1804 21.464 23.1804 21.5024C23.1804 22.1181 22.682 22.6171 22.0671 22.6171H1.82571C1.88257 23.1794 2.35676 23.6182 2.93334 23.6182H24.0668C24.6817 23.6182 25.1802 23.1191 25.1802 22.5035C25.1801 21.8878 24.6816 21.3888 24.0667 21.3888Z" fill="#FED402"/>
<path d="M26.2335 31.7531H24.5667V24.0389C25.2122 23.8277 25.6801 23.2194 25.6801 22.5034C25.6801 21.6128 24.9564 20.8882 24.0668 20.8882H21.0642L19.6301 11.3273C19.4845 10.3724 19.0143 9.25371 18.4213 8.47768C18.1632 8.13992 17.8707 7.82672 17.5447 7.54575C16.5472 6.68577 15.3039 6.16955 14 6.06377V4.54121L17.2816 2.09092C17.5877 1.86234 17.7079 1.48013 17.5876 1.11721C17.4673 0.754222 17.1427 0.519705 16.7608 0.519705H13.5C13.2239 0.519705 13.0001 0.743811 13.0001 1.02024V6.06323C12.6786 6.08913 12.3597 6.13938 12.0473 6.21466C11.7789 6.27933 11.6137 6.54969 11.6782 6.81838C11.7428 7.08713 12.0128 7.25237 12.2812 7.18797C12.6785 7.0922 13.0886 7.04368 13.5 7.04368C14.7438 7.04368 15.9478 7.49096 16.8906 8.30316H10.1092C10.3174 8.12397 10.5408 7.96 10.7785 7.81357C11.0137 7.66875 11.0871 7.36042 10.9424 7.12497C10.7977 6.88952 10.4898 6.81611 10.2546 6.96093C8.6934 7.92242 7.64197 9.51393 7.36995 11.3273L5.93591 20.8882H2.93333C2.04381 20.8882 1.32006 21.6128 1.32006 22.5035C1.32006 23.2195 1.78785 23.8278 2.43341 24.039V31.7531H0.766544C0.343878 31.7531 0 32.0974 0 32.5206V33.188C0 34.016 0.576307 34.6896 1.28459 34.6896H25.7154C26.4238 34.6896 27 34.016 27 33.188V32.5206C27.0001 32.0974 26.6562 31.7531 26.2335 31.7531ZM14 1.52078H16.3726L14 3.2924V1.52078ZM18.6499 11.5336L18.9397 13.4654H18.0611C17.785 13.4654 17.5612 13.6895 17.5612 13.966C17.5612 14.2424 17.785 14.4665 18.0611 14.4665H19.0898L19.6085 17.9243H18.7467C18.4706 17.9243 18.2467 18.1484 18.2467 18.4248C18.2467 18.7012 18.4706 18.9253 18.7467 18.9253H19.7586L20.053 20.8882H17.0805L16.8118 18.3898L16.8117 18.3884L16.0748 11.5337L18.6499 11.5336ZM15.3861 14.482L15.7578 17.9398H11.2422L11.6139 14.482H15.3861ZM11.7216 13.4809L11.931 11.5336H15.0691L15.2785 13.4809H11.7216ZM15.8655 18.9409L16.0748 20.8882H10.9253L11.1347 18.9409H15.8655ZM9.21252 9.30417H17.7859C18.0461 9.68391 18.2551 10.0969 18.4072 10.5325H15.5168H15.5146H11.485H11.4834H8.59162C8.74386 10.0955 8.9531 9.68277 9.21252 9.30417ZM7.24144 18.9253H8.25328C8.52936 18.9253 8.7532 18.7012 8.7532 18.4248C8.7532 18.1484 8.52936 17.9243 8.25328 17.9243H7.39161L7.91026 14.4665H8.92243C9.19852 14.4665 9.42235 14.2424 9.42235 13.966C9.42235 13.6895 9.19852 13.4654 8.92243 13.4654H8.06037L8.35013 11.5336H10.9253L10.1884 18.3884L10.1882 18.3898L9.91961 20.8882H6.94702L7.24144 18.9253ZM2.31989 22.5034C2.31989 22.1648 2.59505 21.8892 2.93333 21.8892H6.36624H6.36851H10.3687H10.3699H16.6301H16.6314H20.6316L20.633 21.8893L24.0667 21.8892C24.4049 21.8892 24.6802 22.1647 24.6802 22.5034C24.6802 22.8421 24.405 23.1176 24.0667 23.1176H18.1321C17.856 23.1176 17.6322 23.3417 17.6322 23.6181C17.6322 23.8946 17.856 24.1187 18.1321 24.1187H18.6487V31.7531H16.4279V26.5907C16.4279 25.905 15.8707 25.3471 15.1858 25.3471H11.8142C11.1293 25.3471 10.572 25.905 10.572 26.5907V31.7531H8.35119V24.1187H16.1324C16.4085 24.1187 16.6323 23.8946 16.6323 23.6181C16.6323 23.3417 16.4085 23.1176 16.1324 23.1176H2.93333C2.59505 23.1176 2.31989 22.8421 2.31989 22.5034ZM23.5668 24.1187V31.7531H22.3399V24.1187H23.5668ZM19.6486 29.8059V28.5775H21.3401V29.8059H19.6486ZM21.3402 30.807V31.7531H19.6487V30.807H21.3402ZM19.6486 27.5764V26.3481H21.3401V27.5764H19.6486ZM19.6486 25.3471V24.1187H21.3401V25.3471H19.6486ZM15.4281 26.5907V31.7531H11.5719V26.5907C11.5719 26.457 11.6806 26.3481 11.8142 26.3481H15.1858C15.3194 26.3481 15.4281 26.457 15.4281 26.5907ZM5.65989 29.8059V28.5775H7.35135V29.8059H5.65989ZM7.35142 30.807V31.7531H5.65996V30.807H7.35142ZM5.65989 27.5764V26.3481H7.35135V27.5764H5.65989ZM5.65989 25.3471V24.1187H7.35135V25.3471H5.65989ZM4.66005 24.1187V31.7531H3.43318V24.1187H4.66005ZM26.0002 33.188C26.0002 33.4935 25.8316 33.6885 25.7155 33.6885H1.28466C1.16855 33.6885 0.999906 33.4935 0.999906 33.188V32.7542H26.0002V33.188Z" fill="black"/>
</g>
<defs>
<clipPath id="clip0_1_947">
<rect width="27" height="34.1699" fill="white" transform="translate(0 0.519705)"/>
</clipPath>
</defs>
</svg>
